<?xml version="1.0" encoding="utf-8"?>
<!-- Generator: Adobe Illustrator 18.1.1, SVG Export Plug-In . SVG Version: 6.00 Build 0)  -->
<svg version="1.1" id="Layer_1" xmlns="http://www.w3.org/2000/svg" xmlns:xlink="http://www.w3.org/1999/xlink" x="0px" y="0px"
	 viewBox="0 0 136.9 109.5" enable-background="new 0 0 136.9 109.5" xml:space="preserve">
<g>
	<rect x="2.2" y="2.1" fill="#0F1041" width="132.5" height="105.3"/>
	<rect x="2.2" y="2.1" fill="#1A1751" width="132.5" height="54.5"/>
	<rect x="2.2" y="3" fill="#0F1041" width="132.5" height="18"/>
	<rect x="2.2" y="2.1" fill="none" stroke="#FFFF00" stroke-width="4" stroke-miterlimit="10" width="132.5" height="105.3"/>
	<g>
		<path fill="#FF0099" d="M10.9,56.5V36.2h12.7v2.5h2.5V54h-2.5v2.5H10.9z M21.1,51.5V41.3H16v10.2H21.1z"/>
		<path fill="#FF0099" d="M27.4,56.5V36.2h12.7v2.5h2.5v7.6h-2.5v5.1h2.5v5.1h-5.1V54H35v-2.5h-2.5v5.1H27.4z M37.6,46.4v-5.1h-5.1
			v5.1H37.6z"/>
		<path fill="#FF0099" d="M43.9,56.5v-5.1H49V41.3h-5.1v-5.1h15.3v5.1h-5.1v10.2h5.1v5.1H43.9z"/>
		<path fill="#FF0099" d="M65.5,56.5l-5.1-5.1V36.2h5.1v12.7l2.5,2.5l2.5-2.5V36.2h5.1v15.3l-5.1,5.1H65.5z"/>
		<path fill="#FF0099" d="M76.9,56.5v-5.1H82V41.3h-5.1v-5.1h15.3v5.1h-5.1v10.2h5.1v5.1H76.9z"/>
		<path fill="#FF0099" d="M93.4,56.5V36.2h5.1v2.5h2.5v2.5h2.5v-5.1h5.1v20.3h-5.1V46.4h-2.5v-2.5h-2.5v12.7H93.4z"/>
		<path fill="#FF0099" d="M112.5,56.5V54h-2.5V38.7h2.5v-2.5h12.7v5.1H115v10.2h5.1v-5.1h5.1v10.2H112.5z"/>
		<path fill="#FF0099" d="M14.7,75.9v-3.8h-3.8V67h3.8v-3.8h5.1V67h3.8v5.1h-3.8v3.8H14.7z"/>
		<path fill="#FF0099" d="M24.9,81V60.6h12.7v2.5h2.5v7.6h-2.5v5.1h2.5V81H35v-2.5h-2.5v-2.5h-2.5V81H24.9z M35,70.8v-5.1h-5.1v5.1
			H35z"/>
		<path fill="#FF0099" d="M41.4,81V63.2h2.5v-2.5h10.2v2.5h2.5V81h-5.1v-5.1h-5.1V81H41.4z M51.5,70.8v-5.1h-5.1v5.1H51.5z"/>
		<path fill="#FF0099" d="M57.9,81V60.6h15.3v5.1H63v10.2h10.2V81H57.9z"/>
		<path fill="#FF0099" d="M74.4,81v-5.1h5.1V65.7h-5.1v-5.1h15.3v5.1h-5.1v10.2h5.1V81H74.4z"/>
		<path fill="#FF0099" d="M90.9,81V60.6H96v2.5h2.5v2.5h2.5v-5.1h5.1V81h-5.1V70.8h-2.5v-2.5H96V81H90.9z"/>
		<path fill="#FF0099" d="M109.9,81v-2.5h-2.5V63.2h2.5v-2.5h12.7v5.1h-10.2v10.2h5.1v-5.1h5.1V81H109.9z"/>
	</g>
	<g>
		<path fill="#FF9933" d="M10.9,51.5V31.1h12.7v2.5h2.5v15.3h-2.5v2.5H10.9z M21.1,46.4V36.2H16v10.2H21.1z"/>
		<path fill="#FF9933" d="M27.4,51.5V31.1h12.7v2.5h2.5v7.6h-2.5v5.1h2.5v5.1h-5.1v-2.5H35v-2.5h-2.5v5.1H27.4z M37.6,41.3v-5.1
			h-5.1v5.1H37.6z"/>
		<path fill="#FF9933" d="M43.9,51.5v-5.1H49V36.2h-5.1v-5.1h15.3v5.1h-5.1v10.2h5.1v5.1H43.9z"/>
		<path fill="#FF9933" d="M65.5,51.5l-5.1-5.1V31.1h5.1v12.7l2.5,2.5l2.5-2.5V31.1h5.1v15.3l-5.1,5.1H65.5z"/>
		<path fill="#FF9933" d="M76.9,51.5v-5.1H82V36.2h-5.1v-5.1h15.3v5.1h-5.1v10.2h5.1v5.1H76.9z"/>
		<path fill="#FF9933" d="M93.4,51.5V31.1h5.1v2.5h2.5v2.5h2.5v-5.1h5.1v20.3h-5.1V41.3h-2.5v-2.5h-2.5v12.7H93.4z"/>
		<path fill="#FF9933" d="M112.5,51.5v-2.5h-2.5V33.7h2.5v-2.5h12.7v5.1H115v10.2h5.1v-5.1h5.1v10.2H112.5z"/>
		<path fill="#FF9933" d="M14.7,70.8V67h-3.8v-5.1h3.8v-3.8h5.1v3.8h3.8V67h-3.8v3.8H14.7z"/>
		<path fill="#FF9933" d="M24.9,75.9V55.5h12.7v2.5h2.5v7.6h-2.5v5.1h2.5v5.1H35v-2.5h-2.5v-2.5h-2.5v5.1H24.9z M35,65.7v-5.1h-5.1
			v5.1H35z"/>
		<path fill="#FF9933" d="M41.4,75.9V58.1h2.5v-2.5h10.2v2.5h2.5v17.8h-5.1v-5.1h-5.1v5.1H41.4z M51.5,65.7v-5.1h-5.1v5.1H51.5z"/>
		<path fill="#FF9933" d="M57.9,75.9V55.5h15.3v5.1H63v10.2h10.2v5.1H57.9z"/>
		<path fill="#FF9933" d="M74.4,75.9v-5.1h5.1V60.6h-5.1v-5.1h15.3v5.1h-5.1v10.2h5.1v5.1H74.4z"/>
		<path fill="#FF9933" d="M90.9,75.9V55.5H96v2.5h2.5v2.5h2.5v-5.1h5.1v20.3h-5.1V65.7h-2.5v-2.5H96v12.7H90.9z"/>
		<path fill="#FF9933" d="M109.9,75.9v-2.5h-2.5V58.1h2.5v-2.5h12.7v5.1h-10.2v10.2h5.1v-5.1h5.1v10.2H109.9z"/>
	</g>
	<g>
		<path fill="#FFFF00" d="M10.9,46.4V26h12.7v2.5h2.5v15.3h-2.5v2.5H10.9z M21.1,41.3V31.1H16v10.2H21.1z"/>
		<path fill="#FFFF00" d="M27.4,46.4V26h12.7v2.5h2.5v7.6h-2.5v5.1h2.5v5.1h-5.1v-2.5H35v-2.5h-2.5v5.1H27.4z M37.6,36.2v-5.1h-5.1
			v5.1H37.6z"/>
		<path fill="#FFFF00" d="M43.9,46.4v-5.1H49V31.1h-5.1V26h15.3v5.1h-5.1v10.2h5.1v5.1H43.9z"/>
		<path fill="#FFFF00" d="M65.5,46.4l-5.1-5.1V26h5.1v12.7l2.5,2.5l2.5-2.5V26h5.1v15.3l-5.1,5.1H65.5z"/>
		<path fill="#FFFF00" d="M76.9,46.4v-5.1H82V31.1h-5.1V26h15.3v5.1h-5.1v10.2h5.1v5.1H76.9z"/>
		<path fill="#FFFF00" d="M93.4,46.4V26h5.1v2.5h2.5v2.5h2.5V26h5.1v20.3h-5.1V36.2h-2.5v-2.5h-2.5v12.7H93.4z"/>
		<path fill="#FFFF00" d="M112.5,46.4v-2.5h-2.5V28.6h2.5V26h12.7v5.1H115v10.2h5.1v-5.1h5.1v10.2H112.5z"/>
		<path fill="#FFFF00" d="M14.7,65.7v-3.8h-3.8v-5.1h3.8V53h5.1v3.8h3.8v5.1h-3.8v3.8H14.7z"/>
		<path fill="#FFFF00" d="M24.9,70.8V50.4h12.7V53h2.5v7.6h-2.5v5.1h2.5v5.1H35v-2.5h-2.5v-2.5h-2.5v5.1H24.9z M35,60.6v-5.1h-5.1
			v5.1H35z"/>
		<path fill="#FFFF00" d="M41.4,70.8V53h2.5v-2.5h10.2V53h2.5v17.8h-5.1v-5.1h-5.1v5.1H41.4z M51.5,60.6v-5.1h-5.1v5.1H51.5z"/>
		<path fill="#FFFF00" d="M57.9,70.8V50.4h15.3v5.1H63v10.2h10.2v5.1H57.9z"/>
		<path fill="#FFFF00" d="M74.4,70.8v-5.1h5.1V55.5h-5.1v-5.1h15.3v5.1h-5.1v10.2h5.1v5.1H74.4z"/>
		<path fill="#FFFF00" d="M90.9,70.8V50.4H96V53h2.5v2.5h2.5v-5.1h5.1v20.3h-5.1V60.6h-2.5v-2.5H96v12.7H90.9z"/>
		<path fill="#FFFF00" d="M109.9,70.8v-2.5h-2.5V53h2.5v-2.5h12.7v5.1h-10.2v10.2h5.1v-5.1h5.1v10.2H109.9z"/>
	</g>
	<g>
		<path fill="#66FF99" d="M10.9,41.3V20.9h12.7v2.5h2.5v15.3h-2.5v2.5H10.9z M21.1,36.2V26H16v10.2H21.1z"/>
		<path fill="#66FF99" d="M27.4,41.3V20.9h12.7v2.5h2.5v7.6h-2.5v5.1h2.5v5.1h-5.1v-2.5H35v-2.5h-2.5v5.1H27.4z M37.6,31.1V26h-5.1
			v5.1H37.6z"/>
		<path fill="#66FF99" d="M43.9,41.3v-5.1H49V26h-5.1v-5.1h15.3V26h-5.1v10.2h5.1v5.1H43.9z"/>
		<path fill="#66FF99" d="M65.5,41.3l-5.1-5.1V20.9h5.1v12.7l2.5,2.5l2.5-2.5V20.9h5.1v15.3l-5.1,5.1H65.5z"/>
		<path fill="#66FF99" d="M76.9,41.3v-5.1H82V26h-5.1v-5.1h15.3V26h-5.1v10.2h5.1v5.1H76.9z"/>
		<path fill="#66FF99" d="M93.4,41.3V20.9h5.1v2.5h2.5V26h2.5v-5.1h5.1v20.3h-5.1V31.1h-2.5v-2.5h-2.5v12.7H93.4z"/>
		<path fill="#66FF99" d="M112.5,41.3v-2.5h-2.5V23.5h2.5v-2.5h12.7V26H115v10.2h5.1v-5.1h5.1v10.2H112.5z"/>
		<path fill="#66FF99" d="M14.7,60.6v-3.8h-3.8v-5.1h3.8v-3.8h5.1v3.8h3.8v5.1h-3.8v3.8H14.7z"/>
		<path fill="#66FF99" d="M24.9,65.7V45.4h12.7v2.5h2.5v7.6h-2.5v5.1h2.5v5.1H35v-2.5h-2.5v-2.5h-2.5v5.1H24.9z M35,55.5v-5.1h-5.1
			v5.1H35z"/>
		<path fill="#66FF99" d="M41.4,65.7V47.9h2.5v-2.5h10.2v2.5h2.5v17.8h-5.1v-5.1h-5.1v5.1H41.4z M51.5,55.5v-5.1h-5.1v5.1H51.5z"/>
		<path fill="#66FF99" d="M57.9,65.7V45.4h15.3v5.1H63v10.2h10.2v5.1H57.9z"/>
		<path fill="#66FF99" d="M74.4,65.7v-5.1h5.1V50.4h-5.1v-5.1h15.3v5.1h-5.1v10.2h5.1v5.1H74.4z"/>
		<path fill="#66FF99" d="M90.9,65.7V45.4H96v2.5h2.5v2.5h2.5v-5.1h5.1v20.3h-5.1V55.5h-2.5V53H96v12.7H90.9z"/>
		<path fill="#66FF99" d="M109.9,65.7v-2.5h-2.5V47.9h2.5v-2.5h12.7v5.1h-10.2v10.2h5.1v-5.1h5.1v10.2H109.9z"/>
	</g>
	<g>
		<path fill="#1A1751" d="M10.9,36.3V15.9h12.7v2.5h2.5v15.3h-2.5v2.5H10.9z M21.1,31.2V21H16v10.2H21.1z"/>
		<path fill="#1A1751" d="M27.4,36.3V15.9h12.7v2.5h2.5v7.6h-2.5v5.1h2.5v5.1h-5.1v-2.5H35v-2.5h-2.5v5.1H27.4z M37.6,26.1V21h-5.1
			v5.1H37.6z"/>
		<path fill="#1A1751" d="M43.9,36.3v-5.1H49V21h-5.1v-5.1h15.3V21h-5.1v10.2h5.1v5.1H43.9z"/>
		<path fill="#1A1751" d="M65.5,36.3l-5.1-5.1V15.9h5.1v12.7l2.5,2.5l2.5-2.5V15.9h5.1v15.3l-5.1,5.1H65.5z"/>
		<path fill="#1A1751" d="M76.9,36.3v-5.1H82V21h-5.1v-5.1h15.3V21h-5.1v10.2h5.1v5.1H76.9z"/>
		<path fill="#1A1751" d="M93.4,36.3V15.9h5.1v2.5h2.5V21h2.5v-5.1h5.1v20.3h-5.1V26.1h-2.5v-2.5h-2.5v12.7H93.4z"/>
		<path fill="#1A1751" d="M112.5,36.3v-2.5h-2.5V18.5h2.5v-2.5h12.7V21H115v10.2h5.1v-5.1h5.1v10.2H112.5z"/>
		<path fill="#1A1751" d="M14.7,55.6v-3.8h-3.8v-5.1h3.8v-3.8h5.1v3.8h3.8v5.1h-3.8v3.8H14.7z"/>
		<path fill="#1A1751" d="M24.9,60.7V40.4h12.7v2.5h2.5v7.6h-2.5v5.1h2.5v5.1H35v-2.5h-2.5v-2.5h-2.5v5.1H24.9z M35,50.5v-5.1h-5.1
			v5.1H35z"/>
		<path fill="#1A1751" d="M41.4,60.7V42.9h2.5v-2.5h10.2v2.5h2.5v17.8h-5.1v-5.1h-5.1v5.1H41.4z M51.5,50.5v-5.1h-5.1v5.1H51.5z"/>
		<path fill="#1A1751" d="M57.9,60.7V40.4h15.3v5.1H63v10.2h10.2v5.1H57.9z"/>
		<path fill="#1A1751" d="M74.4,60.7v-5.1h5.1V45.4h-5.1v-5.1h15.3v5.1h-5.1v10.2h5.1v5.1H74.4z"/>
		<path fill="#1A1751" d="M90.9,60.7V40.4H96v2.5h2.5v2.5h2.5v-5.1h5.1v20.3h-5.1V50.5h-2.5V48H96v12.7H90.9z"/>
		<path fill="#1A1751" d="M109.9,60.7v-2.5h-2.5V42.9h2.5v-2.5h12.7v5.1h-10.2v10.2h5.1v-5.1h5.1v10.2H109.9z"/>
	</g>
	<g>
		<path fill="#FFFFFF" d="M10.9,31.2V10.9h12.7v2.5h2.5v15.3h-2.5v2.5H10.9z M21.1,26.1V15.9H16v10.2H21.1z"/>
		<path fill="#FFFFFF" d="M27.4,31.2V10.9h12.7v2.5h2.5V21h-2.5v5.1h2.5v5.1h-5.1v-2.5H35v-2.5h-2.5v5.1H27.4z M37.6,21v-5.1h-5.1
			V21H37.6z"/>
		<path fill="#FFFFFF" d="M43.9,31.2v-5.1H49V15.9h-5.1v-5.1h15.3v5.1h-5.1v10.2h5.1v5.1H43.9z"/>
		<path fill="#FFFFFF" d="M65.5,31.2l-5.1-5.1V10.9h5.1v12.7l2.5,2.5l2.5-2.5V10.9h5.1v15.3l-5.1,5.1H65.5z"/>
		<path fill="#FFFFFF" d="M76.9,31.2v-5.1H82V15.9h-5.1v-5.1h15.3v5.1h-5.1v10.2h5.1v5.1H76.9z"/>
		<path fill="#FFFFFF" d="M93.4,31.2V10.9h5.1v2.5h2.5v2.5h2.5v-5.1h5.1v20.3h-5.1V21h-2.5v-2.5h-2.5v12.7H93.4z"/>
		<path fill="#FFFFFF" d="M112.5,31.2v-2.5h-2.5V13.4h2.5v-2.5h12.7v5.1H115v10.2h5.1V21h5.1v10.2H112.5z"/>
		<path fill="#FFFFFF" d="M14.7,50.5v-3.8h-3.8v-5.1h3.8v-3.8h5.1v3.8h3.8v5.1h-3.8v3.8H14.7z"/>
		<path fill="#FFFFFF" d="M24.9,55.6V35.3h12.7v2.5h2.5v7.6h-2.5v5.1h2.5v5.1H35v-2.5h-2.5v-2.5h-2.5v5.1H24.9z M35,45.4v-5.1h-5.1
			v5.1H35z"/>
		<path fill="#FFFFFF" d="M41.4,55.6V37.8h2.5v-2.5h10.2v2.5h2.5v17.8h-5.1v-5.1h-5.1v5.1H41.4z M51.5,45.4v-5.1h-5.1v5.1H51.5z"/>
		<path fill="#FFFFFF" d="M57.9,55.6V35.3h15.3v5.1H63v10.2h10.2v5.1H57.9z"/>
		<path fill="#FFFFFF" d="M74.4,55.6v-5.1h5.1V40.4h-5.1v-5.1h15.3v5.1h-5.1v10.2h5.1v5.1H74.4z"/>
		<path fill="#FFFFFF" d="M90.9,55.6V35.3H96v2.5h2.5v2.5h2.5v-5.1h5.1v20.3h-5.1V45.4h-2.5v-2.5H96v12.7H90.9z"/>
		<path fill="#FFFFFF" d="M109.9,55.6v-2.5h-2.5V37.8h2.5v-2.5h12.7v5.1h-10.2v10.2h5.1v-5.1h5.1v10.2H109.9z"/>
	</g>
	<g id="Ta8Aq7_2_">
		<g>
			<rect x="60.8" y="96.2" fill="#888898" width="1" height="1"/>
			<rect x="56.8" y="96.2" fill="#780000" width="1" height="1"/>
			<rect x="55.8" y="96.2" fill="#780000" width="1" height="1"/>
			<rect x="54.8" y="96.2" fill="#780000" width="1" height="1"/>
			<rect x="53.8" y="96.2" fill="#780000" width="1" height="1"/>
			<rect x="52.8" y="96.2" fill="#780000" width="1" height="1"/>
			<rect x="51.8" y="96.2" fill="#780000" width="1" height="1"/>
			<rect x="50.8" y="96.2" fill="#780000" width="1" height="1"/>
			<rect x="49.8" y="96.2" fill="#780000" width="1" height="1"/>
			<rect x="48.8" y="96.2" fill="#780000" width="1" height="1"/>
			<rect x="47.8" y="96.2" fill="#780000" width="1" height="1"/>
			<rect x="46.8" y="96.2" fill="#780000" width="1" height="1"/>
			<rect x="60.8" y="95.2" fill="#888898" width="1" height="1"/>
			<rect x="57.8" y="95.2" fill="#780000" width="1" height="1"/>
			<rect x="51.8" y="95.2" fill="#780000" width="1" height="1"/>
			<rect x="50.8" y="95.2" fill="#780000" width="1" height="1"/>
			<rect x="49.8" y="95.2" fill="#780000" width="1" height="1"/>
			<rect x="48.8" y="95.2" fill="#780000" width="1" height="1"/>
			<rect x="47.8" y="95.2" fill="#780000" width="1" height="1"/>
			<rect x="46.8" y="95.2" fill="#780000" width="1" height="1"/>
			<rect x="45.8" y="95.2" fill="#780000" width="1" height="1"/>
			<rect x="44.8" y="95.2" fill="#780000" width="1" height="1"/>
			<rect x="43.8" y="95.2" fill="#780000" width="1" height="1"/>
			<rect x="42.8" y="95.2" fill="#780000" width="1" height="1"/>
			<rect x="41.8" y="95.2" fill="#780000" width="1" height="1"/>
			<rect x="40.8" y="95.2" fill="#780000" width="1" height="1"/>
			<rect x="60.8" y="94.2" fill="#888898" width="1" height="1"/>
			<rect x="57.8" y="94.2" fill="#780000" width="1" height="1"/>
			<rect x="45.8" y="94.2" fill="#780000" width="1" height="1"/>
			<rect x="44.8" y="94.2" fill="#780000" width="1" height="1"/>
			<rect x="43.8" y="94.2" fill="#780000" width="1" height="1"/>
			<rect x="42.8" y="94.2" fill="#780000" width="1" height="1"/>
			<rect x="41.8" y="94.2" fill="#780000" width="1" height="1"/>
			<rect x="40.8" y="94.2" fill="#780000" width="1" height="1"/>
			<rect x="39.8" y="94.2" fill="#780000" width="1" height="1"/>
			<rect x="38.8" y="94.2" fill="#780000" width="1" height="1"/>
			<rect x="37.8" y="94.2" fill="#780000" width="1" height="1"/>
			<rect x="36.8" y="94.2" fill="#780000" width="1" height="1"/>
			<rect x="35.8" y="94.2" fill="#780000" width="1" height="1"/>
			<rect x="34.8" y="94.2" fill="#780000" width="1" height="1"/>
			<rect x="61.8" y="93.2" fill="#888898" width="1" height="1"/>
			<rect x="60.8" y="93.2" fill="#888898" width="1" height="1"/>
			<rect x="33.8" y="93.2" fill="#780000" width="1" height="1"/>
			<rect x="32.8" y="93.2" fill="#780000" width="1" height="1"/>
			<rect x="31.8" y="93.2" fill="#780000" width="1" height="1"/>
			<rect x="30.8" y="93.2" fill="#780000" width="1" height="1"/>
			<rect x="29.8" y="93.2" fill="#780000" width="1" height="1"/>
			<rect x="28.8" y="93.2" fill="#780000" width="1" height="1"/>
			<rect x="27.8" y="93.2" fill="#780000" width="1" height="1"/>
			<rect x="26.8" y="93.2" fill="#780000" width="1" height="1"/>
			<rect x="25.8" y="93.2" fill="#780000" width="1" height="1"/>
			<rect x="24.8" y="93.2" fill="#780000" width="1" height="1"/>
			<rect x="61.8" y="92.2" fill="#888898" width="1" height="1"/>
			<rect x="56.8" y="92.2" fill="#780000" width="1" height="1"/>
			<rect x="28.8" y="92.2" fill="#780000" width="1" height="1"/>
			<rect x="27.8" y="92.2" fill="#780000" width="1" height="1"/>
			<rect x="26.8" y="92.2" fill="#780000" width="1" height="1"/>
			<rect x="25.8" y="92.2" fill="#780000" width="1" height="1"/>
			<rect x="24.8" y="92.2" fill="#780000" width="1" height="1"/>
			<rect x="23.8" y="92.2" fill="#780000" width="1" height="1"/>
			<rect x="22.8" y="92.2" fill="#780000" width="1" height="1"/>
			<rect x="21.8" y="92.2" fill="#780000" width="1" height="1"/>
			<rect x="20.8" y="92.2" fill="#780000" width="1" height="1"/>
			<rect x="19.8" y="92.2" fill="#780000" width="1" height="1"/>
			<rect x="61.8" y="91.2" fill="#888898" width="1" height="1"/>
			<rect x="57.8" y="91.2" fill="#780000" width="1" height="1"/>
			<rect x="22.8" y="91.2" fill="#780000" width="1" height="1"/>
			<rect x="21.8" y="91.2" fill="#780000" width="1" height="1"/>
			<rect x="20.8" y="91.2" fill="#780000" width="1" height="1"/>
			<rect x="19.8" y="91.2" fill="#780000" width="1" height="1"/>
			<rect x="18.8" y="91.2" fill="#780000" width="1" height="1"/>
			<rect x="17.8" y="91.2" fill="#780000" width="1" height="1"/>
			<rect x="16.8" y="91.2" fill="#780000" width="1" height="1"/>
			<rect x="15.8" y="91.2" fill="#780000" width="1" height="1"/>
			<rect x="14.8" y="91.2" fill="#780000" width="1" height="1"/>
			<rect x="13.8" y="91.2" fill="#780000" width="1" height="1"/>
			<rect x="62.8" y="90.2" fill="#888898" width="1" height="1"/>
			<rect x="61.8" y="90.2" fill="#888898" width="1" height="1"/>
			<rect x="11.8" y="90.2" fill="#780000" width="1" height="1"/>
			<rect x="10.8" y="90.2" fill="#780000" width="1" height="1"/>
			<rect x="9.8" y="90.2" fill="#780000" width="1" height="1"/>
			<rect x="8.8" y="90.2" fill="#780000" width="1" height="1"/>
			<rect x="7.8" y="90.2" fill="#780000" width="1" height="1"/>
			<rect x="62.8" y="89.2" fill="#888898" width="1" height="1"/>
			<rect x="61.8" y="89.2" fill="#888898" width="1" height="1"/>
			<rect x="62.8" y="88.2" fill="#888898" width="1" height="1"/>
			<rect x="61.8" y="88.2" fill="#888898" width="1" height="1"/>
			<rect x="64.8" y="87.2" fill="#780000" width="1" height="1"/>
			<rect x="63.8" y="87.2" fill="#707078" width="1" height="1"/>
			<rect x="61.8" y="87.2" fill="#888898" width="1" height="1"/>
			<rect x="36.8" y="87.2" fill="#888898" width="1" height="1"/>
			<rect x="35.8" y="87.2" fill="#888898" width="1" height="1"/>
			<rect x="34.8" y="87.2" fill="#888898" width="1" height="1"/>
			<rect x="7.8" y="87.2" fill="#780000" width="1" height="1"/>
			<rect x="64.8" y="86.2" fill="#780000" width="1" height="1"/>
			<rect x="63.8" y="86.2" fill="#707078" width="1" height="1"/>
			<rect x="61.8" y="86.2" fill="#888898" width="1" height="1"/>
			<rect x="36.8" y="86.2" fill="#888898" width="1" height="1"/>
			<rect x="33.8" y="86.2" fill="#888898" width="1" height="1"/>
			<rect x="32.8" y="86.2" fill="#888898" width="1" height="1"/>
			<rect x="31.8" y="86.2" fill="#888898" width="1" height="1"/>
			<rect x="30.8" y="86.2" fill="#888898" width="1" height="1"/>
			<rect x="29.8" y="86.2" fill="#888898" width="1" height="1"/>
			<rect x="28.8" y="86.2" fill="#888898" width="1" height="1"/>
			<rect x="65.8" y="85.2" fill="#780000" width="1" height="1"/>
			<rect x="36.8" y="85.2" fill="#888898" width="1" height="1"/>
			<rect x="27.8" y="85.2" fill="#888898" width="1" height="1"/>
			<rect x="26.8" y="85.2" fill="#888898" width="1" height="1"/>
			<rect x="36.8" y="84.2" fill="#888898" width="1" height="1"/>
			<rect x="26.8" y="84.2" fill="#888898" width="1" height="1"/>
			<g>
				<polygon fill="#A88800" points="55.8,88.2 55.8,89.2 54.8,89.2 53.8,89.2 52.8,89.2 51.8,89.2 51.8,90.2 51.8,91.2 52.8,91.2 
					53.8,91.2 54.8,91.2 55.8,91.2 55.8,90.2 56.8,90.2 56.8,89.2 56.8,88.2 				"/>
				<polygon fill="#A88800" points="11.8,84.2 11.8,85.2 12.8,85.2 13.8,85.2 13.8,84.2 12.8,84.2 				"/>
			</g>
			<rect x="67.8" y="83.2" fill="#780000" width="1" height="1"/>
			<rect x="36.8" y="83.2" fill="#888898" width="1" height="1"/>
			<rect x="26.8" y="83.2" fill="#888898" width="1" height="1"/>
			<rect x="67.8" y="82.2" fill="#780000" width="1" height="1"/>
			<rect x="36.8" y="82.2" fill="#888898" width="1" height="1"/>
			<rect x="35.8" y="82.2" fill="#888898" width="1" height="1"/>
			<rect x="34.8" y="82.2" fill="#888898" width="1" height="1"/>
			<rect x="33.8" y="82.2" fill="#888898" width="1" height="1"/>
			<rect x="32.8" y="82.2" fill="#888898" width="1" height="1"/>
			<rect x="31.8" y="82.2" fill="#888898" width="1" height="1"/>
			<rect x="26.8" y="82.2" fill="#888898" width="1" height="1"/>
			<rect x="69.8" y="81.2" fill="#780000" width="1" height="1"/>
			<rect x="53.8" y="81.2" fill="#780000" width="1" height="1"/>
			<rect x="30.8" y="81.2" fill="#888898" width="1" height="1"/>
			<rect x="29.8" y="81.2" fill="#888898" width="1" height="1"/>
			<rect x="28.8" y="81.2" fill="#888898" width="1" height="1"/>
			<rect x="27.8" y="81.2" fill="#888898" width="1" height="1"/>
			<rect x="53.8" y="80.2" fill="#780000" width="1" height="1"/>
			<rect x="52.8" y="80.2" fill="#780000" width="1" height="1"/>
			<rect x="51.8" y="80.2" fill="#780000" width="1" height="1"/>
			<rect x="50.8" y="80.2" fill="#780000" width="1" height="1"/>
			<g>
				<polygon fill="#880000" points="55.8,85.2 54.8,85.2 53.8,85.2 52.8,85.2 51.8,85.2 51.8,86.2 51.8,87.2 51.8,88.2 52.8,88.2 
					53.8,88.2 54.8,88.2 55.8,88.2 55.8,87.2 56.8,87.2 56.8,86.2 56.8,85.2 				"/>
				<polygon fill="#880000" points="48.8,86.2 47.8,86.2 47.8,85.2 46.8,85.2 45.8,85.2 45.8,84.2 44.8,84.2 43.8,84.2 42.8,84.2 
					41.8,84.2 41.8,85.2 41.8,86.2 42.8,86.2 43.8,86.2 44.8,86.2 45.8,86.2 45.8,87.2 46.8,87.2 47.8,87.2 48.8,87.2 49.8,87.2 
					49.8,86.2 49.8,85.2 48.8,85.2 				"/>
				<polygon fill="#880000" points="18.8,81.2 17.8,81.2 16.8,81.2 15.8,81.2 14.8,81.2 14.8,82.2 14.8,83.2 15.8,83.2 16.8,83.2 
					17.8,83.2 18.8,83.2 19.8,83.2 20.8,83.2 20.8,82.2 20.8,81.2 19.8,81.2 				"/>
				<polygon fill="#880000" points="11.8,80.2 10.8,80.2 10.8,81.2 11.8,81.2 11.8,82.2 12.8,82.2 13.8,82.2 13.8,81.2 13.8,80.2 
					12.8,80.2 				"/>
			</g>
			<rect x="49.8" y="79.2" fill="#780000" width="1" height="1"/>
			<rect x="48.8" y="79.2" fill="#780000" width="1" height="1"/>
			<rect x="47.8" y="79.2" fill="#780000" width="1" height="1"/>
			<rect x="46.8" y="79.2" fill="#780000" width="1" height="1"/>
			<rect x="45.8" y="79.2" fill="#780000" width="1" height="1"/>
			<rect x="44.8" y="79.2" fill="#780000" width="1" height="1"/>
			<rect x="43.8" y="79.2" fill="#780000" width="1" height="1"/>
			<rect x="33.8" y="79.2" fill="#888898" width="1" height="1"/>
			<rect x="32.8" y="79.2" fill="#888898" width="1" height="1"/>
			<rect x="31.8" y="79.2" fill="#888898" width="1" height="1"/>
			<rect x="71.8" y="78.2" fill="#780000" width="1" height="1"/>
			<rect x="36.8" y="78.2" fill="#780000" width="1" height="1"/>
			<rect x="35.8" y="78.2" fill="#780000" width="1" height="1"/>
			<rect x="34.8" y="78.2" fill="#780000" width="1" height="1"/>
			<rect x="33.8" y="78.2" fill="#780000" width="1" height="1"/>
			<rect x="32.8" y="78.2" fill="#780000" width="1" height="1"/>
			<rect x="31.8" y="78.2" fill="#780000" width="1" height="1"/>
			<rect x="30.8" y="78.2" fill="#780000" width="1" height="1"/>
			<rect x="29.8" y="78.2" fill="#780000" width="1" height="1"/>
			<rect x="71.8" y="77.2" fill="#780000" width="1" height="1"/>
			<rect x="28.8" y="77.2" fill="#780000" width="1" height="1"/>
			<rect x="27.8" y="77.2" fill="#780000" width="1" height="1"/>
			<rect x="26.8" y="77.2" fill="#780000" width="1" height="1"/>
			<rect x="25.8" y="77.2" fill="#780000" width="1" height="1"/>
			<rect x="24.8" y="77.2" fill="#780000" width="1" height="1"/>
			<rect x="23.8" y="77.2" fill="#780000" width="1" height="1"/>
			<rect x="22.8" y="77.2" fill="#780000" width="1" height="1"/>
			<rect x="72.8" y="76.2" fill="#780000" width="1" height="1"/>
			<rect x="21.8" y="76.2" fill="#780000" width="1" height="1"/>
			<rect x="20.8" y="76.2" fill="#780000" width="1" height="1"/>
			<rect x="19.8" y="76.2" fill="#780000" width="1" height="1"/>
			<rect x="18.8" y="76.2" fill="#780000" width="1" height="1"/>
			<rect x="17.8" y="76.2" fill="#780000" width="1" height="1"/>
			<rect x="16.8" y="76.2" fill="#780000" width="1" height="1"/>
			<rect x="74.8" y="74.2" fill="#888898" width="1" height="1"/>
			<rect x="66.8" y="74.2" fill="#780000" width="1" height="1"/>
			<rect x="74.8" y="73.2" fill="#888898" width="1" height="1"/>
			<rect x="66.8" y="73.2" fill="#780000" width="1" height="1"/>
			<rect x="75.8" y="72.2" fill="#888898" width="1" height="1"/>
			<rect x="68.8" y="72.2" fill="#780000" width="1" height="1"/>
			<rect x="64.8" y="72.2" fill="#780000" width="1" height="1"/>
			<rect x="75.8" y="71.2" fill="#888898" width="1" height="1"/>
			<rect x="69.8" y="71.2" fill="#780000" width="1" height="1"/>
			<rect x="67.8" y="71.2" fill="#780000" width="1" height="1"/>
			<rect x="64.8" y="71.2" fill="#780000" width="1" height="1"/>
			<rect x="75.8" y="70.2" fill="#888898" width="1" height="1"/>
			<rect x="68.8" y="70.2" fill="#780000" width="1" height="1"/>
			<rect x="67.8" y="70.2" fill="#780000" width="1" height="1"/>
			<rect x="54.8" y="69.2" fill="#888898" width="1" height="1"/>
			<rect x="74.8" y="66.2" fill="#888898" width="1" height="1"/>
			<rect x="73.8" y="66.2" fill="#888898" width="1" height="1"/>
			<rect x="72.8" y="66.2" fill="#888898" width="1" height="1"/>
			<rect x="77.8" y="65.2" fill="#780000" width="1" height="1"/>
			<rect x="74.8" y="65.2" fill="#888898" width="1" height="1"/>
			<rect x="73.8" y="65.2" fill="#888898" width="1" height="1"/>
			<rect x="72.8" y="65.2" fill="#888898" width="1" height="1"/>
			<rect x="62.8" y="65.2" fill="#780000" width="1" height="1"/>
			<g>
				<polygon fill="#707060" points="48.8,88.2 47.8,88.2 46.8,88.2 45.8,88.2 44.8,88.2 43.8,88.2 42.8,88.2 41.8,88.2 41.8,89.2 
					42.8,89.2 43.8,89.2 44.8,89.2 45.8,89.2 45.8,90.2 46.8,90.2 47.8,90.2 48.8,90.2 49.8,90.2 49.8,89.2 48.8,89.2 				"/>
				<polygon fill="#707060" points="18.8,85.2 17.8,85.2 16.8,85.2 15.8,85.2 14.8,85.2 14.8,86.2 15.8,86.2 16.8,86.2 17.8,86.2 
					18.8,86.2 19.8,86.2 20.8,86.2 20.8,85.2 19.8,85.2 				"/>
				<rect x="51.8" y="75.2" fill="#707060" width="1" height="1"/>
				<polygon fill="#707060" points="53.8,73.2 52.8,73.2 51.8,73.2 51.8,72.2 50.8,72.2 50.8,73.2 49.8,73.2 49.8,72.2 48.8,72.2 
					48.8,71.2 47.8,71.2 47.8,72.2 46.8,72.2 45.8,72.2 45.8,71.2 44.8,71.2 44.8,72.2 43.8,72.2 42.8,72.2 42.8,73.2 41.8,73.2 
					41.8,72.2 40.8,72.2 39.8,72.2 39.8,71.2 38.8,71.2 38.8,72.2 37.8,72.2 37.8,71.2 36.8,71.2 36.8,72.2 35.8,72.2 35.8,71.2 
					34.8,71.2 33.8,71.2 33.8,70.2 32.8,70.2 32.8,71.2 31.8,71.2 30.8,71.2 30.8,70.2 29.8,70.2 29.8,71.2 28.8,71.2 28.8,70.2 
					27.8,70.2 26.8,70.2 25.8,70.2 25.8,71.2 24.8,71.2 24.8,70.2 23.8,70.2 23.8,69.2 22.8,69.2 21.8,69.2 21.8,70.2 20.8,70.2 
					19.8,70.2 18.8,70.2 18.8,71.2 17.8,71.2 17.8,72.2 18.8,72.2 19.8,72.2 19.8,73.2 20.8,73.2 21.8,73.2 22.8,73.2 23.8,73.2 
					24.8,73.2 25.8,73.2 26.8,73.2 27.8,73.2 28.8,73.2 29.8,73.2 30.8,73.2 31.8,73.2 32.8,73.2 32.8,74.2 33.8,74.2 34.8,74.2 
					35.8,74.2 36.8,74.2 37.8,74.2 38.8,74.2 38.8,75.2 39.8,75.2 40.8,75.2 41.8,75.2 42.8,75.2 43.8,75.2 44.8,75.2 44.8,76.2 
					45.8,76.2 46.8,76.2 47.8,76.2 48.8,76.2 49.8,76.2 50.8,76.2 50.8,75.2 51.8,75.2 51.8,74.2 52.8,74.2 52.8,75.2 53.8,75.2 
					53.8,74.2 				"/>
				<polygon fill="#707060" points="58.8,72.2 57.8,72.2 57.8,73.2 56.8,73.2 56.8,72.2 55.8,72.2 55.8,73.2 54.8,73.2 54.8,74.2 
					54.8,75.2 53.8,75.2 53.8,76.2 54.8,76.2 55.8,76.2 55.8,75.2 56.8,75.2 57.8,75.2 58.8,75.2 58.8,74.2 59.8,74.2 59.8,73.2 
					58.8,73.2 				"/>
				<polygon fill="#707060" points="54.8,72.2 54.8,71.2 54.8,70.2 53.8,70.2 53.8,71.2 53.8,72.2 53.8,73.2 54.8,73.2 				"/>
				<polygon fill="#707060" points="60.8,72.2 59.8,72.2 59.8,73.2 60.8,73.2 61.8,73.2 61.8,72.2 61.8,71.2 60.8,71.2 				"/>
				<rect x="58.8" y="71.2" fill="#707060" width="1" height="1"/>
				<rect x="56.8" y="71.2" fill="#707060" width="1" height="1"/>
				<rect x="41.8" y="71.2" fill="#707060" width="1" height="1"/>
				<rect x="59.8" y="70.2" fill="#707060" width="1" height="1"/>
				<rect x="39.8" y="70.2" fill="#707060" width="1" height="1"/>
				<rect x="37.8" y="70.2" fill="#707060" width="1" height="1"/>
				<rect x="35.8" y="70.2" fill="#707060" width="1" height="1"/>
				<rect x="55.8" y="66.2" fill="#707060" width="1" height="1"/>
				<polygon fill="#707060" points="69.8,65.2 69.8,66.2 68.8,66.2 68.8,67.2 67.8,67.2 66.8,67.2 66.8,68.2 66.8,69.2 67.8,69.2 
					68.8,69.2 68.8,68.2 69.8,68.2 69.8,67.2 70.8,67.2 70.8,66.2 70.8,65.2 				"/>
				<rect x="67.8" y="65.2" fill="#707060" width="1" height="1"/>
				<rect x="56.8" y="65.2" fill="#707060" width="1" height="1"/>
			</g>
			<rect x="76.8" y="64.2" fill="#780000" width="1" height="1"/>
			<g>
				<rect x="52.8" y="75.2" fill="#606050" width="1" height="1"/>
				<rect x="50.8" y="75.2" fill="#606050" width="1" height="1"/>
				<rect x="51.8" y="74.2" fill="#606050" width="1" height="1"/>
				<polygon fill="#606050" points="53.8,74.2 53.8,75.2 54.8,75.2 54.8,74.2 54.8,73.2 53.8,73.2 				"/>
				<rect x="58.8" y="72.2" fill="#606050" width="1" height="1"/>
				<rect x="56.8" y="72.2" fill="#606050" width="1" height="1"/>
				<rect x="41.8" y="72.2" fill="#606050" width="1" height="1"/>
				<rect x="59.8" y="71.2" fill="#606050" width="1" height="1"/>
				<polygon fill="#606050" points="53.8,71.2 53.8,70.2 52.8,70.2 52.8,69.2 53.8,69.2 53.8,68.2 52.8,68.2 51.8,68.2 51.8,69.2 
					50.8,69.2 50.8,68.2 51.8,68.2 51.8,67.2 50.8,67.2 49.8,67.2 49.8,68.2 48.8,68.2 48.8,69.2 47.8,69.2 47.8,68.2 48.8,68.2 
					48.8,67.2 47.8,67.2 46.8,67.2 45.8,67.2 45.8,68.2 44.8,68.2 44.8,67.2 43.8,67.2 42.8,67.2 41.8,67.2 40.8,67.2 40.8,68.2 
					39.8,68.2 39.8,67.2 38.8,67.2 38.8,66.2 37.8,66.2 36.8,66.2 36.8,67.2 35.8,67.2 35.8,66.2 34.8,66.2 34.8,67.2 33.8,67.2 
					33.8,66.2 32.8,66.2 32.8,67.2 31.8,67.2 30.8,67.2 30.8,66.2 29.8,66.2 29.8,67.2 28.8,67.2 27.8,67.2 27.8,66.2 26.8,66.2 
					26.8,67.2 25.8,67.2 25.8,66.2 26.8,66.2 26.8,65.2 25.8,65.2 24.8,65.2 23.8,65.2 23.8,66.2 24.8,66.2 24.8,67.2 23.8,67.2 
					23.8,66.2 22.8,66.2 22.8,67.2 21.8,67.2 20.8,67.2 20.8,68.2 20.8,69.2 19.8,69.2 19.8,70.2 20.8,70.2 21.8,70.2 21.8,69.2 
					22.8,69.2 23.8,69.2 23.8,70.2 24.8,70.2 24.8,71.2 25.8,71.2 25.8,70.2 26.8,70.2 27.8,70.2 28.8,70.2 28.8,71.2 29.8,71.2 
					29.8,70.2 30.8,70.2 30.8,71.2 31.8,71.2 32.8,71.2 32.8,70.2 33.8,70.2 33.8,71.2 34.8,71.2 35.8,71.2 35.8,70.2 36.8,70.2 
					36.8,71.2 37.8,71.2 37.8,70.2 38.8,70.2 38.8,71.2 39.8,71.2 39.8,70.2 40.8,70.2 40.8,71.2 39.8,71.2 39.8,72.2 40.8,72.2 
					41.8,72.2 41.8,71.2 42.8,71.2 42.8,72.2 43.8,72.2 44.8,72.2 44.8,71.2 45.8,71.2 45.8,72.2 46.8,72.2 47.8,72.2 47.8,71.2 
					48.8,71.2 48.8,72.2 49.8,72.2 49.8,73.2 50.8,73.2 50.8,72.2 51.8,72.2 51.8,73.2 52.8,73.2 53.8,73.2 53.8,72.2 				"/>
				<rect x="37.8" y="71.2" fill="#606050" width="1" height="1"/>
				<rect x="35.8" y="71.2" fill="#606050" width="1" height="1"/>
				<rect x="17.8" y="70.2" fill="#606050" width="1" height="1"/>
				<rect x="53.8" y="69.2" fill="#606050" width="1" height="1"/>
				<polygon fill="#606050" points="60.8,68.2 60.8,67.2 59.8,67.2 59.8,68.2 58.8,68.2 58.8,67.2 57.8,67.2 57.8,68.2 56.8,68.2 
					56.8,69.2 55.8,69.2 55.8,70.2 54.8,70.2 54.8,71.2 54.8,72.2 54.8,73.2 55.8,73.2 55.8,72.2 56.8,72.2 56.8,71.2 57.8,71.2 
					57.8,72.2 58.8,72.2 58.8,71.2 59.8,71.2 59.8,70.2 60.8,70.2 60.8,71.2 61.8,71.2 61.8,70.2 61.8,69.2 60.8,69.2 				"/>
				<rect x="54.8" y="68.2" fill="#606050" width="1" height="1"/>
				<rect x="53.8" y="67.2" fill="#606050" width="1" height="1"/>
				<rect x="31.8" y="65.2" fill="#606050" width="1" height="1"/>
				<polygon fill="#606050" points="29.8,66.2 29.8,65.2 28.8,65.2 27.8,65.2 27.8,66.2 28.8,66.2 				"/>
				<polygon fill="#606050" points="69.8,64.2 68.8,64.2 67.8,64.2 66.8,64.2 66.8,65.2 65.8,65.2 65.8,66.2 65.8,67.2 66.8,67.2 
					67.8,67.2 68.8,67.2 68.8,66.2 67.8,66.2 67.8,65.2 68.8,65.2 68.8,66.2 69.8,66.2 69.8,65.2 70.8,65.2 70.8,64.2 				"/>
				<rect x="64.8" y="64.2" fill="#606050" width="1" height="1"/>
			</g>
			<rect x="61.8" y="64.2" fill="#780000" width="1" height="1"/>
			<rect x="73.8" y="63.2" fill="#780000" width="1" height="1"/>
			<rect x="71.8" y="63.2" fill="#780000" width="1" height="1"/>
			<rect x="70.8" y="63.2" fill="#780000" width="1" height="1"/>
			<rect x="74.8" y="62.2" fill="#780000" width="1" height="1"/>
			<rect x="72.8" y="62.2" fill="#780000" width="1" height="1"/>
			<g>
				<rect x="52.8" y="69.2" fill="#505040" width="1" height="1"/>
				<rect x="53.8" y="68.2" fill="#505040" width="1" height="1"/>
				<rect x="50.8" y="68.2" fill="#505040" width="1" height="1"/>
				<rect x="47.8" y="68.2" fill="#505040" width="1" height="1"/>
				<rect x="19.8" y="67.2" fill="#505040" width="1" height="1"/>
				<polygon fill="#505040" points="27.8,66.2 27.8,67.2 28.8,67.2 29.8,67.2 29.8,66.2 28.8,66.2 				"/>
				<rect x="25.8" y="66.2" fill="#505040" width="1" height="1"/>
				<rect x="23.8" y="66.2" fill="#505040" width="1" height="1"/>
				<polygon fill="#505040" points="57.8,65.2 57.8,66.2 56.8,66.2 56.8,67.2 55.8,67.2 55.8,66.2 56.8,66.2 56.8,65.2 55.8,65.2 
					55.8,64.2 54.8,64.2 53.8,64.2 52.8,64.2 51.8,64.2 50.8,64.2 49.8,64.2 48.8,64.2 47.8,64.2 46.8,64.2 45.8,64.2 44.8,64.2 
					43.8,64.2 42.8,64.2 41.8,64.2 40.8,64.2 40.8,63.2 39.8,63.2 38.8,63.2 37.8,63.2 36.8,63.2 35.8,63.2 34.8,63.2 33.8,63.2 
					32.8,63.2 32.8,62.2 31.8,62.2 30.8,62.2 29.8,62.2 28.8,62.2 27.8,62.2 26.8,62.2 26.8,63.2 25.8,63.2 25.8,64.2 24.8,64.2 
					23.8,64.2 23.8,65.2 24.8,65.2 25.8,65.2 26.8,65.2 26.8,66.2 27.8,66.2 27.8,65.2 28.8,65.2 29.8,65.2 29.8,66.2 30.8,66.2 
					30.8,67.2 31.8,67.2 32.8,67.2 32.8,66.2 31.8,66.2 31.8,65.2 32.8,65.2 32.8,66.2 33.8,66.2 33.8,67.2 34.8,67.2 34.8,66.2 
					35.8,66.2 35.8,67.2 36.8,67.2 36.8,66.2 37.8,66.2 38.8,66.2 38.8,67.2 39.8,67.2 39.8,68.2 40.8,68.2 40.8,67.2 41.8,67.2 
					42.8,67.2 43.8,67.2 44.8,67.2 44.8,68.2 45.8,68.2 45.8,67.2 46.8,67.2 47.8,67.2 48.8,67.2 48.8,68.2 49.8,68.2 49.8,67.2 
					50.8,67.2 51.8,67.2 51.8,68.2 52.8,68.2 53.8,68.2 53.8,67.2 54.8,67.2 54.8,68.2 55.8,68.2 55.8,69.2 56.8,69.2 56.8,68.2 
					57.8,68.2 57.8,67.2 58.8,67.2 58.8,68.2 59.8,68.2 59.8,67.2 59.8,66.2 59.8,65.2 58.8,65.2 				"/>
				<rect x="22.8" y="65.2" fill="#505040" width="1" height="1"/>
				<polygon fill="#505040" points="66.8,63.2 65.8,63.2 65.8,62.2 64.8,62.2 64.8,63.2 64.8,64.2 65.8,64.2 65.8,65.2 66.8,65.2 
					66.8,64.2 67.8,64.2 67.8,63.2 				"/>
			</g>
			<rect x="73.8" y="61.2" fill="#780000" width="1" height="1"/>
			<rect x="69.8" y="61.2" fill="#780000" width="1" height="1"/>
			<rect x="68.8" y="61.2" fill="#780000" width="1" height="1"/>
			<rect x="60.8" y="61.2" fill="#780000" width="1" height="1"/>
			<g>
				<polygon fill="#505060" points="55.8,99.2 54.8,99.2 54.8,100.2 55.8,100.2 56.8,100.2 57.8,100.2 57.8,99.2 56.8,99.2 				"/>
				<polygon fill="#505060" points="60.8,98.2 59.8,98.2 59.8,99.2 59.8,100.2 60.8,100.2 60.8,99.2 61.8,99.2 61.8,98.2 61.8,97.2 
					60.8,97.2 				"/>
				<polygon fill="#505060" points="59.8,96.2 58.8,96.2 58.8,97.2 58.8,98.2 59.8,98.2 59.8,97.2 				"/>
				<polygon fill="#505060" points="61.8,96.2 61.8,97.2 62.8,97.2 62.8,96.2 62.8,95.2 61.8,95.2 				"/>
				<rect x="62.8" y="94.2" fill="#505060" width="1" height="1"/>
				<polygon fill="#505060" points="19.8,94.2 18.8,94.2 17.8,94.2 17.8,95.2 18.8,95.2 19.8,95.2 20.8,95.2 21.8,95.2 21.8,94.2 
					20.8,94.2 				"/>
				<rect x="45.8" y="92.2" fill="#505060" width="1" height="1"/>
				<polygon fill="#505060" points="42.8,92.2 42.8,93.2 43.8,93.2 44.8,93.2 44.8,92.2 43.8,92.2 				"/>
				<polygon fill="#505060" points="63.8,92.2 63.8,93.2 63.8,94.2 64.8,94.2 64.8,93.2 64.8,92.2 64.8,91.2 63.8,91.2 				"/>
				<polygon fill="#505060" points="32.8,87.2 31.8,87.2 30.8,87.2 29.8,87.2 28.8,87.2 28.8,86.2 27.8,86.2 26.8,86.2 26.8,85.2 
					26.8,84.2 26.8,83.2 26.8,82.2 27.8,82.2 27.8,81.2 26.8,81.2 25.8,81.2 24.8,81.2 24.8,82.2 24.8,83.2 24.8,84.2 24.8,85.2 
					24.8,86.2 24.8,87.2 25.8,87.2 26.8,87.2 26.8,88.2 27.8,88.2 28.8,88.2 29.8,88.2 30.8,88.2 31.8,88.2 32.8,88.2 33.8,88.2 
					34.8,88.2 34.8,87.2 33.8,87.2 				"/>
				<polygon fill="#505060" points="63.8,84.2 63.8,85.2 63.8,86.2 64.8,86.2 64.8,85.2 64.8,84.2 64.8,83.2 63.8,83.2 				"/>
				<rect x="62.8" y="82.2" fill="#505060" width="1" height="1"/>
				<polygon fill="#505060" points="37.8,83.2 37.8,84.2 37.8,85.2 37.8,86.2 37.8,87.2 37.8,88.2 38.8,88.2 38.8,87.2 38.8,86.2 
					38.8,85.2 38.8,84.2 38.8,83.2 38.8,82.2 37.8,82.2 				"/>
				<rect x="31.8" y="80.2" fill="#505060" width="1" height="1"/>
				<polygon fill="#505060" points="74.8,76.2 74.8,75.2 73.8,75.2 73.8,76.2 73.8,77.2 73.8,78.2 73.8,79.2 74.8,79.2 74.8,78.2 
					75.8,78.2 75.8,77.2 74.8,77.2 				"/>
				<polygon fill="#505060" points="54.8,76.2 53.8,76.2 52.8,76.2 51.8,76.2 50.8,76.2 50.8,77.2 51.8,77.2 52.8,77.2 53.8,77.2 
					54.8,77.2 				"/>
				<polygon fill="#505060" points="75.8,75.2 75.8,76.2 75.8,77.2 76.8,77.2 76.8,76.2 76.8,75.2 				"/>
				<polygon fill="#505060" points="58.8,75.2 57.8,75.2 56.8,75.2 55.8,75.2 55.8,76.2 56.8,76.2 57.8,76.2 58.8,76.2 				"/>
				<polygon fill="#505060" points="42.8,75.2 41.8,75.2 40.8,75.2 39.8,75.2 38.8,75.2 38.8,76.2 39.8,76.2 40.8,76.2 41.8,76.2 
					42.8,76.2 43.8,76.2 44.8,76.2 44.8,75.2 43.8,75.2 				"/>
				<rect x="58.8" y="74.2" fill="#505060" width="1" height="1"/>
				<polygon fill="#505060" points="37.8,74.2 36.8,74.2 35.8,74.2 34.8,74.2 33.8,74.2 32.8,74.2 32.8,75.2 33.8,75.2 34.8,75.2 
					35.8,75.2 36.8,75.2 37.8,75.2 38.8,75.2 38.8,74.2 				"/>
				<polygon fill="#505060" points="61.8,74.2 61.8,73.2 60.8,73.2 59.8,73.2 59.8,74.2 60.8,74.2 				"/>
				<polygon fill="#505060" points="31.8,73.2 30.8,73.2 29.8,73.2 28.8,73.2 27.8,73.2 26.8,73.2 25.8,73.2 25.8,74.2 26.8,74.2 
					27.8,74.2 28.8,74.2 29.8,74.2 30.8,74.2 31.8,74.2 32.8,74.2 32.8,73.2 				"/>
				<polygon fill="#505060" points="62.8,72.2 62.8,71.2 62.8,70.2 61.8,70.2 61.8,71.2 61.8,72.2 61.8,73.2 62.8,73.2 				"/>
				<polygon fill="#505060" points="18.8,73.2 19.8,73.2 19.8,72.2 18.8,72.2 17.8,72.2 16.8,72.2 16.8,73.2 17.8,73.2 				"/>
				<polygon fill="#505060" points="66.8,69.2 66.8,70.2 67.8,70.2 68.8,70.2 68.8,69.2 67.8,69.2 				"/>
				<rect x="68.8" y="68.2" fill="#505060" width="1" height="1"/>
				<polygon fill="#505060" points="60.8,69.2 61.8,69.2 61.8,68.2 61.8,67.2 60.8,67.2 60.8,68.2 				"/>
				<rect x="69.8" y="67.2" fill="#505060" width="1" height="1"/>
				<polygon fill="#505060" points="66.8,67.2 65.8,67.2 65.8,68.2 65.8,69.2 66.8,69.2 66.8,68.2 				"/>
				<polygon fill="#505060" points="59.8,67.2 60.8,67.2 60.8,66.2 60.8,65.2 59.8,65.2 59.8,66.2 				"/>
				<rect x="21.8" y="66.2" fill="#505060" width="1" height="1"/>
				<polygon fill="#505060" points="65.8,65.2 64.8,65.2 64.8,66.2 64.8,67.2 65.8,67.2 65.8,66.2 				"/>
				<polygon fill="#505060" points="57.8,65.2 58.8,65.2 59.8,65.2 59.8,64.2 58.8,64.2 57.8,64.2 56.8,64.2 55.8,64.2 55.8,65.2 
					56.8,65.2 				"/>
				<rect x="22.8" y="64.2" fill="#505060" width="1" height="1"/>
				<rect x="67.8" y="63.2" fill="#505060" width="1" height="1"/>
				<polygon fill="#505060" points="64.8,63.2 64.8,62.2 63.8,62.2 63.8,63.2 63.8,64.2 64.8,64.2 				"/>
				<polygon fill="#505060" points="45.8,63.2 44.8,63.2 43.8,63.2 42.8,63.2 41.8,63.2 40.8,63.2 40.8,64.2 41.8,64.2 42.8,64.2 
					43.8,64.2 44.8,64.2 45.8,64.2 46.8,64.2 47.8,64.2 47.8,63.2 46.8,63.2 				"/>
				<rect x="24.8" y="63.2" fill="#505060" width="1" height="1"/>
				<polygon fill="#505060" points="66.8,63.2 67.8,63.2 67.8,62.2 66.8,62.2 65.8,62.2 65.8,63.2 				"/>
				<polygon fill="#505060" points="39.8,62.2 38.8,62.2 37.8,62.2 36.8,62.2 35.8,62.2 34.8,62.2 33.8,62.2 32.8,62.2 32.8,63.2 
					33.8,63.2 34.8,63.2 35.8,63.2 36.8,63.2 37.8,63.2 38.8,63.2 39.8,63.2 40.8,63.2 40.8,62.2 				"/>
				<rect x="25.8" y="62.2" fill="#505060" width="1" height="1"/>
				<rect x="64.8" y="61.2" fill="#505060" width="1" height="1"/>
				<polygon fill="#505060" points="31.8,61.2 30.8,61.2 29.8,61.2 28.8,61.2 27.8,61.2 26.8,61.2 26.8,62.2 27.8,62.2 28.8,62.2 
					29.8,62.2 30.8,62.2 31.8,62.2 32.8,62.2 32.8,61.2 				"/>
			</g>
			<g>
				<polygon fill="#000008" points="58.8,97.2 57.8,97.2 56.8,97.2 56.8,98.2 55.8,98.2 55.8,99.2 56.8,99.2 57.8,99.2 57.8,100.2 
					56.8,100.2 55.8,100.2 54.8,100.2 54.8,99.2 53.8,99.2 52.8,99.2 52.8,98.2 51.8,98.2 50.8,98.2 49.8,98.2 48.8,98.2 47.8,98.2 
					46.8,98.2 46.8,97.2 45.8,97.2 44.8,97.2 43.8,97.2 42.8,97.2 41.8,97.2 40.8,97.2 39.8,97.2 38.8,97.2 37.8,97.2 36.8,97.2 
					35.8,97.2 35.8,96.2 34.8,96.2 33.8,96.2 32.8,96.2 31.8,96.2 30.8,96.2 30.8,95.2 29.8,95.2 28.8,95.2 27.8,95.2 26.8,95.2 
					25.8,95.2 24.8,95.2 24.8,94.2 23.8,94.2 22.8,94.2 21.8,94.2 21.8,95.2 20.8,95.2 19.8,95.2 18.8,95.2 17.8,95.2 17.8,94.2 
					16.8,94.2 15.8,94.2 14.8,94.2 13.8,94.2 12.8,94.2 11.8,94.2 10.8,94.2 10.8,95.2 9.8,95.2 9.8,96.2 8.8,96.2 7.8,96.2 
					7.8,97.2 6.8,97.2 5.8,97.2 5.8,98.2 6.8,98.2 7.8,98.2 7.8,99.2 8.8,99.2 9.8,99.2 10.8,99.2 11.8,99.2 12.8,99.2 12.8,100.2 
					13.8,100.2 14.8,100.2 15.8,100.2 16.8,100.2 17.8,100.2 18.8,100.2 19.8,100.2 20.8,100.2 21.8,100.2 22.8,100.2 22.8,101.2 
					23.8,101.2 24.8,101.2 25.8,101.2 26.8,101.2 27.8,101.2 28.8,101.2 28.8,102.2 29.8,102.2 30.8,102.2 31.8,102.2 32.8,102.2 
					33.8,102.2 33.8,103.2 34.8,103.2 35.8,103.2 36.8,103.2 37.8,103.2 38.8,103.2 39.8,103.2 40.8,103.2 41.8,103.2 42.8,103.2 
					43.8,103.2 43.8,104.2 44.8,104.2 45.8,104.2 46.8,104.2 47.8,104.2 48.8,104.2 48.8,105.2 49.8,105.2 50.8,105.2 51.8,105.2 
					52.8,105.2 53.8,105.2 54.8,105.2 55.8,105.2 56.8,105.2 57.8,105.2 57.8,104.2 57.8,103.2 58.8,103.2 58.8,102.2 58.8,101.2 
					59.8,101.2 59.8,100.2 59.8,99.2 59.8,98.2 58.8,98.2 				"/>
				<rect x="62.8" y="95.2" fill="#000008" width="1" height="1"/>
				<polygon fill="#000008" points="59.8,96.2 59.8,97.2 59.8,98.2 60.8,98.2 60.8,97.2 60.8,96.2 60.8,95.2 59.8,95.2 				"/>
				<rect x="61.8" y="94.2" fill="#000008" width="1" height="1"/>
				<polygon fill="#000008" points="53.8,94.2 52.8,94.2 52.8,95.2 53.8,95.2 54.8,95.2 55.8,95.2 55.8,94.2 54.8,94.2 				"/>
				<polygon fill="#000008" points="51.8,93.2 50.8,93.2 49.8,93.2 48.8,93.2 47.8,93.2 46.8,93.2 45.8,93.2 45.8,92.2 44.8,92.2 
					44.8,93.2 43.8,93.2 42.8,93.2 42.8,92.2 41.8,92.2 40.8,92.2 40.8,91.2 39.8,91.2 38.8,91.2 37.8,91.2 36.8,91.2 35.8,91.2 
					34.8,91.2 33.8,91.2 32.8,91.2 31.8,91.2 30.8,91.2 29.8,91.2 29.8,92.2 30.8,92.2 31.8,92.2 32.8,92.2 33.8,92.2 34.8,92.2 
					34.8,93.2 35.8,93.2 36.8,93.2 37.8,93.2 38.8,93.2 39.8,93.2 40.8,93.2 40.8,94.2 41.8,94.2 42.8,94.2 43.8,94.2 44.8,94.2 
					45.8,94.2 46.8,94.2 47.8,94.2 48.8,94.2 49.8,94.2 50.8,94.2 51.8,94.2 52.8,94.2 52.8,93.2 				"/>
				<polygon fill="#000008" points="62.8,92.2 62.8,93.2 62.8,94.2 63.8,94.2 63.8,93.2 63.8,92.2 63.8,91.2 62.8,91.2 				"/>
				<polygon fill="#000008" points="59.8,92.2 58.8,92.2 58.8,93.2 57.8,93.2 56.8,93.2 55.8,93.2 55.8,94.2 56.8,94.2 57.8,94.2 
					58.8,94.2 59.8,94.2 59.8,93.2 60.8,93.2 60.8,92.2 60.8,91.2 59.8,91.2 				"/>
				<rect x="55.8" y="90.2" fill="#000008" width="1" height="1"/>
				<polygon fill="#000008" points="28.8,90.2 27.8,90.2 26.8,90.2 25.8,90.2 24.8,90.2 23.8,90.2 23.8,89.2 22.8,89.2 21.8,89.2 
					20.8,89.2 19.8,89.2 18.8,89.2 18.8,88.2 17.8,88.2 16.8,88.2 15.8,88.2 14.8,88.2 13.8,88.2 12.8,88.2 11.8,88.2 10.8,88.2 
					9.8,88.2 8.8,88.2 7.8,88.2 7.8,89.2 8.8,89.2 9.8,89.2 10.8,89.2 11.8,89.2 12.8,89.2 12.8,90.2 13.8,90.2 14.8,90.2 
					15.8,90.2 16.8,90.2 17.8,90.2 18.8,90.2 18.8,91.2 19.8,91.2 20.8,91.2 21.8,91.2 22.8,91.2 23.8,91.2 24.8,91.2 25.8,91.2 
					26.8,91.2 27.8,91.2 28.8,91.2 29.8,91.2 29.8,90.2 				"/>
				<polygon fill="#000008" points="63.8,86.2 63.8,85.2 63.8,84.2 63.8,83.2 62.8,83.2 62.8,84.2 61.8,84.2 61.8,85.2 61.8,86.2 
					62.8,86.2 62.8,87.2 62.8,88.2 63.8,88.2 63.8,87.2 				"/>
				<path fill="#000008" d="M56.8,84.2h-1v-1h-1h-1h-1v-1h-1h-1h-1h-1h-1h-1h-1h-1h-1h-1h-1h-1h-1h-1v1v1v1v1v1v1h-1h-1h-1h-1h-1v1
					h1h1h1h1h1h1v1h1h1h1h1h1h1v-1h-1h-1h-1h-1v-1h1h1h1h1h1h1h1h1v1v1h-1h-1h-1h-1v1h1h1h1h1h1h1v-1v-1h1h1h1h1v-1h-1h-1h-1h-1v-1
					v-1v-1h1h1h1h1h1v1v1h-1v1h1v1v1h1v-1h1v-1v-1v-1v-1h-1v-1H56.8z M48.8,87.2h-1h-1h-1v-1h-1h-1h-1h-1v-1v-1h1h1h1h1v1h1h1h1h1v1
					v1H48.8z"/>
				<rect x="9.8" y="84.2" fill="#000008" width="1" height="1"/>
				<polygon fill="#000008" points="64.8,84.2 64.8,85.2 64.8,86.2 65.8,86.2 65.8,85.2 65.8,84.2 65.8,83.2 66.8,83.2 66.8,82.2 
					65.8,82.2 65.8,81.2 64.8,81.2 63.8,81.2 63.8,82.2 63.8,83.2 64.8,83.2 				"/>
				<path fill="#000008" d="M12.8,84.2h1v1h-1h-1h-1v1h1h1h1h1v-1h1h1h1h1h1h1v1h-1h-1h-1h-1h-1h-1v1h1h1h1h1h1h1v1h1h1h1h1h1h1v-1
					h-1h-1v-1v-1v-1v-1v-1v-1h1h1h1h1h1h1h1v-1h-1h-1h-1h-1h-1v-1h-1h-1h-1h-1h-1h-1h-1h-1h-1h-1h-1v-1h-1h-1h-1h-1h-1v1v1h1h1h1v1
					v1h-1h-1h-1v1v1h1H12.8z M14.8,81.2h1h1h1h1h1h1v1v1h-1h-1h-1h-1h-1h-1v-1V81.2z"/>
				<rect x="66.8" y="81.2" fill="#000008" width="1" height="1"/>
				<polygon fill="#000008" points="32.8,82.2 33.8,82.2 34.8,82.2 35.8,82.2 36.8,82.2 37.8,82.2 37.8,81.2 36.8,81.2 35.8,81.2 
					34.8,81.2 33.8,81.2 32.8,81.2 31.8,81.2 31.8,82.2 				"/>
				<polygon fill="#000008" points="71.8,79.2 71.8,80.2 71.8,81.2 70.8,81.2 70.8,82.2 69.8,82.2 69.8,83.2 69.8,84.2 68.8,84.2 
					68.8,85.2 67.8,85.2 67.8,86.2 66.8,86.2 66.8,87.2 66.8,88.2 65.8,88.2 64.8,88.2 63.8,88.2 63.8,89.2 63.8,90.2 63.8,91.2 
					64.8,91.2 64.8,92.2 65.8,92.2 65.8,91.2 66.8,91.2 66.8,90.2 67.8,90.2 67.8,89.2 67.8,88.2 68.8,88.2 68.8,87.2 69.8,87.2 
					69.8,86.2 69.8,85.2 70.8,85.2 70.8,84.2 70.8,83.2 71.8,83.2 71.8,82.2 72.8,82.2 72.8,81.2 73.8,81.2 73.8,80.2 73.8,79.2 
					72.8,79.2 				"/>
				<rect x="67.8" y="79.2" fill="#000008" width="1" height="1"/>
				<polygon fill="#000008" points="70.8,79.2 70.8,78.2 70.8,77.2 69.8,77.2 69.8,78.2 68.8,78.2 68.8,79.2 69.8,79.2 				"/>
				<polygon fill="#000008" points="52.8,77.2 51.8,77.2 50.8,77.2 50.8,78.2 51.8,78.2 52.8,78.2 53.8,78.2 54.8,78.2 54.8,77.2 
					53.8,77.2 				"/>
				<polygon fill="#000008" points="54.8,76.2 54.8,77.2 55.8,77.2 56.8,77.2 56.8,76.2 55.8,76.2 				"/>
				<polygon fill="#000008" points="49.8,76.2 48.8,76.2 47.8,76.2 46.8,76.2 45.8,76.2 44.8,76.2 44.8,77.2 45.8,77.2 46.8,77.2 
					47.8,77.2 48.8,77.2 49.8,77.2 50.8,77.2 50.8,76.2 				"/>
				<polygon fill="#000008" points="74.8,76.2 74.8,77.2 75.8,77.2 75.8,76.2 75.8,75.2 74.8,75.2 				"/>
				<rect x="58.8" y="75.2" fill="#000008" width="1" height="1"/>
				<polygon fill="#000008" points="33.8,76.2 34.8,76.2 35.8,76.2 36.8,76.2 37.8,76.2 38.8,76.2 38.8,75.2 37.8,75.2 36.8,75.2 
					35.8,75.2 34.8,75.2 33.8,75.2 32.8,75.2 32.8,76.2 				"/>
				<polygon fill="#000008" points="71.8,75.2 70.8,75.2 70.8,76.2 71.8,76.2 72.8,76.2 72.8,75.2 72.8,74.2 71.8,74.2 				"/>
				<polygon fill="#000008" points="61.8,74.2 60.8,74.2 59.8,74.2 59.8,75.2 60.8,75.2 61.8,75.2 				"/>
				<polygon fill="#000008" points="26.8,75.2 27.8,75.2 28.8,75.2 29.8,75.2 30.8,75.2 31.8,75.2 32.8,75.2 32.8,74.2 31.8,74.2 
					30.8,74.2 29.8,74.2 28.8,74.2 27.8,74.2 26.8,74.2 25.8,74.2 25.8,75.2 				"/>
				<rect x="72.8" y="73.2" fill="#000008" width="1" height="1"/>
				<polygon fill="#000008" points="63.8,74.2 63.8,73.2 64.8,73.2 64.8,72.2 63.8,72.2 63.8,71.2 63.8,70.2 62.8,70.2 62.8,71.2 
					62.8,72.2 62.8,73.2 61.8,73.2 61.8,74.2 62.8,74.2 				"/>
				<polygon fill="#000008" points="21.8,73.2 20.8,73.2 19.8,73.2 19.8,74.2 20.8,74.2 21.8,74.2 22.8,74.2 23.8,74.2 24.8,74.2 
					25.8,74.2 25.8,73.2 24.8,73.2 23.8,73.2 22.8,73.2 				"/>
				<polygon fill="#000008" points="16.8,72.2 17.8,72.2 17.8,71.2 17.8,70.2 16.8,70.2 16.8,71.2 15.8,71.2 15.8,72.2 15.8,73.2 
					16.8,73.2 				"/>
				<polygon fill="#000008" points="78.8,71.2 78.8,70.2 77.8,70.2 77.8,69.2 77.8,68.2 78.8,68.2 78.8,67.2 78.8,66.2 77.8,66.2 
					77.8,65.2 76.8,65.2 75.8,65.2 75.8,66.2 75.8,67.2 74.8,67.2 73.8,67.2 72.8,67.2 71.8,67.2 71.8,66.2 71.8,65.2 72.8,65.2 
					73.8,65.2 74.8,65.2 75.8,65.2 75.8,64.2 74.8,64.2 73.8,64.2 72.8,64.2 71.8,64.2 70.8,64.2 70.8,65.2 70.8,66.2 70.8,67.2 
					70.8,68.2 71.8,68.2 72.8,68.2 73.8,68.2 74.8,68.2 75.8,68.2 75.8,69.2 75.8,70.2 76.8,70.2 76.8,71.2 76.8,72.2 76.8,73.2 
					75.8,73.2 75.8,74.2 75.8,75.2 76.8,75.2 76.8,74.2 77.8,74.2 77.8,73.2 78.8,73.2 78.8,72.2 79.8,72.2 79.8,71.2 				"/>
				<polygon fill="#000008" points="73.8,72.2 73.8,73.2 74.8,73.2 74.8,72.2 74.8,71.2 73.8,71.2 				"/>
				<rect x="74.8" y="70.2" fill="#000008" width="1" height="1"/>
				<rect x="66.8" y="70.2" fill="#000008" width="1" height="1"/>
				<rect x="68.8" y="69.2" fill="#000008" width="1" height="1"/>
				<rect x="65.8" y="69.2" fill="#000008" width="1" height="1"/>
				<polygon fill="#000008" points="19.8,70.2 19.8,69.2 20.8,69.2 20.8,68.2 19.8,68.2 18.8,68.2 18.8,69.2 17.8,69.2 17.8,70.2 
					18.8,70.2 				"/>
				<rect x="69.8" y="68.2" fill="#000008" width="1" height="1"/>
				<polygon fill="#000008" points="62.8,68.2 61.8,68.2 61.8,69.2 61.8,70.2 62.8,70.2 62.8,69.2 				"/>
				<polygon fill="#000008" points="65.8,67.2 64.8,67.2 64.8,68.2 64.8,69.2 65.8,69.2 65.8,68.2 				"/>
				<rect x="20.8" y="66.2" fill="#000008" width="1" height="1"/>
				<polygon fill="#000008" points="60.8,66.2 60.8,67.2 61.8,67.2 61.8,66.2 61.8,65.2 61.8,64.2 60.8,64.2 59.8,64.2 59.8,65.2 
					60.8,65.2 				"/>
				<rect x="21.8" y="65.2" fill="#000008" width="1" height="1"/>
				<rect x="63.8" y="64.2" fill="#000008" width="1" height="1"/>
				<polygon fill="#000008" points="69.8,63.2 68.8,63.2 68.8,64.2 69.8,64.2 70.8,64.2 70.8,63.2 				"/>
				<polygon fill="#000008" points="63.8,63.2 63.8,62.2 64.8,62.2 64.8,61.2 63.8,61.2 62.8,61.2 62.8,62.2 62.8,63.2 62.8,64.2 
					63.8,64.2 				"/>
				<polygon fill="#000008" points="48.8,64.2 49.8,64.2 50.8,64.2 51.8,64.2 52.8,64.2 53.8,64.2 54.8,64.2 55.8,64.2 55.8,63.2 
					54.8,63.2 53.8,63.2 52.8,63.2 51.8,63.2 50.8,63.2 49.8,63.2 48.8,63.2 47.8,63.2 47.8,64.2 				"/>
				<rect x="23.8" y="63.2" fill="#000008" width="1" height="1"/>
				<rect x="67.8" y="62.2" fill="#000008" width="1" height="1"/>
				<polygon fill="#000008" points="41.8,63.2 42.8,63.2 43.8,63.2 44.8,63.2 45.8,63.2 46.8,63.2 47.8,63.2 47.8,62.2 46.8,62.2 
					45.8,62.2 44.8,62.2 43.8,62.2 42.8,62.2 41.8,62.2 40.8,62.2 40.8,63.2 				"/>
				<rect x="24.8" y="62.2" fill="#000008" width="1" height="1"/>
				<polygon fill="#000008" points="66.8,61.2 65.8,61.2 65.8,62.2 66.8,62.2 67.8,62.2 67.8,61.2 				"/>
				<polygon fill="#000008" points="34.8,62.2 35.8,62.2 36.8,62.2 37.8,62.2 38.8,62.2 39.8,62.2 40.8,62.2 40.8,61.2 39.8,61.2 
					38.8,61.2 37.8,61.2 36.8,61.2 35.8,61.2 34.8,61.2 33.8,61.2 32.8,61.2 32.8,62.2 33.8,62.2 				"/>
				<rect x="25.8" y="61.2" fill="#000008" width="1" height="1"/>
			</g>
			<rect x="65.8" y="60.2" fill="#780000" width="1" height="1"/>
			<rect x="64.8" y="60.2" fill="#780000" width="1" height="1"/>
			<rect x="61.8" y="60.2" fill="#780000" width="1" height="1"/>
			<rect x="56.8" y="60.2" fill="#780000" width="1" height="1"/>
			<rect x="55.8" y="60.2" fill="#780000" width="1" height="1"/>
			<rect x="54.8" y="60.2" fill="#780000" width="1" height="1"/>
			<rect x="53.8" y="60.2" fill="#780000" width="1" height="1"/>
			<rect x="52.8" y="60.2" fill="#780000" width="1" height="1"/>
			<rect x="51.8" y="60.2" fill="#780000" width="1" height="1"/>
			<g>
				<polygon fill="#E07070" points="53.8,93.2 52.8,93.2 52.8,94.2 53.8,94.2 54.8,94.2 55.8,94.2 55.8,93.2 54.8,93.2 				"/>
				<rect x="55.8" y="92.2" fill="#E07070" width="1" height="1"/>
				<polygon fill="#E07070" points="51.8,92.2 50.8,92.2 49.8,92.2 48.8,92.2 47.8,92.2 46.8,92.2 46.8,93.2 47.8,93.2 48.8,93.2 
					49.8,93.2 50.8,93.2 51.8,93.2 52.8,93.2 52.8,92.2 				"/>
				<rect x="56.8" y="91.2" fill="#E07070" width="1" height="1"/>
				<rect x="44.8" y="91.2" fill="#E07070" width="1" height="1"/>
				<polygon fill="#E07070" points="40.8,91.2 40.8,92.2 41.8,92.2 42.8,92.2 42.8,91.2 41.8,91.2 				"/>
				<rect x="57.8" y="90.2" fill="#E07070" width="1" height="1"/>
				<polygon fill="#E07070" points="32.8,90.2 31.8,90.2 30.8,90.2 29.8,90.2 29.8,91.2 30.8,91.2 31.8,91.2 32.8,91.2 33.8,91.2 
					34.8,91.2 34.8,90.2 33.8,90.2 				"/>
				<polygon fill="#E07070" points="28.8,89.2 27.8,89.2 26.8,89.2 25.8,89.2 25.8,90.2 26.8,90.2 27.8,90.2 28.8,90.2 29.8,90.2 
					29.8,89.2 				"/>
				<rect x="23.8" y="89.2" fill="#E07070" width="1" height="1"/>
				<polygon fill="#E07070" points="22.8,88.2 21.8,88.2 20.8,88.2 19.8,88.2 18.8,88.2 18.8,89.2 19.8,89.2 20.8,89.2 21.8,89.2 
					22.8,89.2 23.8,89.2 23.8,88.2 				"/>
				<polygon fill="#E07070" points="10.8,87.2 9.8,87.2 8.8,87.2 8.8,88.2 9.8,88.2 10.8,88.2 11.8,88.2 12.8,88.2 12.8,87.2 
					11.8,87.2 				"/>
				<rect x="7.8" y="86.2" fill="#E07070" width="1" height="1"/>
				<polygon fill="#E07070" points="55.8,81.2 55.8,80.2 54.8,80.2 54.8,81.2 54.8,82.2 55.8,82.2 				"/>
				<polygon fill="#E07070" points="60.8,79.2 59.8,79.2 59.8,80.2 59.8,81.2 58.8,81.2 58.8,82.2 58.8,83.2 59.8,83.2 59.8,82.2 
					60.8,82.2 61.8,82.2 61.8,81.2 61.8,80.2 62.8,80.2 62.8,79.2 61.8,79.2 				"/>
				<rect x="47.8" y="78.2" fill="#E07070" width="1" height="1"/>
				<rect x="44.8" y="78.2" fill="#E07070" width="1" height="1"/>
				<polygon fill="#E07070" points="38.8,78.2 38.8,79.2 39.8,79.2 40.8,79.2 40.8,78.2 39.8,78.2 				"/>
				<polygon fill="#E07070" points="62.8,77.2 62.8,78.2 62.8,79.2 63.8,79.2 64.8,79.2 64.8,78.2 64.8,77.2 63.8,77.2 				"/>
				<rect x="46.8" y="77.2" fill="#E07070" width="1" height="1"/>
				<polygon fill="#E07070" points="40.8,77.2 40.8,78.2 41.8,78.2 42.8,78.2 42.8,77.2 41.8,77.2 				"/>
				<rect x="37.8" y="77.2" fill="#E07070" width="1" height="1"/>
				<rect x="64.8" y="76.2" fill="#E07070" width="1" height="1"/>
				<polygon fill="#E07070" points="40.8,77.2 40.8,76.2 39.8,76.2 38.8,76.2 38.8,77.2 39.8,77.2 				"/>
				<polygon fill="#E07070" points="36.8,76.2 35.8,76.2 35.8,77.2 36.8,77.2 37.8,77.2 37.8,76.2 				"/>
				<rect x="31.8" y="76.2" fill="#E07070" width="1" height="1"/>
				<rect x="66.8" y="75.2" fill="#E07070" width="1" height="1"/>
				<polygon fill="#E07070" points="21.8,76.2 22.8,76.2 22.8,75.2 21.8,75.2 20.8,75.2 19.8,75.2 19.8,76.2 20.8,76.2 				"/>
				<polygon fill="#E07070" points="13.8,74.2 13.8,75.2 14.8,75.2 15.8,75.2 15.8,74.2 14.8,74.2 				"/>
				<rect x="67.8" y="73.2" fill="#E07070" width="1" height="1"/>
				<rect x="69.8" y="72.2" fill="#E07070" width="1" height="1"/>
				<rect x="68.8" y="71.2" fill="#E07070" width="1" height="1"/>
				<rect x="70.8" y="70.2" fill="#E07070" width="1" height="1"/>
				<rect x="72.8" y="69.2" fill="#E07070" width="1" height="1"/>
				<polygon fill="#E07070" points="56.8,64.2 57.8,64.2 58.8,64.2 58.8,63.2 57.8,63.2 56.8,63.2 55.8,63.2 55.8,64.2 				"/>
				<rect x="54.8" y="62.2" fill="#E07070" width="1" height="1"/>
				<rect x="51.8" y="62.2" fill="#E07070" width="1" height="1"/>
				<rect x="42.8" y="61.2" fill="#E07070" width="1" height="1"/>
				<rect x="31.8" y="60.2" fill="#E07070" width="1" height="1"/>
			</g>
			<rect x="57.8" y="59.2" fill="#780000" width="1" height="1"/>
			<g>
				<rect x="45.8" y="91.2" fill="#B8B8B8" width="1" height="1"/>
				<polygon fill="#B8B8B8" points="42.8,91.2 42.8,92.2 43.8,92.2 44.8,92.2 44.8,91.2 43.8,91.2 				"/>
				<rect x="24.8" y="89.2" fill="#B8B8B8" width="1" height="1"/>
				<rect x="48.8" y="88.2" fill="#B8B8B8" width="1" height="1"/>
				<rect x="47.8" y="85.2" fill="#B8B8B8" width="1" height="1"/>
				<rect x="10.8" y="84.2" fill="#B8B8B8" width="1" height="1"/>
				<polygon fill="#B8B8B8" points="34.8,83.2 33.8,83.2 32.8,83.2 31.8,83.2 31.8,82.2 30.8,82.2 29.8,82.2 28.8,82.2 27.8,82.2 
					27.8,83.2 27.8,84.2 27.8,85.2 28.8,85.2 28.8,86.2 29.8,86.2 30.8,86.2 31.8,86.2 32.8,86.2 33.8,86.2 34.8,86.2 34.8,87.2 
					35.8,87.2 36.8,87.2 36.8,86.2 36.8,85.2 36.8,84.2 36.8,83.2 35.8,83.2 				"/>
				<rect x="10.8" y="81.2" fill="#B8B8B8" width="1" height="1"/>
				<rect x="53.8" y="79.2" fill="#B8B8B8" width="1" height="1"/>
				<rect x="61.8" y="78.2" fill="#B8B8B8" width="1" height="1"/>
				<rect x="46.8" y="78.2" fill="#B8B8B8" width="1" height="1"/>
				<polygon fill="#B8B8B8" points="38.8,77.2 38.8,78.2 39.8,78.2 40.8,78.2 40.8,77.2 39.8,77.2 				"/>
				<polygon fill="#B8B8B8" points="71.8,65.2 71.8,66.2 71.8,67.2 72.8,67.2 72.8,66.2 72.8,65.2 				"/>
				<rect x="54.8" y="59.2" fill="#B8B8B8" width="1" height="1"/>
			</g>
			<rect x="50.8" y="59.2" fill="#780000" width="1" height="1"/>
			<rect x="49.8" y="59.2" fill="#780000" width="1" height="1"/>
			<rect x="48.8" y="59.2" fill="#780000" width="1" height="1"/>
			<rect x="47.8" y="59.2" fill="#780000" width="1" height="1"/>
			<rect x="46.8" y="59.2" fill="#780000" width="1" height="1"/>
			<rect x="45.8" y="59.2" fill="#780000" width="1" height="1"/>
			<rect x="44.8" y="59.2" fill="#780000" width="1" height="1"/>
			<rect x="43.8" y="59.2" fill="#780000" width="1" height="1"/>
			<rect x="42.8" y="59.2" fill="#780000" width="1" height="1"/>
			<rect x="41.8" y="59.2" fill="#780000" width="1" height="1"/>
			<rect x="58.8" y="58.2" fill="#780000" width="1" height="1"/>
			<g>
				<polygon fill="#D80000" points="53.8,98.2 52.8,98.2 52.8,99.2 53.8,99.2 54.8,99.2 55.8,99.2 55.8,98.2 54.8,98.2 				"/>
				<rect x="55.8" y="97.2" fill="#D80000" width="1" height="1"/>
				<polygon fill="#D80000" points="51.8,97.2 50.8,97.2 49.8,97.2 48.8,97.2 47.8,97.2 46.8,97.2 46.8,98.2 47.8,98.2 48.8,98.2 
					49.8,98.2 50.8,98.2 51.8,98.2 52.8,98.2 52.8,97.2 				"/>
				<polygon fill="#D80000" points="38.8,96.2 37.8,96.2 36.8,96.2 35.8,96.2 35.8,97.2 36.8,97.2 37.8,97.2 38.8,97.2 39.8,97.2 
					40.8,97.2 40.8,96.2 39.8,96.2 				"/>
				<rect x="58.8" y="95.2" fill="#D80000" width="1" height="1"/>
				<polygon fill="#D80000" points="53.8,96.2 54.8,96.2 55.8,96.2 55.8,95.2 54.8,95.2 53.8,95.2 52.8,95.2 52.8,96.2 				"/>
				<polygon fill="#D80000" points="34.8,95.2 33.8,95.2 32.8,95.2 31.8,95.2 30.8,95.2 30.8,96.2 31.8,96.2 32.8,96.2 33.8,96.2 
					34.8,96.2 35.8,96.2 35.8,95.2 				"/>
				<rect x="59.8" y="94.2" fill="#D80000" width="1" height="1"/>
				<polygon fill="#D80000" points="51.8,94.2 50.8,94.2 49.8,94.2 48.8,94.2 47.8,94.2 46.8,94.2 46.8,95.2 47.8,95.2 48.8,95.2 
					49.8,95.2 50.8,95.2 51.8,95.2 52.8,95.2 52.8,94.2 				"/>
				<polygon fill="#D80000" points="29.8,94.2 28.8,94.2 27.8,94.2 26.8,94.2 25.8,94.2 24.8,94.2 24.8,95.2 25.8,95.2 26.8,95.2 
					27.8,95.2 28.8,95.2 29.8,95.2 30.8,95.2 30.8,94.2 				"/>
				<polygon fill="#D80000" points="38.8,93.2 37.8,93.2 36.8,93.2 35.8,93.2 34.8,93.2 34.8,94.2 35.8,94.2 36.8,94.2 37.8,94.2 
					38.8,94.2 39.8,94.2 40.8,94.2 40.8,93.2 39.8,93.2 				"/>
				<polygon fill="#D80000" points="17.8,93.2 16.8,93.2 15.8,93.2 14.8,93.2 13.8,93.2 13.8,94.2 14.8,94.2 15.8,94.2 16.8,94.2 
					17.8,94.2 18.8,94.2 19.8,94.2 19.8,93.2 18.8,93.2 				"/>
				<polygon fill="#D80000" points="33.8,92.2 32.8,92.2 31.8,92.2 30.8,92.2 29.8,92.2 29.8,93.2 30.8,93.2 31.8,93.2 32.8,93.2 
					33.8,93.2 34.8,93.2 34.8,92.2 				"/>
				<polygon fill="#D80000" points="12.8,92.2 11.8,92.2 10.8,92.2 10.8,93.2 11.8,93.2 12.8,93.2 13.8,93.2 13.8,92.2 				"/>
				<polygon fill="#D80000" points="54.8,91.2 53.8,91.2 52.8,91.2 51.8,91.2 50.8,91.2 49.8,91.2 48.8,91.2 47.8,91.2 46.8,91.2 
					46.8,92.2 47.8,92.2 48.8,92.2 49.8,92.2 50.8,92.2 51.8,92.2 52.8,92.2 52.8,93.2 53.8,93.2 54.8,93.2 55.8,93.2 55.8,92.2 
					56.8,92.2 56.8,91.2 55.8,91.2 				"/>
				<polygon fill="#D80000" points="28.8,91.2 27.8,91.2 26.8,91.2 25.8,91.2 24.8,91.2 23.8,91.2 23.8,92.2 24.8,92.2 25.8,92.2 
					26.8,92.2 27.8,92.2 28.8,92.2 29.8,92.2 29.8,91.2 				"/>
				<rect x="56.8" y="90.2" fill="#D80000" width="1" height="1"/>
				<polygon fill="#D80000" points="43.8,90.2 42.8,90.2 41.8,90.2 40.8,90.2 39.8,90.2 39.8,89.2 38.8,89.2 37.8,89.2 36.8,89.2 
					35.8,89.2 34.8,89.2 33.8,89.2 33.8,88.2 32.8,88.2 31.8,88.2 30.8,88.2 29.8,88.2 28.8,88.2 27.8,88.2 26.8,88.2 25.8,88.2 
					24.8,88.2 23.8,88.2 23.8,89.2 24.8,89.2 25.8,89.2 26.8,89.2 27.8,89.2 28.8,89.2 29.8,89.2 29.8,90.2 30.8,90.2 31.8,90.2 
					32.8,90.2 33.8,90.2 34.8,90.2 34.8,91.2 35.8,91.2 36.8,91.2 37.8,91.2 38.8,91.2 39.8,91.2 40.8,91.2 41.8,91.2 42.8,91.2 
					43.8,91.2 44.8,91.2 45.8,91.2 45.8,90.2 44.8,90.2 				"/>
				<polygon fill="#D80000" points="13.8,91.2 14.8,91.2 15.8,91.2 16.8,91.2 17.8,91.2 18.8,91.2 18.8,90.2 17.8,90.2 16.8,90.2 
					15.8,90.2 14.8,90.2 13.8,90.2 12.8,90.2 12.8,91.2 				"/>
				<polygon fill="#D80000" points="11.8,90.2 12.8,90.2 12.8,89.2 11.8,89.2 10.8,89.2 9.8,89.2 8.8,89.2 7.8,89.2 7.8,90.2 
					8.8,90.2 9.8,90.2 10.8,90.2 				"/>
				<polygon fill="#D80000" points="18.8,87.2 17.8,87.2 16.8,87.2 15.8,87.2 14.8,87.2 14.8,86.2 13.8,86.2 12.8,86.2 11.8,86.2 
					10.8,86.2 10.8,85.2 9.8,85.2 9.8,86.2 8.8,86.2 8.8,87.2 9.8,87.2 10.8,87.2 11.8,87.2 12.8,87.2 12.8,88.2 13.8,88.2 
					14.8,88.2 15.8,88.2 16.8,88.2 17.8,88.2 18.8,88.2 19.8,88.2 20.8,88.2 20.8,87.2 19.8,87.2 				"/>
				<polygon fill="#D80000" points="59.8,85.2 58.8,85.2 58.8,86.2 58.8,87.2 58.8,88.2 58.8,89.2 57.8,89.2 57.8,90.2 58.8,90.2 
					58.8,91.2 59.8,91.2 60.8,91.2 60.8,92.2 60.8,93.2 61.8,93.2 61.8,92.2 61.8,91.2 61.8,90.2 61.8,89.2 61.8,88.2 61.8,87.2 
					61.8,86.2 61.8,85.2 60.8,85.2 				"/>
				<rect x="7.8" y="85.2" fill="#D80000" width="1" height="1"/>
				<rect x="65.8" y="83.2" fill="#D80000" width="1" height="1"/>
				<rect x="61.8" y="83.2" fill="#D80000" width="1" height="1"/>
				<polygon fill="#D80000" points="56.8,84.2 57.8,84.2 58.8,84.2 58.8,83.2 58.8,82.2 58.8,81.2 59.8,81.2 59.8,80.2 59.8,79.2 
					58.8,79.2 57.8,79.2 57.8,80.2 57.8,81.2 56.8,81.2 55.8,81.2 55.8,82.2 54.8,82.2 53.8,82.2 52.8,82.2 52.8,83.2 53.8,83.2 
					54.8,83.2 55.8,83.2 55.8,84.2 				"/>
				<rect x="66.8" y="82.2" fill="#D80000" width="1" height="1"/>
				<polygon fill="#D80000" points="38.8,82.2 39.8,82.2 40.8,82.2 41.8,82.2 42.8,82.2 43.8,82.2 44.8,82.2 44.8,81.2 43.8,81.2 
					42.8,81.2 41.8,81.2 40.8,81.2 39.8,81.2 38.8,81.2 37.8,81.2 37.8,82.2 				"/>
				<polygon fill="#D80000" points="67.8,80.2 67.8,79.2 66.8,79.2 66.8,80.2 65.8,80.2 65.8,81.2 65.8,82.2 66.8,82.2 66.8,81.2 
					67.8,81.2 68.8,81.2 69.8,81.2 69.8,80.2 69.8,79.2 68.8,79.2 68.8,80.2 				"/>
				<polygon fill="#D80000" points="34.8,81.2 35.8,81.2 36.8,81.2 37.8,81.2 37.8,80.2 36.8,80.2 35.8,80.2 34.8,80.2 33.8,80.2 
					32.8,80.2 32.8,81.2 33.8,81.2 				"/>
				<polygon fill="#D80000" points="28.8,80.2 29.8,80.2 30.8,80.2 31.8,80.2 31.8,79.2 30.8,79.2 29.8,79.2 28.8,79.2 27.8,79.2 
					26.8,79.2 26.8,80.2 27.8,80.2 				"/>
				<rect x="60.8" y="78.2" fill="#D80000" width="1" height="1"/>
				<rect x="54.8" y="78.2" fill="#D80000" width="1" height="1"/>
				<polygon fill="#D80000" points="48.8,78.2 48.8,79.2 49.8,79.2 50.8,79.2 50.8,78.2 49.8,78.2 				"/>
				<rect x="45.8" y="78.2" fill="#D80000" width="1" height="1"/>
				<rect x="43.8" y="78.2" fill="#D80000" width="1" height="1"/>
				<polygon fill="#D80000" points="19.8,78.2 18.8,78.2 17.8,78.2 16.8,78.2 15.8,78.2 15.8,79.2 16.8,79.2 17.8,79.2 18.8,79.2 
					19.8,79.2 20.8,79.2 21.8,79.2 21.8,78.2 20.8,78.2 				"/>
				<rect x="61.8" y="77.2" fill="#D80000" width="1" height="1"/>
				<rect x="42.8" y="77.2" fill="#D80000" width="1" height="1"/>
				<polygon fill="#D80000" points="14.8,77.2 13.8,77.2 12.8,77.2 11.8,77.2 10.8,77.2 10.8,78.2 11.8,78.2 12.8,78.2 13.8,78.2 
					14.8,78.2 15.8,78.2 15.8,77.2 				"/>
				<polygon fill="#D80000" points="62.8,76.2 62.8,77.2 63.8,77.2 64.8,77.2 64.8,76.2 63.8,76.2 				"/>
				<rect x="57.8" y="76.2" fill="#D80000" width="1" height="1"/>
				<polygon fill="#D80000" points="34.8,77.2 35.8,77.2 35.8,76.2 34.8,76.2 33.8,76.2 32.8,76.2 32.8,77.2 33.8,77.2 				"/>
				<polygon fill="#D80000" points="29.8,76.2 29.8,77.2 30.8,77.2 31.8,77.2 31.8,76.2 30.8,76.2 				"/>
				<polygon fill="#D80000" points="69.8,76.2 68.8,76.2 68.8,77.2 67.8,77.2 67.8,78.2 67.8,79.2 68.8,79.2 68.8,78.2 69.8,78.2 
					69.8,77.2 70.8,77.2 71.8,77.2 71.8,76.2 70.8,76.2 70.8,75.2 69.8,75.2 				"/>
				<polygon fill="#D80000" points="66.8,76.2 66.8,75.2 66.8,74.2 65.8,74.2 65.8,75.2 64.8,75.2 64.8,76.2 65.8,76.2 				"/>
				<rect x="60.8" y="75.2" fill="#D80000" width="1" height="1"/>
				<polygon fill="#D80000" points="17.8,76.2 18.8,76.2 19.8,76.2 19.8,75.2 18.8,75.2 17.8,75.2 16.8,75.2 16.8,76.2 				"/>
				<rect x="72.8" y="74.2" fill="#D80000" width="1" height="1"/>
				<polygon fill="#D80000" points="63.8,74.2 62.8,74.2 62.8,75.2 63.8,75.2 64.8,75.2 64.8,74.2 				"/>
				<rect x="15.8" y="74.2" fill="#D80000" width="1" height="1"/>
				<polygon fill="#D80000" points="70.8,73.2 70.8,74.2 70.8,75.2 71.8,75.2 71.8,74.2 72.8,74.2 72.8,73.2 71.8,73.2 				"/>
				<rect x="72.8" y="72.2" fill="#D80000" width="1" height="1"/>
				<rect x="67.8" y="72.2" fill="#D80000" width="1" height="1"/>
				<rect x="73.8" y="70.2" fill="#D80000" width="1" height="1"/>
				<polygon fill="#D80000" points="70.8,70.2 71.8,70.2 72.8,70.2 72.8,69.2 73.8,69.2 73.8,68.2 72.8,68.2 71.8,68.2 71.8,69.2 
					70.8,69.2 69.8,69.2 69.8,70.2 69.8,71.2 70.8,71.2 				"/>
				<rect x="75.8" y="64.2" fill="#D80000" width="1" height="1"/>
				<rect x="74.8" y="63.2" fill="#D80000" width="1" height="1"/>
				<rect x="72.8" y="63.2" fill="#D80000" width="1" height="1"/>
				<rect x="58.8" y="63.2" fill="#D80000" width="1" height="1"/>
				<polygon fill="#D80000" points="54.8,63.2 54.8,62.2 53.8,62.2 52.8,62.2 52.8,63.2 53.8,63.2 				"/>
				<polygon fill="#D80000" points="51.8,63.2 51.8,62.2 50.8,62.2 49.8,62.2 48.8,62.2 47.8,62.2 47.8,63.2 48.8,63.2 49.8,63.2 
					50.8,63.2 				"/>
				<polygon fill="#D80000" points="46.8,61.2 45.8,61.2 44.8,61.2 43.8,61.2 43.8,62.2 44.8,62.2 45.8,62.2 46.8,62.2 47.8,62.2 
					47.8,61.2 				"/>
				<polygon fill="#D80000" points="42.8,62.2 42.8,61.2 41.8,61.2 40.8,61.2 40.8,62.2 41.8,62.2 				"/>
				<polygon fill="#D80000" points="29.8,61.2 30.8,61.2 31.8,61.2 31.8,60.2 30.8,60.2 29.8,60.2 28.8,60.2 27.8,60.2 27.8,61.2 
					28.8,61.2 				"/>
				<polygon fill="#D80000" points="57.8,60.2 57.8,59.2 56.8,59.2 55.8,59.2 55.8,60.2 56.8,60.2 				"/>
				<polygon fill="#D80000" points="52.8,60.2 53.8,60.2 54.8,60.2 54.8,59.2 53.8,59.2 52.8,59.2 51.8,59.2 51.8,60.2 				"/>
				<rect x="57.8" y="58.2" fill="#D80000" width="1" height="1"/>
				<polygon fill="#D80000" points="43.8,59.2 44.8,59.2 45.8,59.2 46.8,59.2 47.8,59.2 48.8,59.2 49.8,59.2 50.8,59.2 51.8,59.2 
					51.8,58.2 50.8,58.2 49.8,58.2 48.8,58.2 47.8,58.2 46.8,58.2 45.8,58.2 44.8,58.2 43.8,58.2 42.8,58.2 41.8,58.2 41.8,59.2 
					42.8,59.2 				"/>
			</g>
			<rect x="40.8" y="58.2" fill="#780000" width="1" height="1"/>
			<rect x="39.8" y="58.2" fill="#780000" width="1" height="1"/>
			<rect x="38.8" y="58.2" fill="#780000" width="1" height="1"/>
			<rect x="37.8" y="58.2" fill="#780000" width="1" height="1"/>
			<rect x="36.8" y="58.2" fill="#780000" width="1" height="1"/>
			<rect x="35.8" y="58.2" fill="#780000" width="1" height="1"/>
			<rect x="34.8" y="58.2" fill="#780000" width="1" height="1"/>
			<g>
				<polygon fill="#A82020" points="53.8,97.2 52.8,97.2 52.8,98.2 53.8,98.2 54.8,98.2 55.8,98.2 55.8,97.2 54.8,97.2 				"/>
				<rect x="57.8" y="96.2" fill="#A82020" width="1" height="1"/>
				<polygon fill="#A82020" points="44.8,96.2 43.8,96.2 42.8,96.2 41.8,96.2 40.8,96.2 40.8,97.2 41.8,97.2 42.8,97.2 43.8,97.2 
					44.8,97.2 45.8,97.2 46.8,97.2 46.8,96.2 45.8,96.2 				"/>
				<polygon fill="#A82020" points="39.8,95.2 38.8,95.2 37.8,95.2 36.8,95.2 35.8,95.2 35.8,96.2 36.8,96.2 37.8,96.2 38.8,96.2 
					39.8,96.2 40.8,96.2 40.8,95.2 				"/>
				<rect x="58.8" y="94.2" fill="#A82020" width="1" height="1"/>
				<polygon fill="#A82020" points="57.8,94.2 56.8,94.2 55.8,94.2 55.8,95.2 55.8,96.2 56.8,96.2 57.8,96.2 57.8,95.2 				"/>
				<polygon fill="#A82020" points="32.8,94.2 31.8,94.2 30.8,94.2 30.8,95.2 31.8,95.2 32.8,95.2 33.8,95.2 34.8,95.2 34.8,94.2 
					33.8,94.2 				"/>
				<rect x="59.8" y="93.2" fill="#A82020" width="1" height="1"/>
				<polygon fill="#A82020" points="22.8,93.2 21.8,93.2 20.8,93.2 19.8,93.2 19.8,94.2 20.8,94.2 21.8,94.2 22.8,94.2 23.8,94.2 
					24.8,94.2 24.8,93.2 23.8,93.2 				"/>
				<rect x="57.8" y="92.2" fill="#A82020" width="1" height="1"/>
				<polygon fill="#A82020" points="18.8,92.2 17.8,92.2 16.8,92.2 15.8,92.2 14.8,92.2 13.8,92.2 13.8,93.2 14.8,93.2 15.8,93.2 
					16.8,93.2 17.8,93.2 18.8,93.2 19.8,93.2 19.8,92.2 				"/>
				<rect x="58.8" y="91.2" fill="#A82020" width="1" height="1"/>
				<polygon fill="#A82020" points="12.8,91.2 11.8,91.2 10.8,91.2 9.8,91.2 9.8,92.2 10.8,92.2 11.8,92.2 12.8,92.2 13.8,92.2 
					13.8,91.2 				"/>
				<polygon fill="#A82020" points="65.8,87.2 65.8,88.2 66.8,88.2 66.8,87.2 66.8,86.2 65.8,86.2 				"/>
				<rect x="8.8" y="85.2" fill="#A82020" width="1" height="1"/>
				<polygon fill="#A82020" points="67.8,83.2 66.8,83.2 66.8,84.2 65.8,84.2 65.8,85.2 66.8,85.2 66.8,86.2 67.8,86.2 67.8,85.2 
					68.8,85.2 68.8,84.2 67.8,84.2 				"/>
				<polygon fill="#A82020" points="67.8,81.2 67.8,82.2 68.8,82.2 68.8,83.2 68.8,84.2 69.8,84.2 69.8,83.2 69.8,82.2 69.8,81.2 
					68.8,81.2 				"/>
				<polygon fill="#A82020" points="53.8,82.2 53.8,81.2 52.8,81.2 51.8,81.2 50.8,81.2 50.8,80.2 49.8,80.2 48.8,80.2 47.8,80.2 
					46.8,80.2 45.8,80.2 44.8,80.2 43.8,80.2 43.8,79.2 43.8,78.2 42.8,78.2 41.8,78.2 40.8,78.2 40.8,79.2 39.8,79.2 38.8,79.2 
					38.8,78.2 37.8,78.2 37.8,79.2 36.8,79.2 35.8,79.2 34.8,79.2 34.8,80.2 35.8,80.2 36.8,80.2 37.8,80.2 37.8,81.2 38.8,81.2 
					39.8,81.2 40.8,81.2 41.8,81.2 42.8,81.2 43.8,81.2 44.8,81.2 44.8,82.2 45.8,82.2 46.8,82.2 47.8,82.2 48.8,82.2 49.8,82.2 
					50.8,82.2 51.8,82.2 52.8,82.2 				"/>
				<polygon fill="#A82020" points="52.8,80.2 53.8,80.2 53.8,79.2 54.8,79.2 54.8,78.2 53.8,78.2 52.8,78.2 51.8,78.2 50.8,78.2 
					50.8,79.2 50.8,80.2 51.8,80.2 				"/>
				<polygon fill="#A82020" points="72.8,79.2 73.8,79.2 73.8,78.2 73.8,77.2 72.8,77.2 72.8,78.2 				"/>
				<polygon fill="#A82020" points="55.8,79.2 54.8,79.2 54.8,80.2 55.8,80.2 55.8,81.2 56.8,81.2 57.8,81.2 57.8,80.2 57.8,79.2 
					58.8,79.2 59.8,79.2 60.8,79.2 60.8,78.2 61.8,78.2 61.8,77.2 62.8,77.2 62.8,76.2 63.8,76.2 64.8,76.2 64.8,75.2 63.8,75.2 
					62.8,75.2 62.8,74.2 61.8,74.2 61.8,75.2 61.8,76.2 60.8,76.2 60.8,75.2 59.8,75.2 59.8,76.2 58.8,76.2 58.8,77.2 57.8,77.2 
					57.8,76.2 56.8,76.2 56.8,77.2 55.8,77.2 54.8,77.2 54.8,78.2 55.8,78.2 				"/>
				<polygon fill="#A82020" points="27.8,78.2 26.8,78.2 25.8,78.2 24.8,78.2 23.8,78.2 22.8,78.2 22.8,77.2 21.8,77.2 20.8,77.2 
					19.8,77.2 18.8,77.2 17.8,77.2 16.8,77.2 16.8,76.2 16.8,75.2 15.8,75.2 14.8,75.2 13.8,75.2 12.8,75.2 11.8,75.2 11.8,76.2 
					10.8,76.2 10.8,77.2 11.8,77.2 12.8,77.2 13.8,77.2 14.8,77.2 15.8,77.2 15.8,78.2 16.8,78.2 17.8,78.2 18.8,78.2 19.8,78.2 
					20.8,78.2 21.8,78.2 21.8,79.2 22.8,79.2 23.8,79.2 24.8,79.2 25.8,79.2 26.8,79.2 27.8,79.2 28.8,79.2 29.8,79.2 29.8,78.2 
					28.8,78.2 				"/>
				<polygon fill="#A82020" points="70.8,78.2 70.8,79.2 69.8,79.2 69.8,80.2 69.8,81.2 70.8,81.2 71.8,81.2 71.8,80.2 71.8,79.2 
					71.8,78.2 71.8,77.2 70.8,77.2 				"/>
				<polygon fill="#A82020" points="49.8,77.2 48.8,77.2 47.8,77.2 47.8,78.2 48.8,78.2 49.8,78.2 50.8,78.2 50.8,77.2 				"/>
				<polygon fill="#A82020" points="45.8,78.2 46.8,78.2 46.8,77.2 45.8,77.2 44.8,77.2 44.8,76.2 43.8,76.2 42.8,76.2 41.8,76.2 
					40.8,76.2 40.8,77.2 41.8,77.2 42.8,77.2 43.8,77.2 43.8,78.2 44.8,78.2 				"/>
				<polygon fill="#A82020" points="36.8,77.2 35.8,77.2 34.8,77.2 33.8,77.2 32.8,77.2 31.8,77.2 30.8,77.2 29.8,77.2 29.8,78.2 
					30.8,78.2 31.8,78.2 32.8,78.2 33.8,78.2 34.8,78.2 35.8,78.2 36.8,78.2 37.8,78.2 37.8,77.2 				"/>
				<rect x="71.8" y="76.2" fill="#A82020" width="1" height="1"/>
				<rect x="37.8" y="76.2" fill="#A82020" width="1" height="1"/>
				<rect x="72.8" y="75.2" fill="#A82020" width="1" height="1"/>
				<polygon fill="#A82020" points="65.8,74.2 66.8,74.2 66.8,73.2 67.8,73.2 67.8,72.2 67.8,71.2 66.8,71.2 66.8,70.2 65.8,70.2 
					65.8,69.2 64.8,69.2 64.8,68.2 64.8,67.2 64.8,66.2 64.8,65.2 63.8,65.2 63.8,66.2 62.8,66.2 62.8,65.2 61.8,65.2 61.8,66.2 
					61.8,67.2 61.8,68.2 62.8,68.2 62.8,69.2 62.8,70.2 63.8,70.2 63.8,71.2 63.8,72.2 64.8,72.2 64.8,71.2 65.8,71.2 65.8,72.2 
					65.8,73.2 64.8,73.2 63.8,73.2 63.8,74.2 64.8,74.2 64.8,75.2 65.8,75.2 				"/>
				<polygon fill="#A82020" points="18.8,75.2 19.8,75.2 20.8,75.2 21.8,75.2 22.8,75.2 22.8,76.2 22.8,77.2 23.8,77.2 24.8,77.2 
					25.8,77.2 26.8,77.2 27.8,77.2 28.8,77.2 29.8,77.2 29.8,76.2 30.8,76.2 31.8,76.2 32.8,76.2 32.8,75.2 31.8,75.2 30.8,75.2 
					29.8,75.2 28.8,75.2 27.8,75.2 26.8,75.2 25.8,75.2 25.8,74.2 24.8,74.2 23.8,74.2 22.8,74.2 21.8,74.2 20.8,74.2 19.8,74.2 
					19.8,73.2 18.8,73.2 17.8,73.2 16.8,73.2 15.8,73.2 14.8,73.2 14.8,74.2 15.8,74.2 16.8,74.2 16.8,75.2 17.8,75.2 				"/>
				<polygon fill="#A82020" points="73.8,74.2 73.8,75.2 74.8,75.2 74.8,74.2 74.8,73.2 73.8,73.2 				"/>
				<polygon fill="#A82020" points="68.8,73.2 68.8,74.2 67.8,74.2 67.8,75.2 67.8,76.2 66.8,76.2 65.8,76.2 65.8,77.2 64.8,77.2 
					64.8,78.2 64.8,79.2 63.8,79.2 62.8,79.2 62.8,80.2 61.8,80.2 61.8,81.2 61.8,82.2 60.8,82.2 59.8,82.2 59.8,83.2 58.8,83.2 
					58.8,84.2 57.8,84.2 57.8,85.2 58.8,85.2 59.8,85.2 60.8,85.2 61.8,85.2 61.8,84.2 61.8,83.2 62.8,83.2 62.8,82.2 63.8,82.2 
					63.8,81.2 64.8,81.2 65.8,81.2 65.8,80.2 66.8,80.2 66.8,79.2 67.8,79.2 67.8,78.2 67.8,77.2 68.8,77.2 68.8,76.2 69.8,76.2 
					69.8,75.2 70.8,75.2 70.8,74.2 70.8,73.2 69.8,73.2 				"/>
				<polygon fill="#A82020" points="74.8,72.2 74.8,73.2 75.8,73.2 75.8,72.2 75.8,71.2 74.8,71.2 				"/>
				<polygon fill="#A82020" points="71.8,70.2 71.8,71.2 70.8,71.2 70.8,72.2 70.8,73.2 71.8,73.2 72.8,73.2 72.8,72.2 73.8,72.2 
					73.8,71.2 73.8,70.2 72.8,70.2 				"/>
				<polygon fill="#A82020" points="73.8,68.2 73.8,69.2 73.8,70.2 74.8,70.2 75.8,70.2 75.8,69.2 75.8,68.2 74.8,68.2 				"/>
				<rect x="70.8" y="68.2" fill="#A82020" width="1" height="1"/>
				<rect x="62.8" y="64.2" fill="#A82020" width="1" height="1"/>
				<polygon fill="#A82020" points="75.8,62.2 75.8,63.2 75.8,64.2 76.8,64.2 76.8,63.2 76.8,62.2 				"/>
				<rect x="73.8" y="62.2" fill="#A82020" width="1" height="1"/>
				<polygon fill="#A82020" points="69.8,63.2 70.8,63.2 71.8,63.2 72.8,63.2 72.8,62.2 73.8,62.2 73.8,61.2 72.8,61.2 71.8,61.2 
					70.8,61.2 70.8,62.2 69.8,62.2 68.8,62.2 68.8,63.2 				"/>
				<polygon fill="#A82020" points="62.8,62.2 62.8,61.2 61.8,61.2 61.8,62.2 60.8,62.2 60.8,61.2 61.8,61.2 61.8,60.2 62.8,60.2 
					62.8,59.2 61.8,59.2 60.8,59.2 60.8,58.2 59.8,58.2 59.8,59.2 58.8,59.2 58.8,60.2 57.8,60.2 57.8,61.2 56.8,61.2 55.8,61.2 
					54.8,61.2 53.8,61.2 52.8,61.2 51.8,61.2 51.8,60.2 50.8,60.2 49.8,60.2 48.8,60.2 47.8,60.2 46.8,60.2 45.8,60.2 44.8,60.2 
					43.8,60.2 42.8,60.2 41.8,60.2 41.8,59.2 40.8,59.2 39.8,59.2 38.8,59.2 37.8,59.2 36.8,59.2 35.8,59.2 34.8,59.2 34.8,58.2 
					33.8,58.2 32.8,58.2 31.8,58.2 30.8,58.2 30.8,59.2 29.8,59.2 28.8,59.2 28.8,60.2 29.8,60.2 30.8,60.2 31.8,60.2 32.8,60.2 
					32.8,61.2 33.8,61.2 34.8,61.2 35.8,61.2 36.8,61.2 37.8,61.2 38.8,61.2 39.8,61.2 40.8,61.2 41.8,61.2 42.8,61.2 43.8,61.2 
					44.8,61.2 45.8,61.2 46.8,61.2 47.8,61.2 47.8,62.2 48.8,62.2 49.8,62.2 50.8,62.2 51.8,62.2 52.8,62.2 53.8,62.2 54.8,62.2 
					55.8,62.2 55.8,63.2 56.8,63.2 57.8,63.2 58.8,63.2 59.8,63.2 59.8,64.2 60.8,64.2 61.8,64.2 62.8,64.2 62.8,63.2 				"/>
				<rect x="67.8" y="61.2" fill="#A82020" width="1" height="1"/>
				<polygon fill="#A82020" points="63.8,61.2 64.8,61.2 64.8,60.2 63.8,60.2 62.8,60.2 62.8,61.2 				"/>
				<polygon fill="#A82020" points="53.8,59.2 54.8,59.2 55.8,59.2 56.8,59.2 57.8,59.2 57.8,58.2 56.8,58.2 55.8,58.2 54.8,58.2 
					53.8,58.2 52.8,58.2 51.8,58.2 51.8,59.2 52.8,59.2 				"/>
				<polygon fill="#A82020" points="38.8,58.2 39.8,58.2 40.8,58.2 41.8,58.2 42.8,58.2 43.8,58.2 44.8,58.2 45.8,58.2 46.8,58.2 
					47.8,58.2 48.8,58.2 49.8,58.2 50.8,58.2 50.8,57.2 49.8,57.2 48.8,57.2 47.8,57.2 46.8,57.2 45.8,57.2 44.8,57.2 43.8,57.2 
					42.8,57.2 41.8,57.2 40.8,57.2 39.8,57.2 38.8,57.2 37.8,57.2 36.8,57.2 36.8,58.2 37.8,58.2 				"/>
			</g>
		</g>
	</g>
</g>
</svg>
