<?xml version="1.0" encoding="utf-8"?>
<!-- Generator: Adobe Illustrator 18.1.1, SVG Export Plug-In . SVG Version: 6.00 Build 0)  -->
<svg version="1.1" id="Layer_1" xmlns="http://www.w3.org/2000/svg" xmlns:xlink="http://www.w3.org/1999/xlink" x="0px" y="0px"
	 viewBox="0 0 161.5 23.8" enable-background="new 0 0 161.5 23.8" xml:space="preserve">
<g>
	<g>
		<polygon fill="#098843" points="159.1,10.3 159.1,9.5 158.3,9.5 158.3,8.7 157.6,8.7 156.8,8.7 156,8.7 155.2,8.7 154.4,8.7 
			153.6,8.7 152.8,8.7 152,8.7 151.2,8.7 150.4,8.7 149.6,8.7 148.8,8.7 148.1,8.7 147.3,8.7 147.3,7.9 147.3,7.1 146.5,7.1 
			146.5,6.3 147.3,6.3 147.3,5.5 148.1,5.5 148.8,5.5 149.6,5.5 150.4,5.5 151.2,5.5 152,5.5 152.8,5.5 153.6,5.5 154.4,5.5 
			155.2,5.5 156,5.5 156.8,5.5 157.6,5.5 158.3,5.5 158.3,4.8 159.1,4.8 159.1,4 159.1,3.2 158.3,3.2 158.3,2.4 157.6,2.4 
			156.8,2.4 156,2.4 155.2,2.4 154.4,2.4 153.6,2.4 152.8,2.4 152,2.4 151.2,2.4 150.4,2.4 149.6,2.4 148.8,2.4 148.1,2.4 
			147.3,2.4 146.5,2.4 146.5,3.2 145.7,3.2 144.9,3.2 144.9,4 144.1,4 144.1,4.8 144.1,5.5 144.1,6.3 144.1,7.1 144.1,7.9 
			144.1,8.7 144.1,9.5 144.9,9.5 144.9,10.3 145.7,10.3 145.7,11.1 146.5,11.1 147.3,11.1 148.1,11.1 148.8,11.1 149.6,11.1 
			150.4,11.1 151.2,11.1 152,11.1 152.8,11.1 153.6,11.1 154.4,11.1 155.2,11.1 156,11.1 156.8,11.1 156.8,11.9 156.8,12.7 
			156,12.7 155.2,12.7 154.4,12.7 153.6,12.7 152.8,12.7 152,12.7 151.2,12.7 150.4,12.7 149.6,12.7 148.8,12.7 148.1,12.7 
			147.3,12.7 146.5,12.7 146.5,13.5 145.7,13.5 144.9,13.5 144.9,14.3 144.1,14.3 144.1,15 144.1,15.8 144.1,16.6 144.1,17.4 
			144.1,18.2 144.1,19 144.9,19 144.9,19.8 144.9,20.6 145.7,20.6 146.5,20.6 146.5,21.4 147.3,21.4 148.1,21.4 148.8,21.4 
			149.6,21.4 150.4,21.4 151.2,21.4 152,21.4 152.8,21.4 153.6,21.4 154.4,21.4 155.2,21.4 156,21.4 156.8,21.4 157.6,21.4 
			158.3,21.4 158.3,20.6 159.1,20.6 159.1,19.8 159.1,19 158.3,19 158.3,18.2 157.6,18.2 156.8,18.2 156,18.2 155.2,18.2 
			154.4,18.2 153.6,18.2 152.8,18.2 152,18.2 151.2,18.2 150.4,18.2 149.6,18.2 148.8,18.2 148.1,18.2 147.3,18.2 147.3,17.4 
			146.5,17.4 146.5,16.6 147.3,16.6 147.3,15.8 148.1,15.8 148.8,15.8 149.6,15.8 150.4,15.8 151.2,15.8 152,15.8 152.8,15.8 
			153.6,15.8 154.4,15.8 155.2,15.8 156,15.8 156.8,15.8 157.6,15.8 157.6,15 158.3,15 159.1,15 159.1,14.3 159.1,13.5 159.9,13.5 
			159.9,12.7 159.9,11.9 159.9,11.1 159.9,10.3 		"/>
		<polygon fill="#098843" points="141.7,4.8 140.9,4.8 140.9,4 140.1,4 140.1,3.2 139.3,3.2 138.6,3.2 137.8,3.2 137.8,2.4 137,2.4 
			136.2,2.4 135.4,2.4 134.6,2.4 133.8,2.4 133,2.4 132.2,2.4 131.4,2.4 130.6,2.4 129.8,2.4 129.1,2.4 128.3,2.4 127.5,2.4 
			127.5,3.2 126.7,3.2 125.9,3.2 125.9,4 125.1,4 125.1,4.8 125.1,5.5 125.1,6.3 124.3,6.3 124.3,7.1 124.3,7.9 124.3,8.7 
			124.3,9.5 124.3,10.3 124.3,11.1 124.3,11.9 124.3,12.7 124.3,13.5 124.3,14.3 124.3,15 124.3,15.8 124.3,16.6 124.3,17.4 
			124.3,18.2 123.5,18.2 122.7,18.2 121.9,18.2 121.1,18.2 120.3,18.2 119.6,18.2 118.8,18.2 118,18.2 117.2,18.2 116.4,18.2 
			115.6,18.2 114.8,18.2 114,18.2 113.2,18.2 112.4,18.2 111.6,18.2 110.8,18.2 110.1,18.2 109.3,18.2 109.3,17.4 108.5,17.4 
			108.5,16.6 109.3,16.6 109.3,15.8 110.1,15.8 110.8,15.8 111.6,15.8 112.4,15.8 113.2,15.8 114,15.8 114.8,15.8 115.6,15.8 
			116.4,15.8 117.2,15.8 118,15.8 118.8,15.8 119.6,15.8 119.6,15 120.3,15 121.1,15 121.1,14.3 121.1,13.5 121.9,13.5 121.9,12.7 
			121.9,11.9 121.9,11.1 121.9,10.3 121.1,10.3 121.1,9.5 120.3,9.5 120.3,8.7 119.6,8.7 118.8,8.7 118,8.7 117.2,8.7 116.4,8.7 
			115.6,8.7 114.8,8.7 114,8.7 113.2,8.7 112.4,8.7 111.6,8.7 110.8,8.7 110.1,8.7 109.3,8.7 109.3,7.9 109.3,7.1 108.5,7.1 
			108.5,6.3 109.3,6.3 109.3,5.5 110.1,5.5 110.8,5.5 111.6,5.5 112.4,5.5 113.2,5.5 114,5.5 114.8,5.5 115.6,5.5 116.4,5.5 
			117.2,5.5 118,5.5 118.8,5.5 119.6,5.5 120.3,5.5 120.3,4.8 121.1,4.8 121.1,4 121.1,3.2 120.3,3.2 120.3,2.4 119.6,2.4 
			118.8,2.4 118,2.4 117.2,2.4 116.4,2.4 115.6,2.4 114.8,2.4 114,2.4 113.2,2.4 112.4,2.4 111.6,2.4 110.8,2.4 110.1,2.4 
			109.3,2.4 108.5,2.4 108.5,3.2 107.7,3.2 106.9,3.2 106.9,4 106.1,4 106.1,4.8 106.1,5.5 106.1,6.3 106.1,7.1 106.1,7.9 
			106.1,8.7 106.1,9.5 106.9,9.5 106.9,10.3 107.7,10.3 107.7,11.1 108.5,11.1 109.3,11.1 110.1,11.1 110.8,11.1 111.6,11.1 
			112.4,11.1 113.2,11.1 114,11.1 114.8,11.1 115.6,11.1 116.4,11.1 117.2,11.1 118,11.1 118.8,11.1 118.8,11.9 118.8,12.7 
			118,12.7 117.2,12.7 116.4,12.7 115.6,12.7 114.8,12.7 114,12.7 113.2,12.7 112.4,12.7 111.6,12.7 110.8,12.7 110.1,12.7 
			109.3,12.7 108.5,12.7 108.5,13.5 107.7,13.5 106.9,13.5 106.9,14.3 106.1,14.3 106.1,15 106.1,15.8 106.1,16.6 106.1,17.4 
			106.1,18.2 106.1,19 106.9,19 106.9,19.8 106.9,20.6 107.7,20.6 108.5,20.6 108.5,21.4 109.3,21.4 110.1,21.4 110.8,21.4 
			111.6,21.4 112.4,21.4 113.2,21.4 114,21.4 114.8,21.4 115.6,21.4 116.4,21.4 117.2,21.4 118,21.4 118.8,21.4 119.6,21.4 
			120.3,21.4 121.1,21.4 121.9,21.4 122.7,21.4 123.5,21.4 124.3,21.4 125.1,21.4 125.9,21.4 125.9,20.6 126.7,20.6 126.7,19.8 
			127.5,19.8 127.5,19 127.5,18.2 127.5,17.4 127.5,16.6 127.5,15.8 127.5,15 127.5,14.3 127.5,13.5 127.5,12.7 127.5,11.9 
			127.5,11.1 127.5,10.3 127.5,9.5 127.5,8.7 127.5,7.9 127.5,7.1 127.5,6.3 128.3,6.3 128.3,5.5 129.1,5.5 129.8,5.5 130.6,5.5 
			131.4,5.5 132.2,5.5 133,5.5 133.8,5.5 134.6,5.5 135.4,5.5 136.2,5.5 137,5.5 137.8,5.5 138.6,5.5 138.6,6.3 139.3,6.3 
			139.3,7.1 139.3,7.9 139.3,8.7 138.6,8.7 138.6,9.5 137.8,9.5 137.8,10.3 137,10.3 137,11.1 136.2,11.1 136.2,11.9 135.4,11.9 
			135.4,12.7 134.6,12.7 134.6,13.5 133.8,13.5 133.8,14.3 133,14.3 133,15 132.2,15 132.2,15.8 131.4,15.8 131.4,16.6 130.6,16.6 
			130.6,17.4 129.8,17.4 129.8,18.2 129.1,18.2 129.1,19 129.1,19.8 129.1,20.6 129.8,20.6 130.6,20.6 131.4,20.6 131.4,19.8 
			132.2,19.8 132.2,19 133,19 133,18.2 133.8,18.2 133.8,17.4 134.6,17.4 134.6,16.6 135.4,16.6 135.4,15.8 136.2,15.8 136.2,15 
			137,15 137,14.3 137.8,14.3 137.8,13.5 138.6,13.5 138.6,12.7 139.3,12.7 139.3,11.9 140.1,11.9 140.1,11.1 140.9,11.1 
			140.9,10.3 141.7,10.3 141.7,9.5 141.7,8.7 142.5,8.7 142.5,7.9 142.5,7.1 142.5,6.3 142.5,5.5 141.7,5.5 		"/>
		<polygon fill="#098843" points="102.9,4 102.1,4 102.1,3.2 101.3,3.2 100.6,3.2 100.6,2.4 99.8,2.4 99,2.4 98.2,2.4 97.4,2.4 
			96.6,2.4 95.8,2.4 95,2.4 94.2,2.4 93.4,2.4 92.6,2.4 91.8,2.4 91.8,3.2 91,3.2 90.3,3.2 90.3,4 90.3,4.8 89.5,4.8 89.5,5.5 
			89.5,6.3 89.5,7.1 89.5,7.9 89.5,8.7 89.5,9.5 89.5,10.3 89.5,11.1 89.5,11.9 89.5,12.7 89.5,13.5 89.5,14.3 89.5,15 89.5,15.8 
			89.5,16.6 89.5,17.4 89.5,18.2 89.5,19 89.5,19.8 89.5,20.6 90.3,20.6 90.3,21.4 91,21.4 91.8,21.4 91.8,20.6 92.6,20.6 
			92.6,19.8 92.6,19 92.6,18.2 92.6,17.4 92.6,16.6 92.6,15.8 92.6,15 92.6,14.3 92.6,13.5 92.6,12.7 92.6,11.9 92.6,11.1 
			92.6,10.3 92.6,9.5 92.6,8.7 92.6,7.9 92.6,7.1 92.6,6.3 93.4,6.3 93.4,5.5 94.2,5.5 95,5.5 95.8,5.5 96.6,5.5 97.4,5.5 98.2,5.5 
			99,5.5 99.8,5.5 100.6,5.5 100.6,6.3 100.6,7.1 99.8,7.1 99.8,7.9 99,7.9 99,8.7 98.2,8.7 98.2,9.5 97.4,9.5 97.4,10.3 96.6,10.3 
			96.6,11.1 95.8,11.1 95.8,11.9 95,11.9 95,12.7 94.2,12.7 94.2,13.5 93.4,13.5 93.4,14.3 93.4,15 93.4,15.8 93.4,16.6 94.2,16.6 
			95,16.6 95.8,16.6 95.8,15.8 96.6,15.8 96.6,15 97.4,15 97.4,14.3 98.2,14.3 98.2,13.5 99,13.5 99,12.7 99.8,12.7 99.8,11.9 
			100.6,11.9 100.6,11.1 101.3,11.1 101.3,10.3 102.1,10.3 102.1,9.5 102.9,9.5 102.9,8.7 102.9,7.9 103.7,7.9 103.7,7.1 103.7,6.3 
			103.7,5.5 103.7,4.8 102.9,4.8 		"/>
		<polygon fill="#098843" points="86.3,2.4 85.5,2.4 84.7,2.4 84.7,3.2 83.9,3.2 83.9,4 83.9,4.8 83.9,5.5 83.9,6.3 83.9,7.1 
			83.9,7.9 83.9,8.7 83.9,9.5 83.9,10.3 83.9,11.1 83.9,11.9 83.9,12.7 83.9,13.5 83.9,14.3 83.9,15 83.9,15.8 83.9,16.6 83.9,17.4 
			83.9,18.2 83.9,19 83.9,19.8 83.9,20.6 84.7,20.6 84.7,21.4 85.5,21.4 86.3,21.4 86.3,20.6 87.1,20.6 87.1,19.8 87.1,19 
			87.1,18.2 87.1,17.4 87.1,16.6 87.1,15.8 87.1,15 87.1,14.3 87.1,13.5 87.1,12.7 87.1,11.9 87.1,11.1 87.1,10.3 87.1,9.5 
			87.1,8.7 87.1,7.9 87.1,7.1 87.1,6.3 87.1,5.5 87.1,4.8 87.1,4 87.1,3.2 86.3,3.2 		"/>
		<polygon fill="#098843" points="81.5,2.4 80.8,2.4 80,2.4 79.2,2.4 78.4,2.4 77.6,2.4 76.8,2.4 76,2.4 75.2,2.4 74.4,2.4 
			74.4,3.2 73.6,3.2 73.6,4 72.8,4 72.8,4.8 72.8,5.5 72.8,6.3 72.8,7.1 72.8,7.9 72.8,8.7 72.8,9.5 72.8,10.3 72.8,11.1 72.8,11.9 
			72.8,12.7 72.8,13.5 72.8,14.3 72.8,15 72.8,15.8 72.8,16.6 72.8,17.4 72.8,18.2 72.8,19 72,19 71.3,19 71.3,18.2 71.3,17.4 
			71.3,16.6 71.3,15.8 71.3,15 71.3,14.3 71.3,13.5 71.3,12.7 71.3,11.9 71.3,11.1 71.3,10.3 71.3,9.5 71.3,8.7 71.3,7.9 71.3,7.1 
			71.3,6.3 71.3,5.5 71.3,4.8 71.3,4 70.5,4 70.5,3.2 69.7,3.2 69.7,2.4 68.9,2.4 68.1,2.4 67.3,2.4 66.5,2.4 65.7,2.4 64.9,2.4 
			64.1,2.4 63.3,2.4 62.5,2.4 61.8,2.4 61,2.4 60.2,2.4 60.2,3.2 59.4,3.2 59.4,4 59.4,4.8 58.6,4.8 58.6,5.5 58.6,6.3 58.6,7.1 
			58.6,7.9 58.6,8.7 58.6,9.5 58.6,10.3 58.6,11.1 58.6,11.9 58.6,12.7 58.6,13.5 58.6,14.3 58.6,15 58.6,15.8 58.6,16.6 58.6,17.4 
			58.6,18.2 57.8,18.2 57,18.2 57,17.4 57,16.6 56.2,16.6 56.2,15.8 56.2,15 55.4,15 55.4,14.3 55.4,13.5 54.6,13.5 54.6,12.7 
			53.8,12.7 53.8,11.9 53.8,11.1 53,11.1 53,10.3 53,9.5 52.3,9.5 52.3,8.7 52.3,7.9 51.5,7.9 51.5,7.1 50.7,7.1 50.7,6.3 50.7,5.5 
			49.9,5.5 49.9,4.8 49.9,4 49.1,4 49.1,3.2 48.3,3.2 48.3,2.4 47.5,2.4 47.5,1.6 46.7,1.6 45.9,1.6 45.1,1.6 44.3,1.6 44.3,2.4 
			43.5,2.4 43.5,3.2 43.5,4 42.8,4 42.8,4.8 42.8,5.5 42.8,6.3 42.8,7.1 42.8,7.9 42.8,8.7 42.8,9.5 42.8,10.3 42.8,11.1 42.8,11.9 
			42.8,12.7 42.8,13.5 42.8,14.3 42.8,15 42.8,15.8 42.8,16.6 42.8,17.4 42.8,18.2 42,18.2 41.2,18.2 40.4,18.2 39.6,18.2 
			38.8,18.2 38,18.2 37.2,18.2 36.4,18.2 35.6,18.2 34.8,18.2 34,18.2 33.3,18.2 32.5,18.2 31.7,18.2 30.9,18.2 30.1,18.2 
			29.3,18.2 28.5,18.2 27.7,18.2 27.7,17.4 26.9,17.4 26.9,16.6 26.9,15.8 27.7,15.8 28.5,15.8 29.3,15.8 30.1,15.8 30.9,15.8 
			31.7,15.8 32.5,15.8 33.3,15.8 34,15.8 34.8,15.8 35.6,15.8 36.4,15.8 37.2,15.8 38,15.8 38,15 38.8,15 38.8,14.3 39.6,14.3 
			39.6,13.5 40.4,13.5 40.4,12.7 40.4,11.9 40.4,11.1 40.4,10.3 39.6,10.3 39.6,9.5 38.8,9.5 38.8,8.7 38,8.7 37.2,8.7 36.4,8.7 
			35.6,8.7 34.8,8.7 34,8.7 33.3,8.7 32.5,8.7 31.7,8.7 30.9,8.7 30.1,8.7 29.3,8.7 28.5,8.7 27.7,8.7 26.9,8.7 26.9,7.9 26.1,7.9 
			26.1,7.1 26.1,6.3 26.9,6.3 26.9,5.5 27.7,5.5 28.5,5.5 29.3,5.5 30.1,5.5 30.9,5.5 31.7,5.5 32.5,5.5 33.3,5.5 34,5.5 34.8,5.5 
			35.6,5.5 36.4,5.5 37.2,5.5 38,5.5 38.8,5.5 39.6,5.5 39.6,4.8 39.6,4 39.6,3.2 38.8,3.2 38,3.2 38,2.4 37.2,2.4 36.4,2.4 
			35.6,2.4 34.8,2.4 34,2.4 33.3,2.4 32.5,2.4 31.7,2.4 30.9,2.4 30.1,2.4 29.3,2.4 28.5,2.4 27.7,2.4 26.9,2.4 26.1,2.4 26.1,3.2 
			25.3,3.2 24.5,3.2 24.5,4 23.8,4 23.8,4.8 23.8,5.5 23.8,6.3 23.8,7.1 23.8,7.9 23.8,8.7 23.8,9.5 23.8,10.3 24.5,10.3 25.3,10.3 
			25.3,11.1 26.1,11.1 26.9,11.1 27.7,11.1 28.5,11.1 29.3,11.1 30.1,11.1 30.9,11.1 31.7,11.1 32.5,11.1 33.3,11.1 34,11.1 
			34.8,11.1 35.6,11.1 36.4,11.1 37.2,11.1 37.2,11.9 37.2,12.7 36.4,12.7 35.6,12.7 34.8,12.7 34,12.7 33.3,12.7 32.5,12.7 
			31.7,12.7 30.9,12.7 30.1,12.7 29.3,12.7 28.5,12.7 27.7,12.7 26.9,12.7 26.9,13.5 26.1,13.5 25.3,13.5 25.3,14.3 24.5,14.3 
			24.5,15 23.8,15 23.8,15.8 23.8,16.6 23.8,17.4 23.8,18.2 24.5,18.2 24.5,19 24.5,19.8 25.3,19.8 25.3,20.6 26.1,20.6 26.9,20.6 
			26.9,21.4 27.7,21.4 28.5,21.4 29.3,21.4 30.1,21.4 30.9,21.4 31.7,21.4 32.5,21.4 33.3,21.4 34,21.4 34.8,21.4 35.6,21.4 
			36.4,21.4 37.2,21.4 38,21.4 38.8,21.4 39.6,21.4 40.4,21.4 41.2,21.4 42,21.4 42.8,21.4 43.5,21.4 43.5,20.6 44.3,20.6 
			45.1,20.6 45.1,19.8 45.1,19 45.9,19 45.9,18.2 45.9,17.4 45.9,16.6 45.9,15.8 45.9,15 45.9,14.3 45.9,13.5 45.9,12.7 45.9,11.9 
			45.9,11.1 45.9,10.3 45.9,9.5 45.9,8.7 45.9,7.9 45.9,7.1 45.9,6.3 45.9,5.5 46.7,5.5 46.7,6.3 46.7,7.1 47.5,7.1 47.5,7.9 
			48.3,7.9 48.3,8.7 48.3,9.5 49.1,9.5 49.1,10.3 49.9,10.3 49.9,11.1 49.9,11.9 50.7,11.9 50.7,12.7 51.5,12.7 51.5,13.5 
			51.5,14.3 52.3,14.3 52.3,15 52.3,15.8 53,15.8 53,16.6 53.8,16.6 53.8,17.4 53.8,18.2 54.6,18.2 54.6,19 54.6,19.8 55.4,19.8 
			55.4,20.6 56.2,20.6 56.2,21.4 57,21.4 57.8,21.4 58.6,21.4 59.4,21.4 60.2,21.4 60.2,20.6 61,20.6 61,19.8 61.8,19.8 61.8,19 
			61.8,18.2 61.8,17.4 61.8,16.6 61.8,15.8 61.8,15 61.8,14.3 61.8,13.5 61.8,12.7 61.8,11.9 61.8,11.1 61.8,10.3 61.8,9.5 
			61.8,8.7 61.8,7.9 61.8,7.1 61.8,6.3 61.8,5.5 62.5,5.5 63.3,5.5 64.1,5.5 64.9,5.5 65.7,5.5 66.5,5.5 67.3,5.5 68.1,5.5 
			68.1,6.3 68.1,7.1 68.1,7.9 68.1,8.7 68.1,9.5 68.1,10.3 68.1,11.1 68.1,11.9 68.1,12.7 68.1,13.5 68.1,14.3 68.1,15 68.1,15.8 
			68.1,16.6 68.1,17.4 68.1,18.2 68.1,19 68.1,19.8 68.9,19.8 68.9,20.6 69.7,20.6 69.7,21.4 70.5,21.4 70.5,22.2 71.3,22.2 
			72,22.2 72.8,22.2 73.6,22.2 73.6,21.4 74.4,21.4 74.4,20.6 75.2,20.6 75.2,19.8 76,19.8 76,19 76,18.2 76,17.4 76,16.6 76,15.8 
			76,15 76,14.3 76,13.5 76,12.7 76,11.9 76,11.1 76,10.3 76,9.5 76,8.7 76,7.9 76,7.1 76,6.3 76,5.5 76.8,5.5 77.6,5.5 78.4,5.5 
			79.2,5.5 80,5.5 80.8,5.5 81.5,5.5 81.5,4.8 82.3,4.8 82.3,4 82.3,3.2 81.5,3.2 		"/>
		<polygon fill="#098843" points="20.6,2.4 19.8,2.4 19,2.4 18.2,2.4 17.4,2.4 16.6,2.4 15.8,2.4 15,2.4 14.3,2.4 14.3,3.2 
			13.5,3.2 12.7,3.2 11.9,3.2 11.9,4 11.1,4 11.1,4.8 10.3,4.8 10.3,5.5 9.5,5.5 9.5,6.3 8.7,6.3 8.7,7.1 7.9,7.1 7.9,7.9 7.1,7.9 
			7.1,8.7 6.3,8.7 6.3,9.5 5.5,9.5 5.5,10.3 4.8,10.3 4.8,11.1 4,11.1 4,11.9 3.2,11.9 3.2,12.7 3.2,13.5 2.4,13.5 2.4,14.3 
			1.6,14.3 1.6,15 1.6,15.8 1.6,16.6 1.6,17.4 1.6,18.2 1.6,19 2.4,19 2.4,19.8 3.2,19.8 3.2,20.6 4,20.6 4.8,20.6 5.5,20.6 
			5.5,21.4 6.3,21.4 7.1,21.4 7.9,21.4 8.7,21.4 9.5,21.4 10.3,21.4 11.1,21.4 11.9,21.4 12.7,21.4 13.5,21.4 14.3,21.4 15,21.4 
			15.8,21.4 16.6,21.4 17.4,21.4 18.2,21.4 19,21.4 19.8,21.4 20.6,21.4 20.6,20.6 21.4,20.6 21.4,19.8 21.4,19 21.4,18.2 
			20.6,18.2 20.6,17.4 19.8,17.4 19,17.4 18.2,17.4 17.4,17.4 16.6,17.4 15.8,17.4 15,17.4 14.3,17.4 13.5,17.4 12.7,17.4 
			11.9,17.4 11.1,17.4 10.3,17.4 9.5,17.4 8.7,17.4 7.9,17.4 7.1,17.4 6.3,17.4 5.5,17.4 4.8,17.4 4.8,16.6 4.8,15.8 5.5,15.8 
			5.5,15 6.3,15 6.3,14.3 7.1,14.3 7.1,13.5 7.9,13.5 7.9,12.7 8.7,12.7 8.7,11.9 9.5,11.9 9.5,11.1 10.3,11.1 10.3,10.3 11.1,10.3 
			11.1,9.5 11.9,9.5 11.9,8.7 12.7,8.7 12.7,7.9 13.5,7.9 13.5,7.1 14.3,7.1 14.3,6.3 15,6.3 15.8,6.3 16.6,6.3 17.4,6.3 18.2,6.3 
			19,6.3 19.8,6.3 20.6,6.3 20.6,5.5 21.4,5.5 21.4,4.8 21.4,4 21.4,3.2 20.6,3.2 		"/>
	</g>
	<path fill="#FFFF00" d="M160.7,9.5V8.7h-0.8V7.9h-0.8V7.1V6.3h0.8V5.5h0.8V4.8V4V3.2V2.4h-0.8V1.6h-0.8V0.8h-0.8h-0.8h-0.8H156
		h-0.8h-0.8h-0.8h-0.8H152h-0.8h-0.8h-0.8h-0.8h-0.8h-0.8h-0.8h-0.8v0.8h-0.8h-0.8v0.8h-0.8v0.8h-0.8h-0.8V2.4h-0.8V1.6h-0.8h-0.8
		h-0.8V0.8h-0.8H137h-0.8h-0.8h-0.8h-0.8H133h-0.8h-0.8h-0.8h-0.8h-0.8h-0.8h-0.8h-0.8v0.8h-0.8h-0.8v0.8h-0.8v0.8h-0.8V4v0.8v0.8
		h-0.8v0.8v0.8v0.8v0.8h-0.8V7.9h-0.8V7.1V6.3h0.8V5.5h0.8V4.8V4V3.2V2.4h-0.8V1.6h-0.8V0.8h-0.8h-0.8h-0.8H118h-0.8h-0.8h-0.8h-0.8
		H114h-0.8h-0.8h-0.8h-0.8h-0.8h-0.8h-0.8h-0.8v0.8h-0.8h-0.8v0.8h-0.8v0.8h-0.8h-0.8V2.4h-0.8V1.6h-0.8h-0.8V0.8h-0.8h-0.8H99h-0.8
		h-0.8h-0.8h-0.8H95h-0.8h-0.8h-0.8h-0.8H91v0.8h-0.8h-0.8v0.8h-0.8h-0.8V1.6h-0.8V0.8h-0.8h-0.8h-0.8h-0.8v0.8h-0.8h-0.8V0.8h-0.8
		h-0.8H80h-0.8h-0.8h-0.8h-0.8H76h-0.8h-0.8h-0.8v0.8h-0.8v0.8H72h-0.8V1.6h-0.8V0.8h-0.8h-0.8h-0.8h-0.8h-0.8h-0.8h-0.8h-0.8h-0.8
		h-0.8h-0.8H61h-0.8h-0.8v0.8h-0.8v0.8h-0.8v0.8V4H57v0.8v0.8v0.8v0.8v0.8v0.8v0.8v0.8v0.8v0.8v0.8h-0.8v-0.8h-0.8v-0.8v-0.8h-0.8
		V9.5V8.7h-0.8V7.9V7.1H53V6.3h-0.8V5.5V4.8h-0.8V4V3.2h-0.8V2.4h-0.8V1.6h-0.8V0.8h-0.8V0h-0.8h-0.8h-0.8h-0.8h-0.8h-0.8v0.8h-0.8
		v0.8H42v0.8v0.8h-0.8V2.4h-0.8V1.6h-0.8h-0.8V0.8H38h-0.8h-0.8h-0.8h-0.8H34h-0.8h-0.8h-0.8h-0.8h-0.8h-0.8h-0.8h-0.8h-0.8h-0.8
		h-0.8v0.8h-0.8h-0.8v0.8H23h-0.8V1.6h-0.8V0.8h-0.8h-0.8H19h-0.8h-0.8h-0.8h-0.8H15h-0.8h-0.8v0.8h-0.8h-0.8h-0.8v0.8h-0.8v0.8H9.5
		V4H8.7v0.8H7.9v0.8H7.1v0.8H6.3v0.8H5.5v0.8H4.8v0.8H4v0.8H3.2v0.8H2.4v0.8H1.6v0.8v0.8H0.8v0.8H0v0.8V15v0.8v0.8v0.8v0.8V19v0.8
		h0.8v0.8h0.8v0.8h0.8v0.8h0.8H4h0.8V23h0.8h0.8h0.8h0.8h0.8h0.8h0.8h0.8h0.8h0.8h0.8h0.8H15h0.8h0.8h0.8h0.8H19h0.8h0.8h0.8v-0.8
		h0.8v-0.8H23v-0.8h0.8v0.8h0.8v0.8h0.8h0.8V23h0.8h0.8h0.8h0.8h0.8h0.8h0.8h0.8h0.8H34h0.8h0.8h0.8h0.8H38h0.8h0.8h0.8h0.8H42h0.8
		h0.8h0.8v-0.8h0.8h0.8v-0.8h0.8v-0.8v-0.8h0.8V19v-0.8v-0.8v-0.8v-0.8V15v-0.8v-0.8v-0.8v-0.8v-0.8h0.8v0.8v0.8h0.8v0.8h0.8v0.8V15
		h0.8v0.8v0.8h0.8v0.8h0.8v0.8V19H53v0.8v0.8h0.8v0.8h0.8v0.8h0.8V23h0.8H57h0.8h0.8h0.8h0.8H61v-0.8h0.8v-0.8h0.8v-0.8h0.8v-0.8V19
		v-0.8v-0.8v-0.8v-0.8V15v-0.8v-0.8v-0.8v-0.8v-0.8v-0.8V9.5V8.7V7.9V7.1h0.8h0.8h0.8h0.8v0.8v0.8v0.8v0.8v0.8v0.8v0.8v0.8v0.8V15
		v0.8v0.8v0.8v0.8V19v0.8v0.8h0.8v0.8h0.8v0.8h0.8V23h0.8v0.8h0.8h0.8H72h0.8h0.8h0.8V23h0.8v-0.8H76v-0.8h0.8v-0.8h0.8v-0.8V19
		v-0.8v-0.8v-0.8v-0.8V15v-0.8v-0.8v-0.8v-0.8v-0.8v-0.8V9.5V8.7V7.9V7.1h0.8h0.8H80h0.8h0.8h0.8v0.8v0.8v0.8v0.8v0.8v0.8v0.8v0.8
		v0.8V15v0.8v0.8v0.8v0.8V19v0.8v0.8v0.8h0.8v0.8h0.8V23h0.8h0.8h0.8h0.8v-0.8h0.8v-0.8h0.8v0.8h0.8V23h0.8H91h0.8h0.8v-0.8h0.8
		v-0.8h0.8v-0.8v-0.8V19v-0.8H95h0.8h0.8v-0.8h0.8v-0.8h0.8v-0.8H99V15h0.8v-0.8h0.8v-0.8h0.8v-0.8h0.8v-0.8h0.8v-0.8h0.8v-0.8h0.8
		h0.8v0.8h0.8v0.8v0.8h-0.8v0.8h-0.8v0.8V15v0.8v0.8v0.8v0.8V19v0.8h0.8v0.8v0.8h0.8v0.8h0.8h0.8V23h0.8h0.8h0.8h0.8h0.8h0.8h0.8
		h0.8h0.8h0.8h0.8h0.8h0.8h0.8h0.8h0.8h0.8h0.8h0.8h0.8h0.8h0.8h0.8h0.8v-0.8h0.8v-0.8h0.8v0.8h0.8h0.8h0.8h0.8h0.8v-0.8h0.8v-0.8
		h0.8v-0.8h0.8V19h0.8v-0.8h0.8v-0.8h0.8v-0.8h0.8v-0.8h0.8V15h0.8v-0.8h0.8v-0.8h0.8v-0.8h0.8v-0.8h0.8v-0.8h0.8h0.8v0.8v0.8h-0.8
		v0.8h-0.8v0.8V15v0.8v0.8v0.8v0.8V19v0.8h0.8v0.8v0.8h0.8v0.8h0.8h0.8V23h0.8h0.8h0.8h0.8h0.8h0.8h0.8h0.8h0.8h0.8h0.8h0.8h0.8h0.8
		h0.8h0.8h0.8v-0.8h0.8v-0.8h0.8v-0.8v-0.8V19v-0.8h-0.8v-0.8h-0.8v-0.8h0.8v-0.8h0.8V15v-0.8h0.8v-0.8v-0.8v-0.8v-0.8v-0.8V9.5
		H160.7z M159.9,11.1v0.8v0.8v0.8h-0.8v0.8V15h-0.8h-0.8v0.8h-0.8H156h-0.8h-0.8h-0.8h-0.8H152h-0.8h-0.8h-0.8h-0.8h-0.8h-0.8v0.8
		h-0.8v0.8h0.8v0.8h0.8h0.8h0.8h0.8h0.8h0.8h0.8h0.8h0.8h0.8h0.8h0.8h0.8h0.8V19h0.8v0.8v0.8h-0.8v0.8h-0.8h-0.8H156h-0.8h-0.8h-0.8
		h-0.8H152h-0.8h-0.8h-0.8h-0.8h-0.8h-0.8h-0.8v-0.8h-0.8h-0.8v-0.8V19h-0.8v-0.8v-0.8v-0.8v-0.8V15v-0.8h0.8v-0.8h0.8h0.8v-0.8h0.8
		h0.8h0.8h0.8h0.8h0.8h0.8h0.8h0.8h0.8h0.8h0.8h0.8v-0.8v-0.8H156h-0.8h-0.8h-0.8h-0.8H152h-0.8h-0.8h-0.8h-0.8h-0.8h-0.8h-0.8h-0.8
		v-0.8h-0.8V9.5h-0.8V8.7V7.9V7.1V6.3V5.5V4.8V4h0.8V3.2h0.8h0.8V2.4h0.8h0.8h0.8h0.8h0.8h0.8h0.8h0.8h0.8h0.8h0.8h0.8h0.8h0.8h0.8
		v0.8h0.8V4v0.8h-0.8v0.8h-0.8h-0.8H156h-0.8h-0.8h-0.8h-0.8H152h-0.8h-0.8h-0.8h-0.8h-0.8h-0.8v0.8h-0.8v0.8h0.8v0.8v0.8h0.8h0.8
		h0.8h0.8h0.8h0.8h0.8h0.8h0.8h0.8h0.8h0.8h0.8h0.8v0.8h0.8v0.8h0.8V11.1z M141.7,10.3h-0.8v0.8h-0.8v0.8h-0.8v0.8h-0.8v0.8h-0.8
		v0.8H137V15h-0.8v0.8h-0.8v0.8h-0.8v0.8h-0.8v0.8H133V19h-0.8v0.8h-0.8v0.8h-0.8h-0.8h-0.8v-0.8V19v-0.8h0.8v-0.8h0.8v-0.8h0.8
		v-0.8h0.8V15h0.8v-0.8h0.8v-0.8h0.8v-0.8h0.8v-0.8h0.8v-0.8h0.8v-0.8h0.8V9.5h0.8V8.7h0.8V7.9V7.1V6.3h-0.8V5.5h-0.8H137h-0.8h-0.8
		h-0.8h-0.8H133h-0.8h-0.8h-0.8h-0.8h-0.8h-0.8v0.8h-0.8v0.8v0.8v0.8v0.8v0.8v0.8v0.8v0.8v0.8v0.8V15v0.8v0.8v0.8v0.8V19v0.8h-0.8
		v0.8h-0.8v0.8h-0.8h-0.8h-0.8h-0.8h-0.8h-0.8h-0.8h-0.8h-0.8H118h-0.8h-0.8h-0.8h-0.8H114h-0.8h-0.8h-0.8h-0.8h-0.8h-0.8h-0.8v-0.8
		h-0.8h-0.8v-0.8V19h-0.8v-0.8v-0.8v-0.8v-0.8V15v-0.8h0.8v-0.8h0.8h0.8v-0.8h0.8h0.8h0.8h0.8h0.8h0.8h0.8h0.8h0.8h0.8h0.8h0.8h0.8
		v-0.8v-0.8H118h-0.8h-0.8h-0.8h-0.8H114h-0.8h-0.8h-0.8h-0.8h-0.8h-0.8h-0.8h-0.8v-0.8h-0.8V9.5h-0.8V8.7V7.9V7.1V6.3V5.5V4.8V4
		h0.8V3.2h0.8h0.8V2.4h0.8h0.8h0.8h0.8h0.8h0.8h0.8h0.8h0.8h0.8h0.8h0.8h0.8h0.8h0.8v0.8h0.8V4v0.8h-0.8v0.8h-0.8h-0.8H118h-0.8
		h-0.8h-0.8h-0.8H114h-0.8h-0.8h-0.8h-0.8h-0.8h-0.8v0.8h-0.8v0.8h0.8v0.8v0.8h0.8h0.8h0.8h0.8h0.8h0.8h0.8h0.8h0.8h0.8h0.8h0.8h0.8
		h0.8v0.8h0.8v0.8h0.8v0.8v0.8v0.8v0.8h-0.8v0.8V15h-0.8h-0.8v0.8h-0.8H118h-0.8h-0.8h-0.8h-0.8H114h-0.8h-0.8h-0.8h-0.8h-0.8h-0.8
		v0.8h-0.8v0.8h0.8v0.8h0.8h0.8h0.8h0.8h0.8h0.8h0.8h0.8h0.8h0.8h0.8h0.8h0.8h0.8h0.8h0.8h0.8h0.8h0.8v-0.8v-0.8v-0.8V15v-0.8v-0.8
		v-0.8v-0.8v-0.8v-0.8V9.5V8.7V7.9V7.1V6.3h0.8V5.5V4.8V4h0.8V3.2h0.8h0.8V2.4h0.8h0.8h0.8h0.8h0.8h0.8h0.8h0.8h0.8h0.8h0.8h0.8h0.8
		v0.8h0.8h0.8h0.8V4h0.8v0.8h0.8v0.8h0.8v0.8v0.8v0.8v0.8h-0.8v0.8V10.3z M129.8,7.1h0.8h0.8h0.8h0.8h0.8h0.8h0.8h0.8h0.8h0.8v0.8
		H137v0.8h-0.8v0.8h-0.8v0.8h-0.8v0.8h-0.8v0.8H133v0.8h-0.8v0.8h-0.8v0.8h-0.8V15h-0.8v0.8h-0.8V15v-0.8v-0.8v-0.8v-0.8v-0.8v-0.8
		V9.5V8.7V7.9V7.1H129.8z M102.9,9.5h-0.8v0.8h-0.8v0.8h-0.8v0.8h-0.8v0.8H99v0.8h-0.8v0.8h-0.8V15h-0.8v0.8h-0.8v0.8H95h-0.8h-0.8
		v-0.8V15v-0.8v-0.8h0.8v-0.8H95v-0.8h0.8v-0.8h0.8v-0.8h0.8V9.5h0.8V8.7H99V7.9h0.8V7.1h0.8V6.3V5.5h-0.8H99h-0.8h-0.8h-0.8h-0.8
		H95h-0.8h-0.8v0.8h-0.8v0.8v0.8v0.8v0.8v0.8v0.8v0.8v0.8v0.8v0.8V15v0.8v0.8v0.8v0.8V19v0.8v0.8h-0.8v0.8H91h-0.8v-0.8h-0.8v-0.8
		V19v-0.8v-0.8v-0.8v-0.8V15v-0.8v-0.8v-0.8v-0.8v-0.8v-0.8V9.5V8.7V7.9V7.1V6.3V5.5V4.8h0.8V4V3.2H91h0.8V2.4h0.8h0.8h0.8H95h0.8
		h0.8h0.8h0.8H99h0.8h0.8v0.8h0.8h0.8V4h0.8v0.8h0.8v0.8v0.8v0.8v0.8h-0.8v0.8V9.5z M95,7.1h0.8h0.8h0.8v0.8h-0.8v0.8h-0.8v0.8H95
		v0.8h-0.8V9.5V8.7V7.9V7.1H95z M87.1,20.6h-0.8v0.8h-0.8h-0.8v-0.8h-0.8v-0.8V19v-0.8v-0.8v-0.8v-0.8V15v-0.8v-0.8v-0.8v-0.8v-0.8
		v-0.8V9.5V8.7V7.9V7.1V6.3V5.5V4.8V4V3.2h0.8V2.4h0.8h0.8v0.8h0.8V4v0.8v0.8v0.8v0.8v0.8v0.8v0.8v0.8v0.8v0.8v0.8v0.8v0.8V15v0.8
		v0.8v0.8v0.8V19v0.8V20.6z M76,5.5v0.8v0.8v0.8v0.8v0.8v0.8v0.8v0.8v0.8v0.8v0.8V15v0.8v0.8v0.8v0.8V19v0.8h-0.8v0.8h-0.8v0.8h-0.8
		v0.8h-0.8H72h-0.8h-0.8v-0.8h-0.8v-0.8h-0.8v-0.8h-0.8V19v-0.8v-0.8v-0.8v-0.8V15v-0.8v-0.8v-0.8v-0.8v-0.8v-0.8V9.5V8.7V7.9V7.1
		V6.3V5.5h-0.8h-0.8h-0.8h-0.8h-0.8h-0.8h-0.8h-0.8v0.8v0.8v0.8v0.8v0.8v0.8v0.8v0.8v0.8v0.8v0.8V15v0.8v0.8v0.8v0.8V19v0.8H61v0.8
		h-0.8v0.8h-0.8h-0.8h-0.8H57h-0.8v-0.8h-0.8v-0.8h-0.8V19v-0.8h-0.8v-0.8v-0.8H53v-0.8h-0.8V15v-0.8h-0.8v-0.8v-0.8h-0.8v-0.8h-0.8
		v-0.8v-0.8h-0.8V9.5h-0.8V8.7V7.9h-0.8V7.1h-0.8V6.3V5.5h-0.8v0.8v0.8v0.8v0.8v0.8v0.8v0.8v0.8v0.8v0.8v0.8V15v0.8v0.8v0.8v0.8V19
		h-0.8v0.8v0.8h-0.8h-0.8v0.8h-0.8H42h-0.8h-0.8h-0.8h-0.8H38h-0.8h-0.8h-0.8h-0.8H34h-0.8h-0.8h-0.8h-0.8h-0.8h-0.8h-0.8h-0.8h-0.8
		v-0.8h-0.8h-0.8v-0.8h-0.8V19v-0.8h-0.8v-0.8v-0.8v-0.8V15h0.8v-0.8h0.8v-0.8h0.8h0.8v-0.8h0.8h0.8h0.8h0.8h0.8h0.8h0.8h0.8H34h0.8
		h0.8h0.8h0.8v-0.8v-0.8h-0.8h-0.8h-0.8H34h-0.8h-0.8h-0.8h-0.8h-0.8h-0.8h-0.8h-0.8h-0.8h-0.8h-0.8v-0.8h-0.8h-0.8V9.5V8.7V7.9V7.1
		V6.3V5.5V4.8V4h0.8V3.2h0.8h0.8V2.4h0.8h0.8h0.8h0.8h0.8h0.8h0.8h0.8h0.8H34h0.8h0.8h0.8h0.8H38v0.8h0.8h0.8V4v0.8v0.8h-0.8H38
		h-0.8h-0.8h-0.8h-0.8H34h-0.8h-0.8h-0.8h-0.8h-0.8h-0.8h-0.8h-0.8h-0.8v0.8h-0.8v0.8v0.8h0.8v0.8h0.8h0.8h0.8h0.8h0.8h0.8h0.8h0.8
		H34h0.8h0.8h0.8h0.8H38h0.8v0.8h0.8v0.8h0.8v0.8v0.8v0.8v0.8h-0.8v0.8h-0.8V15H38v0.8h-0.8h-0.8h-0.8h-0.8H34h-0.8h-0.8h-0.8h-0.8
		h-0.8h-0.8h-0.8h-0.8h-0.8v0.8v0.8h0.8v0.8h0.8h0.8h0.8h0.8h0.8h0.8h0.8H34h0.8h0.8h0.8h0.8H38h0.8h0.8h0.8h0.8H42h0.8v-0.8v-0.8
		v-0.8V15v-0.8v-0.8v-0.8v-0.8v-0.8v-0.8V9.5V8.7V7.9V7.1V6.3V5.5V4.8V4h0.8V3.2V2.4h0.8V1.6h0.8h0.8h0.8h0.8v0.8h0.8v0.8h0.8V4h0.8
		v0.8v0.8h0.8v0.8v0.8h0.8v0.8h0.8v0.8v0.8H53v0.8v0.8h0.8v0.8v0.8h0.8v0.8h0.8v0.8V15h0.8v0.8v0.8H57v0.8v0.8h0.8h0.8v-0.8v-0.8
		v-0.8V15v-0.8v-0.8v-0.8v-0.8v-0.8v-0.8V9.5V8.7V7.9V7.1V6.3V5.5V4.8h0.8V4V3.2h0.8V2.4H61h0.8h0.8h0.8h0.8h0.8h0.8h0.8h0.8h0.8
		h0.8h0.8v0.8h0.8V4h0.8v0.8v0.8v0.8v0.8v0.8v0.8v0.8v0.8v0.8v0.8v0.8v0.8v0.8V15v0.8v0.8v0.8v0.8V19H72h0.8v-0.8v-0.8v-0.8v-0.8V15
		v-0.8v-0.8v-0.8v-0.8v-0.8v-0.8V9.5V8.7V7.9V7.1V6.3V5.5V4.8V4h0.8V3.2h0.8V2.4h0.8H76h0.8h0.8h0.8h0.8H80h0.8h0.8v0.8h0.8V4v0.8
		h-0.8v0.8h-0.8H80h-0.8h-0.8h-0.8h-0.8H76z M21.4,20.6h-0.8v0.8h-0.8H19h-0.8h-0.8h-0.8h-0.8H15h-0.8h-0.8h-0.8h-0.8h-0.8h-0.8H9.5
		H8.7H7.9H7.1H6.3H5.5v-0.8H4.8H4H3.2v-0.8H2.4V19H1.6v-0.8v-0.8v-0.8v-0.8V15v-0.8h0.8v-0.8h0.8v-0.8v-0.8H4v-0.8h0.8v-0.8h0.8V9.5
		h0.8V8.7h0.8V7.9h0.8V7.1h0.8V6.3h0.8V5.5h0.8V4.8h0.8V4h0.8V3.2h0.8h0.8h0.8V2.4H15h0.8h0.8h0.8h0.8H19h0.8h0.8v0.8h0.8V4v0.8v0.8
		h-0.8v0.8h-0.8H19h-0.8h-0.8h-0.8h-0.8H15h-0.8v0.8h-0.8v0.8h-0.8v0.8h-0.8v0.8h-0.8v0.8h-0.8v0.8H9.5v0.8H8.7v0.8H7.9v0.8H7.1v0.8
		H6.3V15H5.5v0.8H4.8v0.8v0.8h0.8h0.8h0.8h0.8h0.8h0.8h0.8h0.8h0.8h0.8h0.8h0.8H15h0.8h0.8h0.8h0.8H19h0.8h0.8v0.8h0.8V19v0.8V20.6z
		 M23.8,12.7v0.8H23v0.8h-0.8V15v0.8v0.8h-0.8v-0.8h-0.8h-0.8H19h-0.8h-0.8h-0.8h-0.8H15h-0.8h-0.8h-0.8h-0.8h-0.8h-0.8H9.5H8.7H7.9
		V15h0.8v-0.8h0.8v-0.8h0.8v-0.8h0.8v-0.8h0.8v-0.8h0.8v-0.8h0.8V9.5h0.8V8.7H15V7.9h0.8h0.8h0.8h0.8H19h0.8h0.8h0.8V7.1h0.8v0.8
		v0.8v0.8v0.8v0.8H23v0.8h0.8h0.8v0.8H23.8z M40.4,15.8V15h0.8v0.8v0.8h-0.8h-0.8v-0.8H40.4z M41.2,6.3v0.8v0.8v0.8h-0.8V7.9h-0.8
		V7.1h0.8V6.3H41.2z M122.7,15.8v0.8h-0.8v-0.8H122.7z"/>
</g>
</svg>
