<?xml version="1.0" encoding="utf-8"?>
<!-- Generator: Adobe Illustrator 18.1.1, SVG Export Plug-In . SVG Version: 6.00 Build 0)  -->
<svg version="1.1" id="Layer_1" xmlns="http://www.w3.org/2000/svg" xmlns:xlink="http://www.w3.org/1999/xlink" x="0px" y="0px"
	 viewBox="0 0 318 38" enable-background="new 0 0 318 38" xml:space="preserve">
<g>
	<g>
		<path fill="#FFFFFF" d="M13.4,35.5V11.2H5.3V3.1h24.3v8.1h-8.1v24.3H13.4z"/>
		<path fill="#FFFFFF" d="M35.7,35.5v-4.1h-4.1V7.1h4.1V3.1h16.2v4.1H56v24.3h-4.1v4.1H35.7z M47.9,27.4V11.2h-8.1v16.2H47.9z"/>
		<path fill="#FFFFFF" d="M62,35.5v-4.1H58V7.1H62V3.1h16.2v4.1h4.1v24.3h-4.1v4.1H62z M74.2,27.4V11.2h-8.1v16.2H74.2z"/>
		<path fill="#FFFFFF" d="M84.3,35.5V3.1h8.1v24.3h16.2v8.1H84.3z"/>
		<path fill="#FFFFFF" d="M110.6,35.5v-8.1h16.2v-4.1h-16.2V7.1h4.1V3.1H135v8.1h-16.2v4.1H135v16.2h-4.1v4.1H110.6z"/>
		<path fill="#F69120" d="M143.1,27.4v-6.1H137v-8.1h6.1V7.1h8.1v6.1h6.1v8.1h-6.1v6.1H143.1z"/>
	</g>
	<g>
		<path fill="#F69120" d="M159.5,35.5V3.1h24.3v8.1h-16.2v16.2h16.2v8.1H159.5z"/>
		<path fill="#F69120" d="M189.9,35.5v-4.1h-4.1V7.1h4.1V3.1h16.2v4.1h4.1v24.3h-4.1v4.1H189.9z M202.1,27.4V11.2H194v16.2H202.1z"
			/>
		<path fill="#F69120" d="M212.2,35.5V3.1h8.1v4.1h4.1v4.1h4.1V3.1h8.1v32.4h-8.1V19.3h-4.1v-4.1h-4.1v20.3H212.2z"/>
		<path fill="#F69120" d="M238.5,35.5V3.1h24.3v8.1h-16.2v4.1h12.2v8.1h-12.2v12.2H238.5z"/>
		<path fill="#F69120" d="M264.8,35.5v-8.1h8.1V11.2h-8.1V3.1h24.3v8.1h-8.1v16.2h8.1v8.1H264.8z"/>
		<path fill="#F69120" d="M295.2,35.5v-4.1h-4.1V7.1h4.1V3.1h20.3v8.1h-16.2v16.2h8.1v-8.1h8.1v16.2H295.2z"/>
	</g>
</g>
</svg>
