<?xml version="1.0" encoding="utf-8"?>
<!-- Generator: Adobe Illustrator 18.1.1, SVG Export Plug-In . SVG Version: 6.00 Build 0)  -->
<svg version="1.1" id="Layer_1" xmlns="http://www.w3.org/2000/svg" xmlns:xlink="http://www.w3.org/1999/xlink" x="0px" y="0px"
	 viewBox="0 0 136.9 109.5" enable-background="new 0 0 136.9 109.5" xml:space="preserve">
<rect x="1.8" y="2.1" fill="#0F1041" width="133.1" height="105.3"/>
<rect x="1.8" y="2.1" fill="#1A1751" width="133.1" height="54.5"/>
<rect x="1.8" y="89.5" fill="#0A0B14" width="133.1" height="18"/>
<rect x="1.8" y="3" fill="#0F1041" width="133.1" height="18"/>
<rect x="1.8" y="2.1" fill="none" stroke="#4586C6" stroke-width="4" stroke-miterlimit="10" width="133.1" height="105.3"/>
<g id="kqQW49_2_">
	<g>
		<rect x="21.2" y="25.9" fill="#7CB1DF" width="1.1" height="1.2"/>
		<rect x="22.3" y="23.5" fill="#B76E56" width="1.1" height="1.2"/>
		<rect x="21.2" y="23.5" fill="#B76E56" width="1.1" height="1.2"/>
		<rect x="20.1" y="23.5" fill="#B76E56" width="1.1" height="1.2"/>
		<rect x="16.8" y="21.2" fill="#B76E56" width="1.1" height="1.2"/>
		<rect x="25.7" y="20" fill="#B76E56" width="1.1" height="1.2"/>
		<rect x="23.5" y="20" fill="#B76E56" width="1.1" height="1.2"/>
		<rect x="25.7" y="18.8" fill="#B76E56" width="1.1" height="1.2"/>
		<g>
			<polygon fill="#B67029" points="29,41.1 29,42.2 27.9,42.2 27.9,43.4 27.9,44.6 26.8,44.6 26.8,45.7 27.9,45.7 29,45.7 
				30.2,45.7 30.2,44.6 31.3,44.6 31.3,43.4 31.3,42.2 31.3,41.1 30.2,41.1 			"/>
			<polygon fill="#B67029" points="12.3,38.7 12.3,39.9 11.2,39.9 11.2,41.1 10,41.1 10,42.2 10,43.4 11.2,43.4 12.3,43.4 
				12.3,42.2 13.4,42.2 13.4,41.1 13.4,39.9 14.5,39.9 14.5,38.7 13.4,38.7 			"/>
			<polygon fill="#B67029" points="13.4,29.4 12.3,29.4 11.2,29.4 11.2,30.5 11.2,31.7 12.3,31.7 12.3,32.9 13.4,32.9 14.5,32.9 
				14.5,31.7 15.6,31.7 15.6,30.5 15.6,29.4 14.5,29.4 			"/>
			<polygon fill="#B67029" points="31.3,20 31.3,18.8 30.2,18.8 30.2,20 30.2,21.2 30.2,22.4 31.3,22.4 32.4,22.4 32.4,21.2 
				31.3,21.2 			"/>
			<polygon fill="#B67029" points="33.5,17.7 32.4,17.7 32.4,18.8 32.4,20 32.4,21.2 33.5,21.2 34.6,21.2 34.6,20 34.6,18.8 
				34.6,17.7 			"/>
		</g>
		<rect x="24.6" y="17.7" fill="#B76E56" width="1.1" height="1.2"/>
		<polygon fill="#DC4856" points="22.3,17.7 21.2,17.7 20.1,17.7 20.1,18.8 20.1,20 21.2,20 22.3,20 23.5,20 23.5,18.8 23.5,17.7 		
			"/>
		<rect x="19" y="16.5" fill="#FFFFFF" width="1.1" height="1.2"/>
		<rect x="22.3" y="15.3" fill="#FFFFFF" width="1.1" height="1.2"/>
		<rect x="20.1" y="15.3" fill="#FFFFFF" width="1.1" height="1.2"/>
		<rect x="19" y="15.3" fill="#FFFFFF" width="1.1" height="1.2"/>
		<g>
			<polygon fill="#F8B3A8" points="21.2,25.9 22.3,25.9 22.3,24.7 21.2,24.7 20.1,24.7 20.1,25.9 			"/>
			<polygon fill="#F8B3A8" points="13.4,24.7 12.3,24.7 12.3,25.9 11.2,25.9 11.2,27 11.2,28.2 11.2,29.4 12.3,29.4 13.4,29.4 
				13.4,28.2 14.5,28.2 14.5,27 15.6,27 15.6,25.9 15.6,24.7 14.5,24.7 			"/>
			<polygon fill="#F8B3A8" points="30.2,22.4 30.2,21.2 29,21.2 29,22.4 27.9,22.4 27.9,23.5 26.8,23.5 25.7,23.5 25.7,24.7 
				26.8,24.7 26.8,25.9 27.9,25.9 29,25.9 29,24.7 30.2,24.7 30.2,23.5 31.3,23.5 31.3,22.4 			"/>
			<polygon fill="#F8B3A8" points="25.7,21.2 25.7,20 25.7,18.8 24.6,18.8 24.6,17.7 24.6,16.5 24.6,15.3 23.5,15.3 23.5,16.5 
				23.5,17.7 23.5,18.8 23.5,20 24.6,20 24.6,21.2 23.5,21.2 23.5,22.4 22.3,22.4 21.2,22.4 20.1,22.4 19,22.4 19,21.2 17.9,21.2 
				17.9,22.4 17.9,23.5 19,23.5 19,24.7 20.1,24.7 20.1,23.5 21.2,23.5 22.3,23.5 23.5,23.5 24.6,23.5 24.6,22.4 25.7,22.4 			"/>
			<polygon fill="#F8B3A8" points="19,20 19,21.2 20.1,21.2 21.2,21.2 22.3,21.2 23.5,21.2 23.5,20 22.3,20 21.2,20 20.1,20 
				20.1,18.8 20.1,17.7 19,17.7 19,16.5 19,15.3 17.9,15.3 17.9,16.5 17.9,17.7 17.9,18.8 16.8,18.8 16.8,17.7 15.6,17.7 14.5,17.7 
				14.5,18.8 14.5,20 14.5,21.2 15.6,21.2 16.8,21.2 17.9,21.2 17.9,20 			"/>
			<polygon fill="#F8B3A8" points="22.3,14.2 21.2,14.2 20.1,14.2 20.1,15.3 21.2,15.3 21.2,16.5 21.2,17.7 22.3,17.7 22.3,16.5 
				22.3,15.3 23.5,15.3 23.5,14.2 			"/>
		</g>
		<rect x="17.9" y="14.2" fill="#B76E56" width="1.1" height="1.2"/>
		<rect x="23.5" y="13" fill="#B76E56" width="1.1" height="1.2"/>
		<rect x="21.2" y="13" fill="#B76E56" width="1.1" height="1.2"/>
		<rect x="19" y="13" fill="#B76E56" width="1.1" height="1.2"/>
		<g>
			<polygon fill="#6E4A57" points="21.2,21.2 20.1,21.2 19,21.2 19,22.4 20.1,22.4 21.2,22.4 22.3,22.4 23.5,22.4 23.5,21.2 
				22.3,21.2 			"/>
			<rect x="17.9" y="20" fill="#6E4A57" width="1.1" height="1.2"/>
			<polygon fill="#6E4A57" points="17.9,18.8 17.9,17.7 17.9,16.5 17.9,15.3 17.9,14.2 16.8,14.2 16.8,15.3 15.6,15.3 15.6,16.5 
				14.5,16.5 14.5,17.7 15.6,17.7 16.8,17.7 16.8,18.8 			"/>
			<rect x="23.5" y="14.2" fill="#6E4A57" width="1.1" height="1.2"/>
			<rect x="19" y="14.2" fill="#6E4A57" width="1.1" height="1.2"/>
			<rect x="22.3" y="13" fill="#6E4A57" width="1.1" height="1.2"/>
			<rect x="20.1" y="13" fill="#6E4A57" width="1.1" height="1.2"/>
			<rect x="17.9" y="13" fill="#6E4A57" width="1.1" height="1.2"/>
		</g>
		<g>
			<polygon fill="#8F4A21" points="22.3,31.7 21.2,31.7 20.1,31.7 19,31.7 17.9,31.7 17.9,32.9 17.9,34.1 17.9,35.2 19,35.2 
				20.1,35.2 21.2,35.2 22.3,35.2 23.5,35.2 23.5,34.1 23.5,32.9 23.5,31.7 			"/>
			<rect x="19" y="10.7" fill="#8F4A21" width="1.1" height="1.2"/>
		</g>
		<g>
			<polygon fill="#4586C6" points="26.8,42.2 26.8,43.4 25.7,43.4 25.7,44.6 25.7,45.7 26.8,45.7 26.8,44.6 27.9,44.6 27.9,43.4 
				27.9,42.2 			"/>
			<polygon fill="#4586C6" points="14.5,39.9 13.4,39.9 13.4,41.1 13.4,42.2 14.5,42.2 14.5,41.1 15.6,41.1 15.6,39.9 15.6,38.7 
				14.5,38.7 			"/>
			<polygon fill="#4586C6" points="26.8,27 26.8,25.9 26.8,24.7 25.7,24.7 25.7,23.5 24.6,23.5 24.6,24.7 23.5,24.7 22.3,24.7 
				22.3,25.9 22.3,27 21.2,27 21.2,25.9 20.1,25.9 20.1,24.7 19,24.7 19,23.5 17.9,23.5 16.8,23.5 16.8,24.7 15.6,24.7 15.6,25.9 
				15.6,27 16.8,27 16.8,28.2 17.9,28.2 17.9,29.4 17.9,30.5 17.9,31.7 19,31.7 20.1,31.7 21.2,31.7 22.3,31.7 23.5,31.7 23.5,30.5 
				23.5,29.4 23.5,28.2 24.6,28.2 24.6,27 25.7,27 			"/>
			<polygon fill="#4586C6" points="16.8,13 17.9,13 17.9,11.8 19,11.8 19,10.7 17.9,10.7 16.8,10.7 16.8,11.8 15.6,11.8 15.6,13 
				15.6,14.2 16.8,14.2 			"/>
		</g>
		<rect x="33.5" y="9.5" fill="#B54B26" width="1.1" height="1.2"/>
		<rect x="29" y="9.5" fill="#B54B26" width="1.1" height="1.2"/>
		<rect x="33.5" y="8.3" fill="#B54B26" width="1.1" height="1.2"/>
		<rect x="29" y="8.3" fill="#FFFFFF" width="1.1" height="1.2"/>
		<g>
			<polygon fill="#243F94" points="25.7,39.9 24.6,39.9 24.6,38.7 23.5,38.7 23.5,37.6 23.5,36.4 23.5,35.2 22.3,35.2 21.2,35.2 
				20.1,35.2 19,35.2 17.9,35.2 17.9,36.4 17.9,37.6 17.9,38.7 17.9,39.9 16.8,39.9 16.8,38.7 15.6,38.7 15.6,39.9 15.6,41.1 
				14.5,41.1 14.5,42.2 15.6,42.2 15.6,43.4 16.8,43.4 17.9,43.4 19,43.4 19,42.2 20.1,42.2 20.1,41.1 21.2,41.1 22.3,41.1 
				22.3,42.2 23.5,42.2 23.5,43.4 24.6,43.4 24.6,44.6 25.7,44.6 25.7,43.4 26.8,43.4 26.8,42.2 26.8,41.1 25.7,41.1 			"/>
			<rect x="23.5" y="23.5" fill="#243F94" width="1.1" height="1.2"/>
			<rect x="22.3" y="16.5" fill="#243F94" width="1.1" height="1.2"/>
			<rect x="20.1" y="16.5" fill="#243F94" width="1.1" height="1.2"/>
			<rect x="16.8" y="13" fill="#243F94" width="1.1" height="1.2"/>
			<polygon fill="#243F94" points="15.6,13 15.6,11.8 14.5,11.8 14.5,13 14.5,14.2 14.5,15.3 14.5,16.5 15.6,16.5 15.6,15.3 
				16.8,15.3 16.8,14.2 15.6,14.2 			"/>
			<polygon fill="#243F94" points="26.8,10.7 25.7,10.7 25.7,9.5 24.6,9.5 23.5,9.5 22.3,9.5 22.3,10.7 21.2,10.7 20.1,10.7 
				20.1,11.8 19,11.8 17.9,11.8 17.9,13 19,13 20.1,13 21.2,13 22.3,13 23.5,13 24.6,13 24.6,14.2 25.7,14.2 26.8,14.2 26.8,13 
				27.9,13 27.9,11.8 27.9,10.7 			"/>
			<rect x="15.6" y="10.7" fill="#243F94" width="1.1" height="1.2"/>
			<polygon fill="#243F94" points="19,10.7 19,9.5 17.9,9.5 16.8,9.5 16.8,10.7 17.9,10.7 			"/>
			<polygon fill="#243F94" points="21.2,9.5 22.3,9.5 22.3,8.3 21.2,8.3 20.1,8.3 19,8.3 19,9.5 20.1,9.5 			"/>
		</g>
		<rect x="33.5" y="7.2" fill="#B54B26" width="1.1" height="1.2"/>
		<g>
			<polygon fill="#F69120" points="20.1,9.5 19,9.5 19,10.7 20.1,10.7 21.2,10.7 22.3,10.7 22.3,9.5 21.2,9.5 			"/>
			<polygon fill="#F69120" points="36.9,7.2 35.8,7.2 34.6,7.2 34.6,8.3 34.6,9.5 34.6,10.7 34.6,11.8 35.8,11.8 36.9,11.8 38,11.8 
				38,10.7 38,9.5 38,8.3 38,7.2 			"/>
			<polygon fill="#F69120" points="32.4,8.3 31.3,8.3 30.2,8.3 30.2,9.5 31.3,9.5 31.3,10.7 31.3,11.8 31.3,13 31.3,14.2 31.3,15.3 
				31.3,16.5 31.3,17.7 31.3,18.8 31.3,20 31.3,21.2 32.4,21.2 32.4,20 32.4,18.8 32.4,17.7 33.5,17.7 33.5,16.5 33.5,15.3 
				33.5,14.2 33.5,13 33.5,11.8 33.5,10.7 33.5,9.5 33.5,8.3 33.5,7.2 32.4,7.2 			"/>
		</g>
		<rect x="31.3" y="7.2" fill="#FFFFFF" width="1.1" height="1.2"/>
		<rect x="30.2" y="7.2" fill="#FFFFFF" width="1.1" height="1.2"/>
		<rect x="36.9" y="6" fill="#FFFFFF" width="1.1" height="1.2"/>
		<rect x="35.8" y="6" fill="#FFFFFF" width="1.1" height="1.2"/>
		<rect x="34.6" y="6" fill="#FFFFFF" width="1.1" height="1.2"/>
	</g>
</g>
<g>
	<path fill="#FFFFFF" d="M16.4,71.8V52.7H10v-6.4h19.1v6.4h-6.4v19.1H16.4z"/>
	<path fill="#FFFFFF" d="M33.9,71.8v-3.2h-3.2V49.5h3.2v-3.2h12.7v3.2h3.2v19.1h-3.2v3.2H33.9z M43.4,65.4V52.7h-6.4v12.7H43.4z"/>
	<path fill="#FFFFFF" d="M54.6,71.8v-3.2h-3.2V49.5h3.2v-3.2h12.7v3.2h3.2v19.1h-3.2v3.2H54.6z M64.1,65.4V52.7h-6.4v12.7H64.1z"/>
	<path fill="#FFFFFF" d="M72,71.8V46.3h6.4v19.1h12.7v6.4H72z"/>
	<path fill="#FFFFFF" d="M92.7,71.8v-6.4h12.7v-3.2H92.7V49.5h3.2v-3.2h15.9v6.4H99.1v3.2h12.7v12.7h-3.2v3.2H92.7z"/>
	<path fill="#F69120" d="M118.1,65.4v-4.8h-4.8v-6.4h4.8v-4.8h6.4v4.8h4.8v6.4h-4.8v4.8H118.1z"/>
	<path fill="#F69120" d="M6.9,102.3V76.8H26v6.4H13.2v12.7H26v6.4H6.9z"/>
	<path fill="#F69120" d="M30.7,102.3v-3.2h-3.2V80h3.2v-3.2h12.7V80h3.2v19.1h-3.2v3.2H30.7z M40.3,95.9V83.2h-6.4v12.7H40.3z"/>
	<path fill="#F69120" d="M48.2,102.3V76.8h6.4V80h3.2v3.2h3.2v-6.4h6.4v25.5h-6.4V89.6h-3.2v-3.2h-3.2v15.9H48.2z"/>
	<path fill="#F69120" d="M68.8,102.3V76.8h19.1v6.4H75.2v3.2h9.5v6.4h-9.5v9.5H68.8z"/>
	<path fill="#F69120" d="M89.5,102.3v-6.4h6.4V83.2h-6.4v-6.4h19.1v6.4h-6.4v12.7h6.4v6.4H89.5z"/>
	<path fill="#F69120" d="M113.4,102.3v-3.2h-3.2V80h3.2v-3.2h15.9v6.4h-12.7v12.7h6.4v-6.4h6.4v12.7H113.4z"/>
</g>
</svg>
