<?xml version="1.0" encoding="utf-8"?>
<!-- Generator: Adobe Illustrator 18.1.1, SVG Export Plug-In . SVG Version: 6.00 Build 0)  -->
<svg version="1.1" id="Layer_1" xmlns="http://www.w3.org/2000/svg" xmlns:xlink="http://www.w3.org/1999/xlink" x="0px" y="0px"
	 viewBox="0 0 136.9 109.5" enable-background="new 0 0 136.9 109.5" xml:space="preserve">
<g>
	<rect x="2.2" y="2.1" fill="#0F1041" width="132.5" height="105.3"/>
	<rect x="2.2" y="2.1" fill="#1A1751" width="132.5" height="54.5"/>
	<rect x="2.2" y="89.5" fill="#0A0B14" width="132.5" height="18"/>
	<rect x="2.2" y="3" fill="#0F1041" width="132.5" height="18"/>
	<rect x="2.2" y="2.1" fill="none" stroke="#7E69AE" stroke-width="4" stroke-miterlimit="10" width="132.5" height="105.3"/>
	<g>
		<g>
			<path fill="#FF7830" d="M15.5,55.2V32.1h5.8v17.3h11.6v5.8H15.5z"/>
			<path fill="#FF7830" d="M34.3,55.2V35h2.9v-2.9h11.6V35h2.9v20.2h-5.8v-5.8h-5.8v5.8H34.3z M45.9,43.6v-5.8h-5.8v5.8H45.9z"/>
			<path fill="#FF7830" d="M53.1,55.2v-5.8h11.6v-2.9H53.1V35H56v-2.9h14.5v5.8H58.9v2.9h11.6v11.6h-2.9v2.9H53.1z"/>
			<path fill="#FF7830" d="M77.6,55.2V37.9h-5.8v-5.8h17.3v5.8h-5.8v17.3H77.6z"/>
		</g>
		<g>
			<path fill="#FF7830" d="M15.5,83V59.8H30v2.9h2.9v11.6H30v2.9h-8.7V83H15.5z M27.1,71.4v-5.8h-5.8v5.8H27.1z"/>
			<path fill="#FF7830" d="M34.3,83V59.8h5.8v17.3h11.6V83H34.3z"/>
			<path fill="#FF7830" d="M53.1,83V62.7H56v-2.9h11.6v2.9h2.9V83h-5.8v-5.8h-5.8V83H53.1z M64.6,71.4v-5.8h-5.8v5.8H64.6z"/>
			<path fill="#FF7830" d="M77.6,83v-8.7l-5.8-5.8v-8.7h5.8v5.8l2.9,2.9l2.9-2.9v-5.8h5.8v8.7l-5.8,5.8V83H77.6z"/>
			<path fill="#FF7830" d="M90.6,83V59.8H108v5.8H96.4v2.9h8.7v5.8h-8.7v2.9H108V83H90.6z"/>
			<path fill="#FF7830" d="M109.4,83V59.8h14.5v2.9h2.9v17.3h-2.9V83H109.4z M121,77.2V65.6h-5.8v11.6H121z"/>
		</g>
	</g>
	<g>
		<g>
			<path fill="#FFFFFF" d="M15.5,52.2V29.1h5.8v17.3h11.6v5.8H15.5z"/>
			<path fill="#FFFFFF" d="M34.3,52.2V32h2.9v-2.9h11.6V32h2.9v20.2h-5.8v-5.8h-5.8v5.8H34.3z M45.9,40.6v-5.8h-5.8v5.8H45.9z"/>
			<path fill="#FFFFFF" d="M53.1,52.2v-5.8h11.6v-2.9H53.1V32H56v-2.9h14.5v5.8H58.9v2.9h11.6v11.6h-2.9v2.9H53.1z"/>
			<path fill="#FFFFFF" d="M77.6,52.2V34.9h-5.8v-5.8h17.3v5.8h-5.8v17.3H77.6z"/>
		</g>
		<g>
			<path fill="#FFFFFF" d="M15.5,80V56.8H30v2.9h2.9v11.6H30v2.9h-8.7V80H15.5z M27.1,68.4v-5.8h-5.8v5.8H27.1z"/>
			<path fill="#FFFFFF" d="M34.3,80V56.8h5.8v17.3h11.6V80H34.3z"/>
			<path fill="#FFFFFF" d="M53.1,80V59.7H56v-2.9h11.6v2.9h2.9V80h-5.8v-5.8h-5.8V80H53.1z M64.6,68.4v-5.8h-5.8v5.8H64.6z"/>
			<path fill="#FFFFFF" d="M77.6,80v-8.7l-5.8-5.8v-8.7h5.8v5.8l2.9,2.9l2.9-2.9v-5.8h5.8v8.7l-5.8,5.8V80H77.6z"/>
			<path fill="#FFFFFF" d="M90.6,80V56.8H108v5.8H96.4v2.9h8.7v5.8h-8.7v2.9H108V80H90.6z"/>
			<path fill="#FFFFFF" d="M109.4,80V56.8h14.5v2.9h2.9v17.3h-2.9V80H109.4z M121,74.2V62.6h-5.8v11.6H121z"/>
		</g>
	</g>
	<g id="ERWm54_2_">
		<g>
			<polygon fill="#FFFFFF" points="104.5,24.3 104.5,27.4 104.5,30.5 104.5,33.7 104.5,36.8 104.5,39.9 107.6,39.9 107.6,36.8 
				107.6,33.7 107.6,30.5 107.6,27.4 107.6,24.3 			"/>
			<g>
				<rect x="113.9" y="46.1" fill="#E05000" width="3.1" height="3.1"/>
				<polygon fill="#E05000" points="117,43 117,46.1 120.1,46.1 120.1,43 120.1,39.9 117,39.9 				"/>
				<rect x="107.6" y="39.9" fill="#E05000" width="3.1" height="3.1"/>
				<polygon fill="#E05000" points="113.9,36.8 113.9,33.7 113.9,30.5 113.9,27.4 113.9,24.3 110.7,24.3 110.7,27.4 110.7,30.5 
					110.7,33.7 110.7,36.8 110.7,39.9 113.9,39.9 				"/>
				<polygon fill="#E05000" points="120.1,21.2 120.1,24.3 120.1,27.4 120.1,30.5 120.1,33.7 120.1,36.8 120.1,39.9 123.2,39.9 
					123.2,36.8 123.2,33.7 123.2,30.5 123.2,27.4 123.2,24.3 123.2,21.2 				"/>
				<rect x="117" y="18.1" fill="#E05000" width="3.1" height="3.1"/>
				<rect x="113.9" y="15" fill="#E05000" width="3.1" height="3.1"/>
			</g>
			<path fill="#FF7830" d="M117,21.2v-3.1h-3.1V15h-3.1h-3.1h-3.1v3.1h-3.1v3.1v3.1h-3.1v3.1v3.1v3.1v3.1v3.1h3.1V43v3.1h3.1v3.1
				h3.1h3.1h3.1v-3.1h3.1V43v-3.1h3.1v-3.1v-3.1v-3.1v-3.1v-3.1v-3.1H117z M110.7,39.9V43h-3.1v-3.1h-3.1v-3.1v-3.1v-3.1v-3.1v-3.1
				h3.1v3.1v3.1v3.1v3.1v3.1H110.7v-3.1v-3.1v-3.1v-3.1v-3.1h3.1v3.1v3.1v3.1v3.1v3.1H110.7z"/>
			<path d="M123.2,18.1V15h-3.1v-3.1H117h-3.1h-3.1h-3.1h-3.1h-3.1V15h-3.1v3.1v3.1h-3.1v3.1v3.1v3.1v3.1v3.1v3.1V43h3.1v3.1v3.1
				h3.1v3.1h3.1h3.1h3.1h3.1h3.1h3.1v-3.1h3.1v-3.1V43h3.1v-3.1v-3.1v-3.1v-3.1v-3.1v-3.1v-3.1v-3.1H123.2z M123.2,24.3v3.1v3.1v3.1
				v3.1v3.1h-3.1V43v3.1H117v3.1h-3.1h-3.1h-3.1h-3.1v-3.1h-3.1V43v-3.1h-3.1v-3.1v-3.1v-3.1v-3.1v-3.1h3.1v-3.1v-3.1h3.1V15h3.1
				h3.1h3.1h3.1v3.1h3.1v3.1h3.1V24.3z"/>
		</g>
	</g>
</g>
</svg>
