<?xml version="1.0" encoding="utf-8"?>
<!-- Generator: Adobe Illustrator 18.1.1, SVG Export Plug-In . SVG Version: 6.00 Build 0)  -->
<svg version="1.1" id="Layer_1" xmlns="http://www.w3.org/2000/svg" xmlns:xlink="http://www.w3.org/1999/xlink" x="0px" y="0px"
	 viewBox="0 0 296.1 35.1" enable-background="new 0 0 296.1 35.1" xml:space="preserve">
<g>
	<path fill="#FFFFFF" d="M0,35.1V0h8.8v26.3h17.6v8.8H0z"/>
	<path fill="#FFFFFF" d="M28.5,35.1V4.4h4.4V0h17.6v4.4h4.4v30.7h-8.8v-8.8h-8.8v8.8H28.5z M46.1,17.6V8.8h-8.8v8.8H46.1z"/>
	<path fill="#FFFFFF" d="M57,35.1v-8.8h17.6V22H57V4.4h4.4V0h22v8.8H65.8v4.4h17.6v17.6H79v4.4H57z"/>
	<path fill="#FFFFFF" d="M94.3,35.1V8.8h-8.8V0h26.3v8.8h-8.8v26.3H94.3z"/>
	<path fill="#FFFFFF" d="M127.2,35.1V0h22v4.4h4.4V22h-4.4v4.4H136v8.8H127.2z M144.7,17.6V8.8H136v8.8H144.7z"/>
	<path fill="#FFFFFF" d="M155.7,35.1V0h8.8v26.3H182v8.8H155.7z"/>
	<path fill="#FFFFFF" d="M184.2,35.1V4.4h4.4V0h17.6v4.4h4.4v30.7h-8.8v-8.8H193v8.8H184.2z M201.8,17.6V8.8H193v8.8H201.8z"/>
	<path fill="#FFFFFF" d="M221.5,35.1V22l-8.8-8.8V0h8.8v8.8l4.4,4.4l4.4-4.4V0h8.8v13.2l-8.8,8.8v13.2H221.5z"/>
	<path fill="#FFFFFF" d="M241.2,35.1V0h26.3v8.8H250v4.4h13.2V22H250v4.4h17.6v8.8H241.2z"/>
	<path fill="#FFFFFF" d="M269.7,35.1V0h22v4.4h4.4v26.3h-4.4v4.4H269.7z M287.3,26.3V8.8h-8.8v17.6H287.3z"/>
</g>
</svg>
