<?xml version="1.0" encoding="utf-8"?>
<!-- Generator: Adobe Illustrator 18.1.1, SVG Export Plug-In . SVG Version: 6.00 Build 0)  -->
<svg version="1.1" id="Layer_1" xmlns="http://www.w3.org/2000/svg" xmlns:xlink="http://www.w3.org/1999/xlink" x="0px" y="0px"
	 viewBox="0 0 380.9 130.2" enable-background="new 0 0 380.9 130.2" xml:space="preserve">
<g id="ceMqAv_1_">
	<g>
		<polygon fill="#F68E20" points="120.6,69.2 118.4,69.2 116.3,69.2 114.1,69.2 111.9,69.2 109.7,69.2 107.6,69.2 105.4,69.2 
			103.2,69.2 101,69.2 98.9,69.2 98.9,71.4 98.9,73.5 101,73.5 103.2,73.5 105.4,73.5 107.6,73.5 109.7,73.5 111.9,73.5 114.1,73.5 
			116.3,73.5 118.4,73.5 120.6,73.5 122.8,73.5 122.8,71.4 122.8,69.2 		"/>
		<g>
			<polygon fill="#F68E20" points="61.9,86.6 59.7,86.6 57.6,86.6 55.4,86.6 53.2,86.6 53.2,84.4 53.2,82.2 53.2,80.1 53.2,77.9 
				53.2,75.7 53.2,73.5 53.2,71.4 53.2,69.2 53.2,67 53.2,64.8 53.2,62.7 53.2,60.5 53.2,58.3 53.2,56.1 53.2,54 53.2,51.8 
				53.2,49.6 53.2,47.4 53.2,45.3 53.2,43.1 53.2,40.9 53.2,38.7 53.2,36.6 53.2,34.4 53.2,32.2 53.2,30 53.2,27.9 53.2,25.7 
				53.2,23.5 53.2,21.4 51,21.4 48.9,21.4 46.7,21.4 44.5,21.4 42.4,21.4 40.2,21.4 38,21.4 35.8,21.4 33.7,21.4 31.5,21.4 
				29.3,21.4 27.1,21.4 25,21.4 25,23.5 25,25.7 27.1,25.7 27.1,27.9 27.1,30 29.3,30 29.3,32.2 31.5,32.2 31.5,34.4 33.7,34.4 
				35.8,34.4 35.8,32.2 38,32.2 38,30 40.2,30 40.2,32.2 40.2,34.4 40.2,36.6 40.2,38.7 40.2,40.9 40.2,43.1 40.2,45.3 40.2,47.4 
				40.2,49.6 40.2,51.8 40.2,54 40.2,56.1 40.2,58.3 40.2,60.5 40.2,62.7 40.2,64.8 40.2,67 40.2,69.2 40.2,71.4 40.2,73.5 
				40.2,75.7 40.2,77.9 38,77.9 35.8,77.9 33.7,77.9 31.5,77.9 29.3,77.9 27.1,77.9 27.1,80.1 27.1,82.2 27.1,84.4 27.1,86.6 
				27.1,88.8 27.1,90.9 27.1,93.1 27.1,95.3 29.3,95.3 31.5,95.3 33.7,95.3 35.8,95.3 38,95.3 40.2,95.3 42.4,95.3 44.5,95.3 
				46.7,95.3 48.9,95.3 51,95.3 53.2,95.3 55.4,95.3 57.6,95.3 59.7,95.3 61.9,95.3 64.1,95.3 66.3,95.3 66.3,93.1 66.3,90.9 
				66.3,88.8 66.3,86.6 64.1,86.6 			"/>
			<polygon fill="#F68E20" points="355.4,75.7 353.2,75.7 351.1,75.7 348.9,75.7 346.7,75.7 344.5,75.7 342.4,75.7 340.2,75.7 
				340.2,77.9 338,77.9 335.9,77.9 333.7,77.9 331.5,77.9 329.3,77.9 327.2,77.9 325,77.9 325,80.1 325,82.2 325,84.4 322.8,84.4 
				320.6,84.4 318.5,84.4 316.3,84.4 314.1,84.4 311.9,84.4 309.8,84.4 307.6,84.4 307.6,82.2 307.6,80.1 309.8,80.1 311.9,80.1 
				311.9,77.9 314.1,77.9 316.3,77.9 318.5,77.9 318.5,75.7 318.5,73.5 318.5,71.4 318.5,69.2 320.6,69.2 320.6,67 322.8,67 325,67 
				325,64.8 327.2,64.8 329.3,64.8 329.3,62.7 331.5,62.7 333.7,62.7 333.7,60.5 335.9,60.5 338,60.5 340.2,60.5 340.2,58.3 
				342.4,58.3 344.5,58.3 344.5,56.1 346.7,56.1 348.9,56.1 348.9,54 351.1,54 353.2,54 355.4,54 355.4,51.8 355.4,49.6 355.4,47.4 
				355.4,45.3 355.4,43.1 355.4,40.9 355.4,38.7 355.4,36.6 355.4,34.4 355.4,32.2 353.2,32.2 353.2,30 351.1,30 351.1,27.9 
				348.9,27.9 348.9,25.7 346.7,25.7 346.7,23.5 344.5,23.5 344.5,21.4 342.4,21.4 340.2,21.4 338,21.4 335.9,21.4 333.7,21.4 
				331.5,21.4 329.3,21.4 327.2,21.4 325,21.4 322.8,21.4 320.6,21.4 318.5,21.4 316.3,21.4 314.1,21.4 311.9,21.4 309.8,21.4 
				307.6,21.4 305.4,21.4 303.2,21.4 301.1,21.4 298.9,21.4 296.7,21.4 294.5,21.4 294.5,23.5 294.5,25.7 294.5,27.9 294.5,30 
				294.5,32.2 294.5,34.4 294.5,36.6 294.5,38.7 294.5,40.9 296.7,40.9 298.9,40.9 301.1,40.9 303.2,40.9 305.4,40.9 307.6,40.9 
				309.8,40.9 311.9,40.9 314.1,40.9 316.3,40.9 316.3,38.7 316.3,36.6 316.3,34.4 316.3,32.2 316.3,30 318.5,30 320.6,30 322.8,30 
				325,30 327.2,30 329.3,30 331.5,30 333.7,30 335.9,30 338,30 340.2,30 340.2,32.2 340.2,34.4 340.2,36.6 340.2,38.7 340.2,40.9 
				340.2,43.1 340.2,45.3 338,45.3 335.9,45.3 333.7,45.3 333.7,47.4 331.5,47.4 329.3,47.4 329.3,49.6 327.2,49.6 325,49.6 
				325,51.8 322.8,51.8 322.8,54 320.6,54 318.5,54 316.3,54 316.3,56.1 314.1,56.1 311.9,56.1 311.9,58.3 309.8,58.3 307.6,58.3 
				305.4,58.3 305.4,60.5 303.2,60.5 301.1,60.5 301.1,62.7 298.9,62.7 296.7,62.7 294.5,62.7 294.5,64.8 294.5,67 294.5,69.2 
				294.5,71.4 294.5,73.5 294.5,75.7 294.5,77.9 294.5,80.1 294.5,82.2 294.5,84.4 294.5,86.6 294.5,88.8 294.5,90.9 294.5,93.1 
				294.5,95.3 296.7,95.3 298.9,95.3 301.1,95.3 303.2,95.3 305.4,95.3 307.6,95.3 309.8,95.3 311.9,95.3 314.1,95.3 316.3,95.3 
				318.5,95.3 320.6,95.3 322.8,95.3 325,95.3 327.2,95.3 329.3,95.3 331.5,95.3 333.7,95.3 335.9,95.3 338,95.3 340.2,95.3 
				342.4,95.3 344.5,95.3 346.7,95.3 348.9,95.3 351.1,95.3 353.2,95.3 355.4,95.3 357.6,95.3 357.6,93.1 357.6,90.9 357.6,88.8 
				357.6,86.6 357.6,84.4 357.6,82.2 357.6,80.1 357.6,77.9 357.6,75.7 			"/>
			<path fill="#F68E20" d="M255.4,67h-2.2h-2.2h-2.2v-2.2v-2.2v-2.2v-2.2v-2.2V54v-2.2v-2.2v-2.2v-2.2v-2.2v-2.2v-2.2v-2.2v-2.2
				v-2.2V30v-2.2v-2.2v-2.2v-2.2h-2.2h-2.2h-2.2h-2.2H238h-2.2h-2.2h-2.2h-2.2h-2.2H225h-2.2h-2.2h-2.2h-2.2h-2.2h-2.2h-2.2v2.2
				h-2.2v2.2v2.2h-2.2V30h-2.2v2.2v2.2h-2.2v2.2h-2.2v2.2v2.2h-2.2v2.2v2.2h-2.2v2.2v2.2h-2.2v2.2h-2.2V54v2.2v2.2v2.2v2.2v2.2V67
				v2.2h2.2h2.2h2.2h2.2h2.2h2.2h2.2h2.2h2.2h2.2h2.2h2.2h2.2h2.2h2.2h2.2h2.2h2.2h2.2v2.2v2.2v2.2v2.2h-2.2h-2.2H225h-2.2v2.2v2.2
				v2.2v2.2v2.2v2.2v2.2v2.2h2.2h2.2h2.2h2.2h2.2h2.2h2.2h2.2h2.2h2.2h2.2h2.2h2.2h2.2h2.2h2.2h2.2v-2.2v-2.2v-2.2v-2.2h-2.2h-2.2
				h-2.2h-2.2h-2.2v-2.2v-2.2v-2.2h2.2h2.2h2.2h2.2h2.2v-2.2v-2.2v-2.2v-2.2v-2.2V67h-2.2H255.4z M214.1,67h-2.2h-2.2h-2.2h-2.2
				h-2.2v-2.2h2.2v-2.2h2.2v-2.2v-2.2h2.2v-2.2h2.2V54v-2.2h2.2v-2.2h2.2h2.2v-2.2v-2.2h2.2v-2.2h2.2v-2.2v-2.2h2.2v-2.2v-2.2h2.2
				v-2.2V30h2.2v-2.2v-2.2h2.2v2.2V30v2.2v2.2v2.2v2.2v2.2v2.2v2.2v2.2v2.2v2.2V54v2.2v2.2h-2.2h-2.2H225h-2.2h-2.2h-2.2h-2.2v2.2
				v2.2v2.2V67H214.1z"/>
			<polygon fill="#F68E20" points="222.8,56.1 225,56.1 227.1,56.1 229.3,56.1 229.3,54 229.3,51.8 229.3,49.6 229.3,47.4 
				229.3,45.3 229.3,43.1 229.3,40.9 229.3,38.7 229.3,36.6 227.1,36.6 227.1,38.7 227.1,40.9 225,40.9 225,43.1 225,45.3 
				222.8,45.3 222.8,47.4 220.6,47.4 220.6,49.6 220.6,51.8 218.4,51.8 218.4,54 218.4,56.1 220.6,56.1 			"/>
			<path fill="#F68E20" d="M157.6,32.2h-2.2V30h-2.2v-2.2h-2.2v-2.2h-2.2v-2.2h-2.2v-2.2h-2.2h-2.2h-2.2H138h-2.2h-2.2h-2.2h-2.2
				h-2.2H125h-2.2h-2.2h-2.2h-2.2h-2.2h-2.2h-2.2h-2.2h-2.2h-2.2H101v2.2h-2.2v2.2h-2.2v2.2V30v2.2v2.2v2.2v2.2v2.2v2.2v2.2v2.2h2.2
				v2.2h2.2v2.2h2.2V54h2.2v2.2h2.2v2.2h2.2v2.2h2.2h2.2h2.2h2.2h2.2h2.2h2.2h2.2h2.2h2.2h2.2h2.2h2.2h2.2h2.2v2.2v2.2V67v2.2v2.2
				v2.2v2.2v2.2h-2.2H138h-2.2h-2.2h-2.2h-2.2h-2.2v2.2v2.2v2.2H125h-2.2h-2.2h-2.2h-2.2h-2.2v-2.2v-2.2v-2.2h-2.2h-2.2h-2.2h-2.2
				h-2.2H101h-2.2v2.2v2.2v2.2v2.2v2.2v2.2v2.2v2.2h2.2h2.2h2.2h2.2h2.2h2.2h2.2h2.2h2.2h2.2h2.2h2.2h2.2h2.2h2.2h2.2h2.2h2.2h2.2
				h2.2h2.2h2.2h2.2h2.2h2.2h2.2h2.2v-2.2h2.2v-2.2v-2.2v-2.2v-2.2v-2.2v-2.2v-2.2v-2.2v-2.2v-2.2v-2.2V67v-2.2v-2.2v-2.2v-2.2v-2.2
				V54v-2.2v-2.2v-2.2v-2.2v-2.2v-2.2v-2.2v-2.2v-2.2h-2.2V32.2z M142.4,30v2.2v2.2v2.2v2.2v2.2v2.2h-2.2H138h-2.2h-2.2h-2.2h-2.2
				h-2.2v2.2v2.2v2.2v2.2H125h-2.2h-2.2h-2.2h-2.2h-2.2v-2.2v-2.2v-2.2v-2.2v-2.2h2.2h2.2h2.2h2.2v-2.2v-2.2v-2.2v-2.2V30v-2.2h2.2
				h2.2h2.2h2.2h2.2h2.2h2.2h2.2h2.2V30z"/>
			<polygon fill="#F68E20" points="135.8,30 133.7,30 131.5,30 129.3,30 127.1,30 125,30 125,32.2 125,34.4 125,36.6 125,38.7 
				125,40.9 127.1,40.9 129.3,40.9 131.5,40.9 133.7,40.9 135.8,40.9 138,40.9 140.2,40.9 140.2,38.7 140.2,36.6 140.2,34.4 
				140.2,32.2 140.2,30 138,30 			"/>
		</g>
		<g>
			<polygon fill="#BB2127" points="355.4,97.4 353.2,97.4 351.1,97.4 348.9,97.4 346.7,97.4 344.5,97.4 342.4,97.4 340.2,97.4 
				338,97.4 335.9,97.4 333.7,97.4 331.5,97.4 329.3,97.4 327.2,97.4 325,97.4 322.8,97.4 320.6,97.4 318.5,97.4 316.3,97.4 
				314.1,97.4 311.9,97.4 309.8,97.4 307.6,97.4 305.4,97.4 303.2,97.4 301.1,97.4 298.9,97.4 296.7,97.4 294.5,97.4 292.4,97.4 
				290.2,97.4 290.2,95.3 290.2,93.1 290.2,90.9 290.2,88.8 290.2,86.6 290.2,84.4 290.2,82.2 290.2,80.1 290.2,77.9 290.2,75.7 
				290.2,73.5 290.2,71.4 290.2,69.2 290.2,67 290.2,64.8 288,64.8 288,67 285.8,67 283.7,67 281.5,67 281.5,69.2 279.3,69.2 
				277.1,69.2 277.1,71.4 277.1,73.5 277.1,75.7 277.1,77.9 277.1,80.1 277.1,82.2 277.1,84.4 277.1,86.6 277.1,88.8 277.1,90.9 
				277.1,93.1 277.1,95.3 277.1,97.4 277.1,99.6 277.1,101.8 277.1,104 277.1,106.1 277.1,108.3 279.3,108.3 281.5,108.3 
				283.7,108.3 285.8,108.3 288,108.3 290.2,108.3 292.4,108.3 294.5,108.3 296.7,108.3 298.9,108.3 301.1,108.3 303.2,108.3 
				305.4,108.3 307.6,108.3 309.8,108.3 311.9,108.3 314.1,108.3 316.3,108.3 318.5,108.3 320.6,108.3 322.8,108.3 325,108.3 
				327.2,108.3 329.3,108.3 331.5,108.3 333.7,108.3 335.9,108.3 338,108.3 340.2,108.3 342.4,108.3 344.5,108.3 346.7,108.3 
				348.9,108.3 351.1,108.3 353.2,108.3 355.4,108.3 357.6,108.3 357.6,106.1 357.6,104 357.6,101.8 357.6,99.6 357.6,97.4 			"/>
			<polygon fill="#BB2127" points="255.4,97.4 253.2,97.4 251.1,97.4 248.9,97.4 246.7,97.4 244.5,97.4 242.4,97.4 240.2,97.4 
				238,97.4 235.8,97.4 233.7,97.4 231.5,97.4 229.3,97.4 227.1,97.4 225,97.4 222.8,97.4 220.6,97.4 218.4,97.4 218.4,95.3 
				218.4,93.1 218.4,90.9 218.4,88.8 218.4,86.6 218.4,84.4 218.4,82.2 218.4,80.1 218.4,77.9 218.4,75.7 220.6,75.7 222.8,75.7 
				225,75.7 227.1,75.7 229.3,75.7 229.3,73.5 229.3,71.4 227.1,71.4 225,71.4 222.8,71.4 220.6,71.4 218.4,71.4 216.3,71.4 
				214.1,71.4 211.9,71.4 209.8,71.4 207.6,71.4 205.4,71.4 203.2,71.4 201.1,71.4 198.9,71.4 196.7,71.4 194.5,71.4 192.4,71.4 
				190.2,71.4 188,71.4 188,69.2 188,67 188,64.8 188,62.7 188,60.5 188,58.3 188,56.1 188,54 188,51.8 188,49.6 190.2,49.6 
				190.2,47.4 190.2,45.3 192.4,45.3 192.4,43.1 192.4,40.9 194.5,40.9 194.5,38.7 196.7,38.7 196.7,36.6 196.7,34.4 198.9,34.4 
				198.9,32.2 201.1,32.2 201.1,30 201.1,27.9 203.2,27.9 203.2,25.7 203.2,23.5 205.4,23.5 205.4,21.4 203.2,21.4 201.1,21.4 
				201.1,23.5 198.9,23.5 198.9,25.7 196.7,25.7 196.7,27.9 196.7,30 194.5,30 194.5,32.2 194.5,34.4 192.4,34.4 192.4,36.6 
				190.2,36.6 190.2,38.7 188,38.7 188,40.9 188,43.1 185.8,43.1 185.8,45.3 183.7,45.3 183.7,47.4 183.7,49.6 181.5,49.6 
				181.5,51.8 181.5,54 179.3,54 179.3,56.1 177.1,56.1 177.1,58.3 177.1,60.5 175,60.5 175,62.7 175,64.8 175,67 175,69.2 
				175,71.4 175,73.5 175,75.7 175,77.9 175,80.1 177.1,80.1 179.3,80.1 181.5,80.1 183.7,80.1 185.8,80.1 188,80.1 190.2,80.1 
				192.4,80.1 194.5,80.1 196.7,80.1 198.9,80.1 201.1,80.1 203.2,80.1 205.4,80.1 207.6,80.1 209.8,80.1 211.9,80.1 214.1,80.1 
				216.3,80.1 216.3,82.2 216.3,84.4 216.3,86.6 214.1,86.6 211.9,86.6 209.8,86.6 207.6,86.6 205.4,86.6 205.4,88.8 205.4,90.9 
				205.4,93.1 205.4,95.3 205.4,97.4 205.4,99.6 205.4,101.8 205.4,104 205.4,106.1 205.4,108.3 207.6,108.3 209.8,108.3 
				211.9,108.3 214.1,108.3 216.3,108.3 218.4,108.3 220.6,108.3 222.8,108.3 225,108.3 227.1,108.3 229.3,108.3 231.5,108.3 
				233.7,108.3 235.8,108.3 238,108.3 240.2,108.3 242.4,108.3 244.5,108.3 246.7,108.3 248.9,108.3 251.1,108.3 253.2,108.3 
				255.4,108.3 257.6,108.3 259.8,108.3 259.8,106.1 259.8,104 259.8,101.8 259.8,99.6 259.8,97.4 257.6,97.4 			"/>
			<polygon fill="#BB2127" points="151.1,97.4 148.9,97.4 146.7,97.4 144.5,97.4 142.4,97.4 140.2,97.4 138,97.4 135.8,97.4 
				133.7,97.4 131.5,97.4 129.3,97.4 127.1,97.4 125,97.4 122.8,97.4 120.6,97.4 118.4,97.4 116.3,97.4 114.1,97.4 111.9,97.4 
				109.7,97.4 107.6,97.4 105.4,97.4 103.2,97.4 101,97.4 98.9,97.4 96.7,97.4 94.5,97.4 94.5,95.3 94.5,93.1 94.5,90.9 94.5,88.8 
				94.5,86.6 94.5,84.4 94.5,82.2 94.5,80.1 94.5,77.9 92.4,77.9 90.2,77.9 88,77.9 85.8,77.9 83.7,77.9 81.5,77.9 81.5,80.1 
				81.5,82.2 81.5,84.4 81.5,86.6 81.5,88.8 81.5,90.9 81.5,93.1 81.5,95.3 81.5,97.4 81.5,99.6 81.5,101.8 81.5,104 81.5,106.1 
				81.5,108.3 83.7,108.3 85.8,108.3 88,108.3 90.2,108.3 92.4,108.3 94.5,108.3 96.7,108.3 98.9,108.3 101,108.3 103.2,108.3 
				105.4,108.3 107.6,108.3 109.7,108.3 111.9,108.3 114.1,108.3 116.3,108.3 118.4,108.3 120.6,108.3 122.8,108.3 125,108.3 
				127.1,108.3 129.3,108.3 131.5,108.3 133.7,108.3 135.8,108.3 138,108.3 140.2,108.3 142.4,108.3 144.5,108.3 146.7,108.3 
				146.7,106.1 148.9,106.1 148.9,104 151.1,104 151.1,101.8 153.2,101.8 153.2,99.6 155.4,99.6 155.4,97.4 153.2,97.4 			"/>
			<polygon fill="#BB2127" points="61.9,97.4 59.7,97.4 57.6,97.4 55.4,97.4 53.2,97.4 51,97.4 48.9,97.4 46.7,97.4 44.5,97.4 
				42.4,97.4 40.2,97.4 38,97.4 35.8,97.4 33.7,97.4 31.5,97.4 29.3,97.4 27.1,97.4 25,97.4 22.8,97.4 22.8,95.3 22.8,93.1 
				22.8,90.9 22.8,88.8 22.8,86.6 20.6,86.6 18.4,86.6 16.3,86.6 14.1,86.6 11.9,86.6 9.7,86.6 9.7,88.8 9.7,90.9 9.7,93.1 
				9.7,95.3 9.7,97.4 9.7,99.6 9.7,101.8 9.7,104 9.7,106.1 9.7,108.3 11.9,108.3 14.1,108.3 16.3,108.3 18.4,108.3 20.6,108.3 
				22.8,108.3 25,108.3 27.1,108.3 29.3,108.3 31.5,108.3 33.7,108.3 35.8,108.3 38,108.3 40.2,108.3 42.4,108.3 44.5,108.3 
				46.7,108.3 48.9,108.3 51,108.3 53.2,108.3 55.4,108.3 57.6,108.3 59.7,108.3 61.9,108.3 64.1,108.3 66.3,108.3 66.3,106.1 
				66.3,104 66.3,101.8 66.3,99.6 66.3,97.4 64.1,97.4 			"/>
			<polygon fill="#BB2127" points="322.8,73.5 325,73.5 327.2,73.5 327.2,71.4 329.3,71.4 331.5,71.4 333.7,71.4 333.7,69.2 
				335.9,69.2 338,69.2 338,67 340.2,67 342.4,67 342.4,64.8 344.5,64.8 346.7,64.8 348.9,64.8 348.9,62.7 351.1,62.7 353.2,62.7 
				353.2,60.5 355.4,60.5 355.4,58.3 355.4,56.1 353.2,56.1 353.2,58.3 351.1,58.3 348.9,58.3 346.7,58.3 346.7,60.5 344.5,60.5 
				342.4,60.5 342.4,62.7 340.2,62.7 338,62.7 335.9,62.7 335.9,64.8 333.7,64.8 331.5,64.8 331.5,67 329.3,67 327.2,67 327.2,69.2 
				325,69.2 322.8,69.2 322.8,71.4 320.6,71.4 320.6,73.5 320.6,75.7 322.8,75.7 			"/>
			<polygon fill="#BB2127" points="83.7,62.7 85.8,62.7 85.8,64.8 88,64.8 88,67 90.2,67 90.2,69.2 92.4,69.2 92.4,71.4 94.5,71.4 
				94.5,69.2 94.5,67 96.7,67 98.9,67 101,67 103.2,67 105.4,67 107.6,67 109.7,67 111.9,67 114.1,67 116.3,67 118.4,67 120.6,67 
				122.8,67 125,67 127.1,67 127.1,69.2 127.1,71.4 127.1,73.5 127.1,75.7 129.3,75.7 131.5,75.7 133.7,75.7 135.8,75.7 138,75.7 
				140.2,75.7 140.2,73.5 140.2,71.4 140.2,69.2 140.2,67 140.2,64.8 140.2,62.7 138,62.7 135.8,62.7 133.7,62.7 131.5,62.7 
				129.3,62.7 127.1,62.7 125,62.7 122.8,62.7 120.6,62.7 118.4,62.7 116.3,62.7 114.1,62.7 111.9,62.7 109.7,62.7 107.6,62.7 
				107.6,60.5 105.4,60.5 105.4,58.3 103.2,58.3 103.2,56.1 101,56.1 101,54 98.9,54 98.9,51.8 96.7,51.8 96.7,49.6 94.5,49.6 
				94.5,47.4 94.5,45.3 94.5,43.1 94.5,40.9 94.5,38.7 94.5,36.6 94.5,34.4 94.5,32.2 94.5,30 94.5,27.9 94.5,25.7 94.5,23.5 
				92.4,23.5 92.4,25.7 90.2,25.7 90.2,27.9 88,27.9 88,30 85.8,30 85.8,32.2 83.7,32.2 83.7,34.4 81.5,34.4 81.5,36.6 81.5,38.7 
				81.5,40.9 81.5,43.1 81.5,45.3 81.5,47.4 81.5,49.6 81.5,51.8 81.5,54 81.5,56.1 81.5,58.3 81.5,60.5 83.7,60.5 			"/>
			<polygon fill="#BB2127" points="281.5,51.8 283.7,51.8 285.8,51.8 288,51.8 290.2,51.8 292.4,51.8 294.5,51.8 296.7,51.8 
				298.9,51.8 301.1,51.8 303.2,51.8 305.4,51.8 307.6,51.8 307.6,49.6 307.6,47.4 307.6,45.3 307.6,43.1 305.4,43.1 303.2,43.1 
				301.1,43.1 298.9,43.1 296.7,43.1 294.5,43.1 292.4,43.1 290.2,43.1 290.2,40.9 290.2,38.7 290.2,36.6 290.2,34.4 290.2,32.2 
				290.2,30 290.2,27.9 290.2,25.7 290.2,23.5 290.2,21.4 288,21.4 285.8,21.4 283.7,21.4 281.5,21.4 279.3,21.4 277.1,21.4 
				277.1,23.5 277.1,25.7 277.1,27.9 277.1,30 277.1,32.2 277.1,34.4 277.1,36.6 277.1,38.7 277.1,40.9 277.1,43.1 277.1,45.3 
				277.1,47.4 277.1,49.6 277.1,51.8 279.3,51.8 			"/>
			<polygon fill="#BB2127" points="325,43.1 325,45.3 325,47.4 327.2,47.4 327.2,45.3 329.3,45.3 331.5,45.3 331.5,43.1 333.7,43.1 
				335.9,43.1 338,43.1 338,40.9 338,38.7 338,36.6 338,34.4 338,32.2 335.9,32.2 333.7,32.2 331.5,32.2 329.3,32.2 327.2,32.2 
				325,32.2 322.8,32.2 320.6,32.2 320.6,34.4 320.6,36.6 320.6,38.7 320.6,40.9 320.6,43.1 322.8,43.1 			"/>
			<polygon fill="#BB2127" points="9.7,38.7 11.9,38.7 11.9,40.9 11.9,43.1 14.1,43.1 14.1,45.3 16.3,45.3 16.3,47.4 16.3,49.6 
				18.4,49.6 20.6,49.6 20.6,47.4 22.8,47.4 22.8,49.6 22.8,51.8 22.8,54 22.8,56.1 22.8,58.3 22.8,60.5 22.8,62.7 22.8,64.8 
				22.8,67 22.8,69.2 22.8,71.4 22.8,73.5 22.8,75.7 25,75.7 27.1,75.7 29.3,75.7 31.5,75.7 33.7,75.7 35.8,75.7 38,75.7 38,73.5 
				38,71.4 38,69.2 38,67 38,64.8 38,62.7 38,60.5 38,58.3 38,56.1 38,54 38,51.8 38,49.6 38,47.4 38,45.3 38,43.1 38,40.9 38,38.7 
				38,36.6 35.8,36.6 33.7,36.6 33.7,38.7 31.5,38.7 31.5,40.9 29.3,40.9 29.3,38.7 29.3,36.6 27.1,36.6 27.1,34.4 27.1,32.2 
				25,32.2 25,30 25,27.9 22.8,27.9 22.8,25.7 22.8,23.5 20.6,23.5 20.6,21.4 18.4,21.4 18.4,23.5 16.3,23.5 16.3,25.7 14.1,25.7 
				14.1,27.9 11.9,27.9 11.9,30 9.7,30 9.7,32.2 7.6,32.2 7.6,34.4 7.6,36.6 9.7,36.6 			"/>
		</g>
		<g>
			<path fill="#FFFFFF" d="M75,75.7h-2.2h-2.2h-2.2h-2.2v-2.2v-2.2v-2.2V67v-2.2v-2.2v-2.2v-2.2v-2.2V54v-2.2v-2.2v-2.2v-2.2v-2.2
				v-2.2v-2.2v-2.2v-2.2v-2.2V30v-2.2v-2.2v-2.2v-2.2v-2.2V17v-2.2v-2.2v-2.2h-2.2h-2.2h-2.2h-2.2h-2.2h-2.2H51h-2.2h-2.2h-2.2h-2.2
				h-2.2H38h-2.2h-2.2h-2.2v2.2h-2.2v2.2h-2.2V17H25v2.2h-2.2v2.2h-2.2v2.2h2.2v2.2v2.2H25V30v2.2h2.2v2.2v2.2h2.2v2.2v2.2h2.2v-2.2
				h2.2v-2.2h2.2H38v2.2v2.2v2.2v2.2v2.2v2.2v2.2V54v2.2v2.2v2.2v2.2v2.2V67v2.2v2.2v2.2v2.2h-2.2h-2.2h-2.2h-2.2h-2.2H25h-2.2v2.2
				v2.2v2.2v2.2v2.2v2.2v2.2v2.2v2.2v2.2H25h2.2h2.2h2.2h2.2h2.2H38h2.2h2.2h2.2h2.2h2.2H51h2.2h2.2h2.2h2.2h2.2h2.2h2.2h2.2h2.2
				h2.2H75h2.2h2.2v-2.2v-2.2v-2.2v-2.2v-2.2v-2.2v-2.2v-2.2v-2.2v-2.2h-2.2H75z M72.8,95.3h-2.2h-2.2h-2.2h-2.2h-2.2h-2.2h-2.2
				h-2.2h-2.2H51h-2.2h-2.2h-2.2h-2.2h-2.2H38h-2.2h-2.2h-2.2h-2.2h-2.2v-2.2v-2.2v-2.2v-2.2v-2.2v-2.2v-2.2v-2.2h2.2h2.2h2.2h2.2
				H38h2.2v-2.2v-2.2v-2.2v-2.2V67v-2.2v-2.2v-2.2v-2.2v-2.2V54v-2.2v-2.2v-2.2v-2.2v-2.2v-2.2v-2.2v-2.2v-2.2v-2.2V30H38v2.2h-2.2
				v2.2h-2.2h-2.2v-2.2h-2.2V30h-2.2v-2.2v-2.2H25v-2.2v-2.2h2.2v-2.2h2.2V17h2.2v-2.2h2.2v-2.2h2.2H38h2.2h2.2h2.2h2.2h2.2H51h2.2
				h2.2h2.2h2.2h2.2v2.2V17v2.2v2.2v2.2v2.2v2.2V30v2.2v2.2v2.2v2.2v2.2v2.2v2.2v2.2v2.2v2.2V54v2.2v2.2v2.2v2.2v2.2V67v2.2v2.2v2.2
				v2.2v2.2h2.2h2.2h2.2h2.2h2.2H75v2.2v2.2v2.2v2.2v2.2v2.2v2.2v2.2H72.8z"/>
			<path fill="#FFFFFF" d="M270.6,56.1h-2.2h-2.2h-2.2h-2.2V54v-2.2v-2.2v-2.2v-2.2v-2.2v-2.2v-2.2v-2.2v-2.2v-2.2V30v-2.2v-2.2
				v-2.2v-2.2v-2.2V17v-2.2v-2.2v-2.2h-2.2h-2.2h-2.2h-2.2h-2.2h-2.2h-2.2h-2.2h-2.2h-2.2H238h-2.2h-2.2h-2.2h-2.2h-2.2H225h-2.2
				h-2.2h-2.2h-2.2h-2.2h-2.2v2.2h-2.2v2.2V17h-2.2v2.2v2.2h-2.2v2.2h-2.2v2.2v2.2h-2.2V30v2.2h-2.2v2.2h-2.2v2.2v2.2h-2.2v2.2h-2.2
				v2.2v2.2h-2.2v2.2v2.2H188v2.2V54v2.2v2.2v2.2v2.2v2.2V67v2.2v2.2h2.2h2.2h2.2h2.2h2.2h2.2h2.2h2.2h2.2h2.2h2.2h2.2h2.2h2.2h2.2
				h2.2h2.2h2.2h2.2v2.2v2.2h-2.2H225h-2.2h-2.2h-2.2v2.2v2.2v2.2v2.2v2.2v2.2v2.2v2.2v2.2v2.2h2.2h2.2h2.2h2.2h2.2h2.2h2.2h2.2h2.2
				h2.2h2.2h2.2h2.2h2.2h2.2h2.2h2.2h2.2h2.2h2.2h2.2h2.2h2.2h2.2h2.2h2.2v-2.2v-2.2v-2.2v-2.2v-2.2v-2.2v-2.2v-2.2v-2.2v-2.2h-2.2
				h-2.2h-2.2h-2.2h-2.2h-2.2v-2.2v-2.2h2.2h2.2h2.2h2.2h2.2h2.2v-2.2V67v-2.2v-2.2v-2.2v-2.2v-2.2h-2.2H270.6z M268.5,69.2h-2.2
				h-2.2h-2.2h-2.2v2.2v2.2v2.2v2.2h2.2h2.2h2.2h2.2h2.2v2.2v2.2v2.2v2.2v2.2v2.2v2.2v2.2h-2.2h-2.2h-2.2h-2.2h-2.2h-2.2h-2.2h-2.2
				h-2.2h-2.2h-2.2h-2.2h-2.2h-2.2H238h-2.2h-2.2h-2.2h-2.2h-2.2H225h-2.2v-2.2v-2.2v-2.2v-2.2v-2.2v-2.2v-2.2v-2.2h2.2h2.2h2.2h2.2
				v-2.2v-2.2v-2.2v-2.2h-2.2h-2.2H225h-2.2h-2.2h-2.2h-2.2h-2.2h-2.2h-2.2h-2.2h-2.2h-2.2h-2.2h-2.2h-2.2h-2.2h-2.2h-2.2V67v-2.2
				v-2.2v-2.2v-2.2v-2.2V54v-2.2h2.2v-2.2h2.2v-2.2v-2.2h2.2v-2.2v-2.2h2.2v-2.2v-2.2h2.2v-2.2h2.2v-2.2V30h2.2v-2.2h2.2v-2.2v-2.2
				h2.2v-2.2v-2.2h2.2V17v-2.2h2.2v-2.2h2.2h2.2h2.2h2.2h2.2h2.2h2.2h2.2h2.2h2.2h2.2h2.2h2.2h2.2h2.2h2.2h2.2h2.2h2.2h2.2v2.2V17
				v2.2v2.2v2.2v2.2v2.2V30v2.2v2.2v2.2v2.2v2.2v2.2v2.2v2.2v2.2v2.2V54v2.2v2.2h2.2h2.2h2.2h2.2h2.2h2.2v2.2v2.2v2.2V67v2.2H268.5z
				"/>
			<path fill="#FFFFFF" d="M138,27.9h-2.2h-2.2h-2.2h-2.2h-2.2H125h-2.2V30v2.2v2.2v2.2v2.2v2.2v2.2h2.2h2.2h2.2h2.2h2.2h2.2h2.2
				h2.2h2.2v-2.2v-2.2v-2.2v-2.2v-2.2V30v-2.2h-2.2H138z M140.2,32.2v2.2v2.2v2.2v2.2H138h-2.2h-2.2h-2.2h-2.2h-2.2H125v-2.2v-2.2
				v-2.2v-2.2V30h2.2h2.2h2.2h2.2h2.2h2.2h2.2V32.2z"/>
			<path fill="#FFFFFF" d="M229.3,27.9V30h-2.2v2.2v2.2H225v2.2v2.2h-2.2v2.2v2.2h-2.2v2.2h-2.2v2.2v2.2h-2.2v2.2V54h-2.2v2.2v2.2
				h2.2h2.2h2.2h2.2h2.2h2.2h2.2h2.2v-2.2V54v-2.2v-2.2v-2.2v-2.2v-2.2v-2.2v-2.2v-2.2v-2.2v-2.2V30v-2.2v-2.2h-2.2V27.9z
				 M229.3,38.7v2.2v2.2v2.2v2.2v2.2v2.2V54v2.2h-2.2H225h-2.2h-2.2h-2.2V54v-2.2h2.2v-2.2v-2.2h2.2v-2.2h2.2v-2.2v-2.2h2.2v-2.2
				v-2.2h2.2V38.7z"/>
			<path fill="#FFFFFF" d="M368.5,23.5v-2.2h-2.2v-2.2h-2.2V17h-2.2v-2.2h-2.2v-2.2h-2.2v-2.2h-2.2h-2.2h-2.2h-2.2h-2.2h-2.2h-2.2
				h-2.2H338h-2.2h-2.2h-2.2h-2.2h-2.2H325h-2.2h-2.2h-2.2h-2.2h-2.2h-2.2h-2.2h-2.2h-2.2h-2.2h-2.2h-2.2h-2.2h-2.2h-2.2h-2.2v2.2
				v2.2V17v2.2v2.2v2.2v2.2v2.2V30v2.2v2.2v2.2v2.2v2.2v2.2h2.2h2.2h2.2h2.2h2.2h2.2h2.2h2.2h2.2h2.2h2.2h2.2h2.2h2.2v-2.2v-2.2
				v-2.2v-2.2v-2.2h2.2h2.2h2.2h2.2h2.2h2.2h2.2h2.2v2.2v2.2v2.2v2.2v2.2h-2.2h-2.2h-2.2v2.2h-2.2h-2.2v2.2H325h-2.2h-2.2v2.2h-2.2
				h-2.2v2.2h-2.2h-2.2h-2.2V54h-2.2h-2.2v2.2h-2.2h-2.2h-2.2v2.2h-2.2h-2.2v2.2h-2.2h-2.2v2.2v2.2V67v2.2v2.2v2.2v2.2v2.2v2.2v2.2
				v2.2v2.2v2.2v2.2v2.2v2.2v2.2h2.2h2.2h2.2h2.2h2.2h2.2h2.2h2.2h2.2h2.2h2.2h2.2h2.2h2.2h2.2h2.2h2.2h2.2h2.2h2.2h2.2h2.2h2.2h2.2
				h2.2h2.2h2.2h2.2h2.2h2.2h2.2h2.2h2.2h2.2h2.2h2.2h2.2v-2.2v-2.2v-2.2v-2.2v-2.2v-2.2v-2.2v-2.2v-2.2v-2.2v-2.2v-2.2v-2.2V67
				h-2.2h-2.2h-2.2h-2.2h-2.2h-2.2h-2.2h-2.2h-2.2h-2.2h-2.2h-2.2h-2.2h-2.2H338v2.2v2.2v2.2v2.2h-2.2h-2.2h-2.2h-2.2h-2.2H325h-2.2
				h-2.2v-2.2v-2.2h2.2v-2.2h2.2h2.2V67h2.2h2.2v-2.2h2.2h2.2v-2.2h2.2h2.2h2.2v-2.2h2.2h2.2v-2.2h2.2h2.2h2.2v-2.2h2.2h2.2V54h2.2
				h2.2v-2.2h2.2h2.2v-2.2h2.2v-2.2h2.2v-2.2v-2.2v-2.2v-2.2v-2.2v-2.2v-2.2V30v-2.2v-2.2v-2.2H368.5z M364.1,47.4v2.2h-2.2h-2.2
				v2.2h-2.2h-2.2V54h-2.2h-2.2h-2.2v2.2h-2.2h-2.2v2.2h-2.2h-2.2v2.2H338h-2.2h-2.2v2.2h-2.2h-2.2v2.2h-2.2H325V67h-2.2h-2.2v2.2
				h-2.2v2.2v2.2v2.2v2.2h2.2h2.2h2.2h2.2h2.2h2.2h2.2h2.2h2.2h2.2v-2.2v-2.2v-2.2v-2.2h2.2h2.2h2.2h2.2h2.2h2.2h2.2h2.2h2.2h2.2
				h2.2h2.2v2.2v2.2v2.2v2.2v2.2v2.2v2.2v2.2v2.2v2.2v2.2v2.2h-2.2h-2.2h-2.2h-2.2h-2.2h-2.2h-2.2h-2.2h-2.2h-2.2h-2.2h-2.2H338
				h-2.2h-2.2h-2.2h-2.2h-2.2H325h-2.2h-2.2h-2.2h-2.2h-2.2h-2.2h-2.2h-2.2h-2.2h-2.2h-2.2h-2.2h-2.2h-2.2v-2.2v-2.2v-2.2v-2.2v-2.2
				v-2.2v-2.2v-2.2v-2.2v-2.2v-2.2v-2.2V67v-2.2v-2.2h2.2v-2.2h2.2h2.2v-2.2h2.2h2.2h2.2v-2.2h2.2h2.2V54h2.2h2.2h2.2v-2.2h2.2h2.2
				v-2.2h2.2h2.2h2.2v-2.2h2.2h2.2v-2.2h2.2h2.2h2.2v-2.2v-2.2v-2.2v-2.2v-2.2v-2.2V30H338h-2.2h-2.2h-2.2h-2.2h-2.2H325h-2.2h-2.2
				h-2.2h-2.2v2.2v2.2v2.2v2.2v2.2h-2.2h-2.2h-2.2h-2.2h-2.2h-2.2h-2.2h-2.2h-2.2h-2.2v-2.2v-2.2v-2.2v-2.2V30v-2.2v-2.2v-2.2v-2.2
				v-2.2V17v-2.2v-2.2h2.2h2.2h2.2h2.2h2.2h2.2h2.2h2.2h2.2h2.2h2.2h2.2h2.2h2.2h2.2h2.2h2.2h2.2h2.2h2.2h2.2h2.2h2.2h2.2h2.2h2.2
				h2.2h2.2v2.2h2.2V17h2.2v2.2h2.2v2.2h2.2v2.2h2.2v2.2v2.2V30v2.2v2.2v2.2v2.2v2.2v2.2v2.2v2.2H364.1z"/>
			<path fill="#FFFFFF" d="M170.6,21.4h-2.2v-2.2h-2.2V17h-2.2v-2.2h-2.2v-2.2h-2.2v-2.2h-2.2h-2.2h-2.2h-2.2h-2.2h-2.2h-2.2h-2.2
				h-2.2H138h-2.2h-2.2h-2.2h-2.2h-2.2H125h-2.2h-2.2h-2.2h-2.2h-2.2h-2.2h-2.2h-2.2v2.2h-2.2v2.2h-2.2V17H101v2.2h-2.2v2.2h-2.2
				v2.2h-2.2v2.2v2.2V30v2.2v2.2v2.2v2.2v2.2v2.2v2.2v2.2v2.2h2.2v2.2h2.2V54h2.2v2.2h2.2v2.2h2.2v2.2h2.2v2.2h2.2h2.2h2.2h2.2h2.2
				h2.2h2.2h2.2h2.2h2.2h2.2h2.2h2.2h2.2h2.2v2.2V67v2.2v2.2v2.2v2.2H138h-2.2h-2.2h-2.2h-2.2h-2.2v-2.2v-2.2v-2.2V67H125h-2.2h-2.2
				h-2.2h-2.2h-2.2h-2.2h-2.2h-2.2h-2.2h-2.2H101h-2.2h-2.2h-2.2v2.2v2.2v2.2v2.2v2.2v2.2v2.2v2.2v2.2v2.2v2.2v2.2v2.2v2.2h2.2h2.2
				h2.2h2.2h2.2h2.2h2.2h2.2h2.2h2.2h2.2h2.2h2.2h2.2h2.2h2.2h2.2h2.2h2.2h2.2h2.2h2.2h2.2h2.2h2.2h2.2h2.2h2.2h2.2h2.2v-2.2h2.2
				v-2.2h2.2v-2.2h2.2v-2.2h2.2v-2.2h2.2v-2.2h2.2v-2.2v-2.2v-2.2v-2.2v-2.2v-2.2v-2.2V67v-2.2v-2.2v-2.2v-2.2v-2.2V54v-2.2v-2.2
				v-2.2v-2.2v-2.2v-2.2v-2.2v-2.2v-2.2v-2.2V30v-2.2v-2.2v-2.2h-2.2V21.4z M168.4,25.7v2.2V30v2.2v2.2v2.2v2.2v2.2v2.2v2.2v2.2v2.2
				v2.2V54v2.2v2.2v2.2v2.2v2.2V67v2.2v2.2v2.2v2.2v2.2v2.2v2.2v2.2h-2.2v2.2h-2.2v2.2h-2.2v2.2h-2.2v2.2h-2.2v2.2h-2.2h-2.2h-2.2
				h-2.2h-2.2h-2.2h-2.2h-2.2H138h-2.2h-2.2h-2.2h-2.2h-2.2H125h-2.2h-2.2h-2.2h-2.2h-2.2h-2.2h-2.2h-2.2h-2.2h-2.2H101h-2.2v-2.2
				v-2.2v-2.2v-2.2v-2.2v-2.2v-2.2v-2.2v-2.2v-2.2v-2.2v-2.2h2.2h2.2h2.2h2.2h2.2h2.2h2.2h2.2h2.2h2.2h2.2v2.2v2.2v2.2v2.2h2.2h2.2
				h2.2h2.2h2.2h2.2h2.2h2.2h2.2v-2.2v-2.2v-2.2v-2.2V67v-2.2v-2.2v-2.2h-2.2H138h-2.2h-2.2h-2.2h-2.2h-2.2H125h-2.2h-2.2h-2.2h-2.2
				h-2.2h-2.2h-2.2v-2.2h-2.2v-2.2h-2.2V54h-2.2v-2.2H101v-2.2h-2.2v-2.2h-2.2v-2.2v-2.2v-2.2v-2.2v-2.2v-2.2v-2.2V30v-2.2v-2.2h2.2
				v-2.2h2.2v-2.2h2.2v-2.2h2.2V17h2.2v-2.2h2.2v-2.2h2.2h2.2h2.2h2.2h2.2h2.2h2.2h2.2h2.2h2.2h2.2h2.2h2.2h2.2h2.2h2.2h2.2h2.2h2.2
				h2.2h2.2h2.2v2.2h2.2V17h2.2v2.2h2.2v2.2h2.2v2.2h2.2V25.7z"/>
		</g>
	</g>
</g>
</svg>
