<?xml version="1.0" encoding="utf-8"?>
<!-- Generator: Adobe Illustrator 18.1.1, SVG Export Plug-In . SVG Version: 6.00 Build 0)  -->
<svg version="1.1" id="Layer_1" xmlns="http://www.w3.org/2000/svg" xmlns:xlink="http://www.w3.org/1999/xlink" x="0px" y="0px"
	 viewBox="0 0 360.8 99.8" enable-background="new 0 0 360.8 99.8" xml:space="preserve">
<g>
	<path fill="#FFFFFF" d="M55.2,83.1V30.2h7.6v-7.6H93v7.6h7.6v52.9H85.4V68H70.3v15.1H55.2z M85.4,52.9V37.7H70.3v15.1H85.4z"/>
	<path fill="#FFFFFF" d="M104.2,83.1V22.6h45.3v15.1h-30.2V68h30.2v15.1H104.2z"/>
	<path fill="#FFFFFF" d="M168.4,83.1V37.7h-15.1V22.6h45.3v15.1h-15.1v45.3H168.4z"/>
	<path fill="#FFFFFF" d="M202.3,83.1V68h15.1V37.7h-15.1V22.6h45.3v15.1h-15.1V68h15.1v15.1H202.3z"/>
	<path fill="#FFFFFF" d="M258.9,83.1v-7.6h-7.6V30.2h7.6v-7.6h30.2v7.6h7.6v45.3h-7.6v7.6H258.9z M281.5,68V37.7h-15.1V68H281.5z"/>
	<path fill="#FFFFFF" d="M300.4,83.1V22.6h15.1v7.6h7.6v7.6h7.6V22.6h15.1v60.4h-15.1V52.9H323v-7.6h-7.6v37.8H300.4z"/>
</g>
<g>
	<rect x="25.6" y="91.6" fill="#FBD7A7" width="2.7" height="2.7"/>
	<rect x="20.3" y="86.2" fill="#FBD7A7" width="2.7" height="2.7"/>
	<rect x="20.3" y="78.2" fill="#FBD7A7" width="2.7" height="2.7"/>
	<rect x="17.6" y="78.2" fill="#FBD7A7" width="2.7" height="2.7"/>
	<rect x="23" y="72.8" fill="#FBD7A7" width="2.7" height="2.7"/>
	<rect x="28.3" y="67.4" fill="#FBD7A7" width="2.7" height="2.7"/>
	<rect x="31" y="62" fill="#FBD7A7" width="2.7" height="2.7"/>
	<rect x="33.6" y="56.6" fill="#FBD7A7" width="2.7" height="2.7"/>
	<rect x="33.6" y="51.3" fill="#FBD7A7" width="2.7" height="2.7"/>
	<rect x="36.3" y="45.9" fill="#FBD7A7" width="2.7" height="2.7"/>
	<g>
		<polygon fill="#D72E27" points="23,88.9 20.3,88.9 20.3,86.2 20.3,83.6 20.3,80.9 17.6,80.9 14.9,80.9 14.9,83.6 12.3,83.6 
			12.3,86.2 12.3,88.9 14.9,88.9 14.9,91.6 17.6,91.6 17.6,94.3 20.3,94.3 23,94.3 25.6,94.3 25.6,91.6 23,91.6 		"/>
		<polygon fill="#D72E27" points="23,72.8 20.3,72.8 20.3,75.5 17.6,75.5 17.6,78.2 20.3,78.2 23,78.2 25.6,78.2 25.6,75.5 23,75.5 
					"/>
		<polygon fill="#D72E27" points="52.3,53.9 49.7,53.9 49.7,51.3 47,51.3 47,48.6 44.3,48.6 44.3,51.3 41.6,51.3 41.6,53.9 
			41.6,56.6 44.3,56.6 44.3,59.3 47,59.3 47,62 47,64.7 44.3,64.7 41.6,64.7 41.6,67.4 41.6,70.1 41.6,72.8 41.6,75.5 39,75.5 
			36.3,75.5 36.3,78.2 33.6,78.2 33.6,80.9 36.3,80.9 36.3,83.6 39,83.6 39,86.2 41.6,86.2 41.6,88.9 44.3,88.9 47,88.9 47,86.2 
			44.3,86.2 44.3,83.6 41.6,83.6 41.6,80.9 41.6,78.2 44.3,78.2 44.3,75.5 44.3,72.8 47,72.8 47,70.1 49.7,70.1 49.7,67.4 
			52.3,67.4 52.3,64.7 52.3,62 55,62 55,59.3 55,56.6 52.3,56.6 		"/>
		<path fill="#D72E27" d="M41.6,45.9H39v2.7h-2.7v-2.7v-2.7h-2.7H31v2.7h-2.7v2.7v2.7H31v2.7v2.7h-2.7v2.7V62H31h2.7v2.7H31h-2.7
			h-2.7v2.7H23v2.7v2.7h2.7v2.7h2.7v-2.7H31v-2.7h-2.7v-2.7H31v2.7h2.7v-2.7h2.7v-2.7V62H39v-2.7v-2.7v-2.7v-2.7h2.7v-2.7V45.9z
			 M36.3,59.3h-2.7v-2.7h2.7V59.3z M36.3,53.9h-2.7v-2.7h2.7V53.9z"/>
		<rect x="47" y="43.2" fill="#D72E27" width="2.7" height="2.7"/>
		<polygon fill="#D72E27" points="41.6,43.2 44.3,43.2 44.3,40.5 41.6,40.5 41.6,37.8 41.6,35.1 39,35.1 39,37.8 39,40.5 36.3,40.5 
			36.3,43.2 39,43.2 		"/>
		<rect x="57.7" y="32.4" fill="#D72E27" width="2.7" height="2.7"/>
		<polygon fill="#D72E27" points="49.7,32.4 49.7,35.1 49.7,37.8 52.3,37.8 52.3,35.1 55,35.1 55,32.4 52.3,32.4 		"/>
		<polygon fill="#D72E27" points="44.3,35.1 47,35.1 47,32.4 44.3,32.4 41.6,32.4 41.6,35.1 		"/>
		<rect x="36.3" y="32.4" fill="#D72E27" width="2.7" height="2.7"/>
		<polygon fill="#D72E27" points="23,35.1 25.6,35.1 28.3,35.1 28.3,37.8 28.3,40.5 31,40.5 33.6,40.5 33.6,37.8 33.6,35.1 31,35.1 
			31,32.4 28.3,32.4 25.6,32.4 25.6,29.7 25.6,27 28.3,27 31,27 31,24.3 31,21.7 31,19 28.3,19 28.3,21.7 25.6,21.7 25.6,24.3 
			23,24.3 23,27 23,29.7 20.3,29.7 20.3,32.4 23,32.4 		"/>
		<rect x="39" y="29.7" fill="#D72E27" width="2.7" height="2.7"/>
		<rect x="49.7" y="24.3" fill="#D72E27" width="2.7" height="2.7"/>
		<polygon fill="#D72E27" points="39,24.3 36.3,24.3 36.3,27 36.3,29.7 39,29.7 39,27 		"/>
		<rect x="52.3" y="21.7" fill="#D72E27" width="2.7" height="2.7"/>
		<polygon fill="#D72E27" points="41.6,21.7 44.3,21.7 44.3,19 41.6,19 39,19 39,21.7 39,24.3 41.6,24.3 		"/>
		<polygon fill="#D72E27" points="60.3,21.7 57.7,21.7 57.7,24.3 57.7,27 60.3,27 63,27 63,24.3 63,21.7 63,19 63,16.3 60.3,16.3 
			60.3,19 		"/>
		<polygon fill="#D72E27" points="57.7,16.3 55,16.3 55,19 55,21.7 57.7,21.7 57.7,19 		"/>
		<polygon fill="#D72E27" points="39,13.6 36.3,13.6 36.3,16.3 36.3,19 39,19 39,16.3 		"/>
		<polygon fill="#D72E27" points="57.7,13.6 57.7,16.3 60.3,16.3 60.3,13.6 60.3,10.9 57.7,10.9 		"/>
		<polygon fill="#D72E27" points="41.6,10.9 44.3,10.9 44.3,8.2 41.6,8.2 39,8.2 36.3,8.2 36.3,10.9 39,10.9 		"/>
		<polygon fill="#D72E27" points="60.3,5.5 60.3,8.2 60.3,10.9 63,10.9 63,8.2 63,5.5 		"/>
	</g>
	<g>
		<polygon fill="#F9BCAF" points="57.7,24.3 55,24.3 52.3,24.3 52.3,27 52.3,29.7 52.3,32.4 55,32.4 55,35.1 52.3,35.1 52.3,37.8 
			49.7,37.8 49.7,35.1 49.7,32.4 49.7,29.7 49.7,27 49.7,24.3 47,24.3 47,21.7 44.3,21.7 41.6,21.7 41.6,24.3 39,24.3 39,27 
			39,29.7 41.6,29.7 41.6,32.4 44.3,32.4 47,32.4 47,35.1 44.3,35.1 44.3,37.8 44.3,40.5 47,40.5 47,43.2 49.7,43.2 49.7,45.9 
			52.3,45.9 52.3,43.2 55,43.2 55,40.5 57.7,40.5 57.7,37.8 57.7,35.1 57.7,32.4 60.3,32.4 60.3,29.7 60.3,27 57.7,27 		"/>
		<rect x="52.3" y="19" fill="#F9BCAF" width="2.7" height="2.7"/>
		<polygon fill="#F9BCAF" points="39,19 36.3,19 33.6,19 33.6,21.7 31,21.7 31,24.3 31,27 28.3,27 28.3,29.7 28.3,32.4 31,32.4 
			31,35.1 33.6,35.1 33.6,37.8 33.6,40.5 36.3,40.5 39,40.5 39,37.8 39,35.1 36.3,35.1 36.3,32.4 36.3,29.7 36.3,27 36.3,24.3 
			39,24.3 39,21.7 		"/>
		<polygon fill="#F9BCAF" points="44.3,19 44.3,16.3 44.3,13.6 41.6,13.6 39,13.6 39,16.3 39,19 41.6,19 		"/>
		<rect x="55" y="13.6" fill="#F9BCAF" width="2.7" height="2.7"/>
		<rect x="57.7" y="8.2" fill="#F9BCAF" width="2.7" height="2.7"/>
		<rect x="60.3" y="2.8" fill="#F9BCAF" width="2.7" height="2.7"/>
	</g>
	<g>
		<rect x="14.9" y="91.6" fill="#060808" width="2.7" height="2.7"/>
		<rect x="12.3" y="88.9" fill="#060808" width="2.7" height="2.7"/>
		<rect x="47" y="86.2" fill="#060808" width="2.7" height="2.7"/>
		<rect x="39" y="86.2" fill="#060808" width="2.7" height="2.7"/>
		<rect x="44.3" y="83.6" fill="#060808" width="2.7" height="2.7"/>
		<rect x="36.3" y="83.6" fill="#060808" width="2.7" height="2.7"/>
		<rect x="33.6" y="80.9" fill="#060808" width="2.7" height="2.7"/>
		<polygon fill="#060808" points="20.3,83.6 20.3,86.2 23,86.2 23,88.9 23,91.6 25.6,91.6 28.3,91.6 28.3,94.3 25.6,94.3 23,94.3 
			20.3,94.3 17.6,94.3 17.6,97 20.3,97 23,97 25.6,97 28.3,97 31,97 31,94.3 31,91.6 31,88.9 28.3,88.9 25.6,88.9 25.6,86.2 
			25.6,83.6 23,83.6 23,80.9 20.3,80.9 		"/>
		<rect x="12.3" y="80.9" fill="#060808" width="2.7" height="2.7"/>
		<polygon fill="#060808" points="44.3,78.2 41.6,78.2 41.6,80.9 41.6,83.6 44.3,83.6 44.3,80.9 		"/>
		<rect x="31" y="78.2" fill="#060808" width="2.7" height="2.7"/>
		<rect x="23" y="78.2" fill="#060808" width="2.7" height="2.7"/>
		<rect x="33.6" y="75.5" fill="#060808" width="2.7" height="2.7"/>
		<rect x="25.6" y="75.5" fill="#060808" width="2.7" height="2.7"/>
		<polygon fill="#060808" points="14.9,78.2 14.9,80.9 17.6,80.9 17.6,78.2 17.6,75.5 14.9,75.5 		"/>
		<rect x="44.3" y="72.8" fill="#060808" width="2.7" height="2.7"/>
		<rect x="28.3" y="72.8" fill="#060808" width="2.7" height="2.7"/>
		<rect x="17.6" y="72.8" fill="#060808" width="2.7" height="2.7"/>
		<rect x="47" y="70.1" fill="#060808" width="2.7" height="2.7"/>
		<rect x="31" y="70.1" fill="#060808" width="2.7" height="2.7"/>
		<rect x="49.7" y="67.4" fill="#060808" width="2.7" height="2.7"/>
		<rect x="33.6" y="67.4" fill="#060808" width="2.7" height="2.7"/>
		<polygon fill="#060808" points="20.3,70.1 20.3,72.8 23,72.8 23,70.1 23,67.4 20.3,67.4 		"/>
		<rect x="23" y="64.7" fill="#060808" width="2.7" height="2.7"/>
		<polygon fill="#060808" points="52.3,64.7 52.3,67.4 55,67.4 55,64.7 55,62 52.3,62 		"/>
		<polygon fill="#060808" points="41.6,62 41.6,64.7 44.3,64.7 47,64.7 47,62 47,59.3 44.3,59.3 44.3,62 		"/>
		<polygon fill="#060808" points="39,62 36.3,62 36.3,64.7 36.3,67.4 39,67.4 39,70.1 39,72.8 36.3,72.8 36.3,75.5 39,75.5 
			41.6,75.5 41.6,72.8 41.6,70.1 41.6,67.4 41.6,64.7 39,64.7 		"/>
		<polygon fill="#060808" points="25.6,59.3 25.6,62 25.6,64.7 28.3,64.7 31,64.7 31,62 28.3,62 28.3,59.3 28.3,56.6 25.6,56.6 		
			"/>
		<rect x="52.3" y="53.9" fill="#060808" width="2.7" height="2.7"/>
		<rect x="49.7" y="51.3" fill="#060808" width="2.7" height="2.7"/>
		<polygon fill="#060808" points="39,53.9 39,56.6 39,59.3 39,62 41.6,62 41.6,59.3 44.3,59.3 44.3,56.6 41.6,56.6 41.6,53.9 
			41.6,51.3 39,51.3 		"/>
		<rect x="47" y="48.6" fill="#060808" width="2.7" height="2.7"/>
		<rect x="52.3" y="43.2" fill="#060808" width="2.7" height="2.7"/>
		<polygon fill="#060808" points="47,43.2 47,40.5 44.3,40.5 44.3,43.2 41.6,43.2 39,43.2 36.3,43.2 36.3,45.9 39,45.9 41.6,45.9 
			41.6,48.6 41.6,51.3 44.3,51.3 44.3,48.6 47,48.6 47,45.9 		"/>
		<rect x="55" y="40.5" fill="#060808" width="2.7" height="2.7"/>
		<polygon fill="#060808" points="33.6,40.5 31,40.5 28.3,40.5 28.3,43.2 25.6,43.2 25.6,45.9 25.6,48.6 25.6,51.3 25.6,53.9 
			28.3,53.9 28.3,56.6 31,56.6 31,53.9 31,51.3 28.3,51.3 28.3,48.6 28.3,45.9 31,45.9 31,43.2 33.6,43.2 36.3,43.2 36.3,40.5 		"/>
		<polygon fill="#060808" points="57.7,37.8 57.7,40.5 60.3,40.5 60.3,37.8 60.3,35.1 57.7,35.1 		"/>
		<polygon fill="#060808" points="44.3,35.1 41.6,35.1 41.6,37.8 41.6,40.5 44.3,40.5 44.3,37.8 		"/>
		<polygon fill="#060808" points="25.6,37.8 28.3,37.8 28.3,35.1 25.6,35.1 23,35.1 23,37.8 		"/>
		<rect x="39" y="32.4" fill="#060808" width="2.7" height="2.7"/>
		<rect x="20.3" y="32.4" fill="#060808" width="2.7" height="2.7"/>
		<rect x="36.3" y="29.7" fill="#060808" width="2.7" height="2.7"/>
		<polygon fill="#060808" points="60.3,29.7 60.3,32.4 60.3,35.1 63,35.1 63,32.4 63,29.7 63,27 60.3,27 		"/>
		<polygon fill="#060808" points="49.7,29.7 49.7,32.4 52.3,32.4 52.3,29.7 52.3,27 49.7,27 		"/>
		<polygon fill="#060808" points="25.6,29.7 25.6,32.4 28.3,32.4 28.3,29.7 28.3,27 25.6,27 		"/>
		<polygon fill="#060808" points="23,27 23,24.3 20.3,24.3 20.3,27 20.3,29.7 23,29.7 		"/>
		<rect x="55" y="21.7" fill="#060808" width="2.7" height="2.7"/>
		<polygon fill="#060808" points="49.7,24.3 52.3,24.3 52.3,21.7 52.3,19 49.7,19 49.7,21.7 47,21.7 47,24.3 		"/>
		<rect x="23" y="21.7" fill="#060808" width="2.7" height="2.7"/>
		<polygon fill="#060808" points="31,21.7 33.6,21.7 33.6,19 36.3,19 36.3,16.3 36.3,13.6 39,13.6 41.6,13.6 44.3,13.6 44.3,16.3 
			44.3,19 44.3,21.7 47,21.7 47,19 47,16.3 47,13.6 47,10.9 47,8.2 47,5.5 44.3,5.5 41.6,5.5 39,5.5 36.3,5.5 36.3,8.2 39,8.2 
			41.6,8.2 44.3,8.2 44.3,10.9 41.6,10.9 39,10.9 36.3,10.9 36.3,8.2 33.6,8.2 33.6,10.9 31,10.9 31,13.6 33.6,13.6 33.6,16.3 
			31,16.3 31,13.6 28.3,13.6 25.6,13.6 25.6,16.3 28.3,16.3 28.3,19 31,19 		"/>
		<rect x="25.6" y="19" fill="#060808" width="2.7" height="2.7"/>
		<polygon fill="#060808" points="57.7,19 57.7,21.7 60.3,21.7 60.3,19 60.3,16.3 57.7,16.3 		"/>
		<polygon fill="#060808" points="55,16.3 55,13.6 52.3,13.6 52.3,16.3 52.3,19 55,19 		"/>
		<polygon fill="#060808" points="60.3,10.9 60.3,13.6 60.3,16.3 63,16.3 63,13.6 63,10.9 		"/>
		<polygon fill="#060808" points="57.7,10.9 57.7,8.2 55,8.2 55,10.9 55,13.6 57.7,13.6 		"/>
		<polygon fill="#060808" points="60.3,5.5 60.3,2.8 57.7,2.8 57.7,5.5 57.7,8.2 60.3,8.2 		"/>
	</g>
</g>
</svg>
