<?xml version="1.0" encoding="utf-8"?>
<!-- Generator: Adobe Illustrator 18.1.1, SVG Export Plug-In . SVG Version: 6.00 Build 0)  -->
<svg version="1.1" id="Layer_1" xmlns="http://www.w3.org/2000/svg" xmlns:xlink="http://www.w3.org/1999/xlink" x="0px" y="0px"
	 viewBox="0 0 960 212.6" enable-background="new 0 0 960 212.6" xml:space="preserve">
<g>
	<g>
		<path fill="#FFFFFF" d="M83.3,187.5v-30.7h61.3v-15.3H83.3V80.2h15.3V64.9h76.6v30.7H114v15.3h61.3v61.3H160v15.3H83.3z"/>
		<path fill="#FFFFFF" d="M182.8,187.5V64.9h76.6v15.3h15.3v61.3h-15.3v15.3h-46v30.7H182.8z M244.1,126.2V95.6h-30.7v30.7H244.1z"
			/>
		<path fill="#FFFFFF" d="M297.7,187.5v-15.3h-15.3v-92h15.3V64.9H359v15.3h15.3v92H359v15.3H297.7z M343.7,156.9V95.6H313v61.3
			H343.7z"/>
		<path fill="#FFFFFF" d="M381.9,187.5V64.9h76.6v15.3h15.3v46h-15.3v30.7h15.3v30.7h-30.7v-15.3h-15.3v-15.3h-15.3v30.7H381.9z
			 M443.2,126.2V95.6h-30.7v30.7H443.2z"/>
		<path fill="#FFFFFF" d="M512,187.5v-92h-30.7V64.9h92v30.7h-30.7v92H512z"/>
		<path fill="#FFFFFF" d="M580.9,187.5v-30.7h61.3v-15.3h-61.3V80.2h15.3V64.9h76.6v30.7h-61.3v15.3h61.3v61.3h-15.3v15.3H580.9z"/>
	</g>
	<g>
		<rect x="43.9" y="199" fill="#EC6D23" width="3.3" height="3.3"/>
		<g>
			<polygon fill="#2B2E80" points="40.6,149.7 40.6,153 37.3,153 37.3,149.7 40.6,149.7 40.6,146.5 40.6,143.2 40.6,139.9 
				40.6,136.6 40.6,133.3 40.6,130 37.3,130 37.3,126.7 34,126.7 30.7,126.7 27.4,126.7 24.1,126.7 24.1,130 24.1,133.3 24.1,136.6 
				24.1,139.9 24.1,143.2 24.1,146.5 24.1,149.7 24.1,153 27.4,153 27.4,156.3 27.4,159.6 27.4,162.9 27.4,166.2 27.4,169.5 
				27.4,172.8 27.4,176 30.7,176 34,176 37.3,176 40.6,176 43.9,176 43.9,172.8 43.9,169.5 40.6,169.5 40.6,166.2 43.9,166.2 
				43.9,162.9 40.6,162.9 40.6,159.6 43.9,159.6 43.9,156.3 43.9,153 43.9,149.7 			"/>
			<rect x="20.8" y="123.4" fill="#2B2E80" width="3.3" height="3.3"/>
		</g>
		<g>
			<polygon fill="#4585C5" points="43.9,156.3 43.9,159.6 40.6,159.6 40.6,162.9 43.9,162.9 43.9,166.2 40.6,166.2 40.6,169.5 
				43.9,169.5 43.9,172.8 43.9,176 47.1,176 47.1,172.8 47.1,169.5 47.1,166.2 47.1,162.9 47.1,159.6 47.1,156.3 47.1,153 43.9,153 
							"/>
			<rect x="37.3" y="149.7" fill="#4585C5" width="3.3" height="3.3"/>
			<polygon fill="#4585C5" points="43.9,146.5 43.9,143.2 43.9,139.9 40.6,139.9 40.6,143.2 40.6,146.5 40.6,149.7 43.9,149.7 			
				"/>
			<polygon fill="#4585C5" points="53.7,130 53.7,133.3 57,133.3 60.3,133.3 60.3,130 57,130 			"/>
			<rect x="53.7" y="123.4" fill="#4585C5" width="3.3" height="3.3"/>
			<polygon fill="#4585C5" points="66.9,113.6 66.9,110.3 66.9,107 63.6,107 63.6,110.3 63.6,113.6 63.6,116.9 60.3,116.9 
				60.3,120.2 57,120.2 57,123.4 60.3,123.4 63.6,123.4 63.6,126.7 60.3,126.7 60.3,130 63.6,130 63.6,133.3 63.6,136.6 60.3,136.6 
				60.3,139.9 63.6,139.9 63.6,143.2 60.3,143.2 57,143.2 57,146.5 60.3,146.5 60.3,149.7 57,149.7 53.7,149.7 53.7,153 57,153 
				60.3,153 63.6,153 63.6,156.3 60.3,156.3 57,156.3 57,159.6 53.7,159.6 53.7,162.9 53.7,166.2 53.7,169.5 53.7,172.8 53.7,176 
				53.7,179.3 57,179.3 60.3,179.3 63.6,179.3 63.6,182.6 66.9,182.6 66.9,185.9 66.9,189.2 70.2,189.2 70.2,185.9 70.2,182.6 
				70.2,179.3 70.2,176 70.2,172.8 70.2,169.5 70.2,166.2 70.2,162.9 70.2,159.6 70.2,156.3 70.2,153 66.9,153 66.9,149.7 
				66.9,146.5 66.9,143.2 66.9,139.9 70.2,139.9 70.2,136.6 70.2,133.3 70.2,130 70.2,126.7 70.2,123.4 70.2,120.2 70.2,116.9 
				70.2,113.6 			"/>
		</g>
		<polygon fill="#3A52A3" points="60.3,110.3 57,110.3 57,107 53.7,107 53.7,110.3 50.4,110.3 47.1,110.3 47.1,107 43.9,107 
			43.9,110.3 40.6,110.3 37.3,110.3 37.3,107 40.6,107 43.9,107 43.9,103.7 40.6,103.7 37.3,103.7 34,103.7 34,107 30.7,107 
			27.4,107 27.4,103.7 30.7,103.7 30.7,100.4 27.4,100.4 24.1,100.4 24.1,103.7 24.1,107 20.8,107 20.8,110.3 20.8,113.6 
			20.8,116.9 20.8,120.2 20.8,123.4 24.1,123.4 24.1,126.7 27.4,126.7 30.7,126.7 34,126.7 37.3,126.7 40.6,126.7 43.9,126.7 
			43.9,130 43.9,133.3 43.9,136.6 43.9,139.9 47.1,139.9 47.1,143.2 47.1,146.5 47.1,149.7 50.4,149.7 50.4,153 50.4,156.3 
			47.1,156.3 47.1,159.6 47.1,162.9 47.1,166.2 47.1,169.5 47.1,172.8 47.1,176 47.1,179.3 50.4,179.3 50.4,182.6 50.4,185.9 
			53.7,185.9 53.7,182.6 53.7,179.3 53.7,176 53.7,172.8 53.7,169.5 53.7,166.2 53.7,162.9 53.7,159.6 57,159.6 57,156.3 
			60.3,156.3 63.6,156.3 63.6,153 60.3,153 57,153 53.7,153 53.7,149.7 57,149.7 60.3,149.7 60.3,146.5 57,146.5 57,143.2 
			60.3,143.2 63.6,143.2 63.6,139.9 60.3,139.9 60.3,136.6 63.6,136.6 63.6,133.3 63.6,130 60.3,130 60.3,133.3 57,133.3 
			53.7,133.3 53.7,130 57,130 60.3,130 60.3,126.7 63.6,126.7 63.6,123.4 60.3,123.4 57,123.4 57,126.7 53.7,126.7 53.7,123.4 
			57,123.4 57,120.2 60.3,120.2 60.3,116.9 63.6,116.9 63.6,113.6 63.6,110.3 		"/>
		<rect x="27.4" y="97.1" fill="#F27D7E" width="3.3" height="3.3"/>
		<rect x="27.4" y="93.9" fill="#F27D7E" width="3.3" height="3.3"/>
		<rect x="30.7" y="90.6" fill="#F27D7E" width="3.3" height="3.3"/>
		<rect x="30.7" y="87.3" fill="#F27D7E" width="3.3" height="3.3"/>
		<rect x="34" y="84" fill="#F27D7E" width="3.3" height="3.3"/>
		<rect x="34" y="80.7" fill="#F27D7E" width="3.3" height="3.3"/>
		<rect x="47.1" y="74.1" fill="#F27D7E" width="3.3" height="3.3"/>
		<rect x="50.4" y="70.8" fill="#F27D7E" width="3.3" height="3.3"/>
		<rect x="66.9" y="67.6" fill="#F27D7E" width="3.3" height="3.3"/>
		<rect x="63.6" y="67.6" fill="#F27D7E" width="3.3" height="3.3"/>
		<rect x="57" y="67.6" fill="#F27D7E" width="3.3" height="3.3"/>
		<rect x="50.4" y="67.6" fill="#F27D7E" width="3.3" height="3.3"/>
		<rect x="43.9" y="67.6" fill="#F27D7E" width="3.3" height="3.3"/>
		<rect x="40.6" y="67.6" fill="#F27D7E" width="3.3" height="3.3"/>
		<rect x="66.9" y="64.3" fill="#F27D7E" width="3.3" height="3.3"/>
		<rect x="63.6" y="64.3" fill="#F27D7E" width="3.3" height="3.3"/>
		<rect x="60.3" y="64.3" fill="#F27D7E" width="3.3" height="3.3"/>
		<g>
			<polygon fill="#A42022" points="83.3,87.3 83.3,84 80,84 76.7,84 73.4,84 73.4,80.7 70.2,80.7 70.2,77.4 70.2,74.1 66.9,74.1 
				66.9,77.4 63.6,77.4 60.3,77.4 60.3,80.7 57,80.7 53.7,80.7 50.4,80.7 47.1,80.7 43.9,80.7 43.9,84 47.1,84 50.4,84 50.4,87.3 
				47.1,87.3 47.1,90.6 43.9,90.6 40.6,90.6 40.6,93.9 43.9,93.9 43.9,97.1 40.6,97.1 40.6,100.4 40.6,103.7 43.9,103.7 43.9,107 
				47.1,107 50.4,107 53.7,107 57,107 60.3,107 63.6,107 66.9,107 66.9,103.7 70.2,103.7 70.2,100.4 73.4,100.4 76.7,100.4 
				80,100.4 80,97.1 80,93.9 83.3,93.9 83.3,90.6 80,90.6 80,87.3 			"/>
			<polygon fill="#A42022" points="43.9,77.4 43.9,74.1 40.6,74.1 37.3,74.1 34,74.1 34,70.8 30.7,70.8 27.4,70.8 27.4,74.1 
				30.7,74.1 30.7,77.4 34,77.4 37.3,77.4 40.6,77.4 			"/>
			<rect x="63.6" y="70.8" fill="#A42022" width="3.3" height="3.3"/>
			<rect x="60.3" y="67.6" fill="#A42022" width="3.3" height="3.3"/>
			<rect x="57" y="64.3" fill="#A42022" width="3.3" height="3.3"/>
		</g>
		<rect x="50.4" y="64.3" fill="#F27D7E" width="3.3" height="3.3"/>
		<rect x="47.1" y="64.3" fill="#F27D7E" width="3.3" height="3.3"/>
		<rect x="43.9" y="64.3" fill="#F27D7E" width="3.3" height="3.3"/>
		<rect x="37.3" y="64.3" fill="#F27D7E" width="3.3" height="3.3"/>
		<rect x="34" y="64.3" fill="#F27D7E" width="3.3" height="3.3"/>
		<rect x="53.7" y="61" fill="#F27D7E" width="3.3" height="3.3"/>
		<rect x="50.4" y="61" fill="#F27D7E" width="3.3" height="3.3"/>
		<rect x="47.1" y="61" fill="#F27D7E" width="3.3" height="3.3"/>
		<rect x="43.9" y="61" fill="#F27D7E" width="3.3" height="3.3"/>
		<rect x="40.6" y="61" fill="#F27D7E" width="3.3" height="3.3"/>
		<rect x="37.3" y="61" fill="#F27D7E" width="3.3" height="3.3"/>
		<rect x="34" y="61" fill="#F27D7E" width="3.3" height="3.3"/>
		<g>
			<rect x="80" y="93.9" fill="#EC1C24" width="3.3" height="3.3"/>
			<polygon fill="#EC1C24" points="86.6,84 86.6,80.7 83.3,80.7 80,80.7 80,77.4 76.7,77.4 76.7,74.1 73.4,74.1 73.4,70.8 
				70.2,70.8 66.9,70.8 66.9,74.1 70.2,74.1 70.2,77.4 70.2,80.7 73.4,80.7 73.4,84 76.7,84 80,84 83.3,84 83.3,87.3 80,87.3 
				80,90.6 83.3,90.6 83.3,93.9 86.6,93.9 86.6,90.6 89.9,90.6 89.9,87.3 89.9,84 			"/>
			<polygon fill="#EC1C24" points="63.6,70.8 60.3,70.8 57,70.8 57,67.6 57,64.3 53.7,64.3 53.7,67.6 53.7,70.8 53.7,74.1 
				50.4,74.1 50.4,77.4 47.1,77.4 47.1,74.1 50.4,74.1 50.4,70.8 50.4,67.6 47.1,67.6 47.1,70.8 43.9,70.8 40.6,70.8 40.6,67.6 
				37.3,67.6 34,67.6 34,64.3 34,61 30.7,61 30.7,64.3 27.4,64.3 27.4,67.6 27.4,70.8 30.7,70.8 34,70.8 34,74.1 37.3,74.1 
				40.6,74.1 43.9,74.1 43.9,77.4 40.6,77.4 37.3,77.4 37.3,80.7 37.3,84 37.3,87.3 34,87.3 34,90.6 34,93.9 30.7,93.9 30.7,97.1 
				30.7,100.4 30.7,103.7 34,103.7 37.3,103.7 40.6,103.7 40.6,100.4 40.6,97.1 43.9,97.1 43.9,93.9 40.6,93.9 40.6,90.6 43.9,90.6 
				47.1,90.6 47.1,87.3 50.4,87.3 50.4,84 47.1,84 43.9,84 43.9,80.7 47.1,80.7 50.4,80.7 53.7,80.7 57,80.7 60.3,80.7 60.3,77.4 
				63.6,77.4 66.9,77.4 66.9,74.1 63.6,74.1 			"/>
			<rect x="40.6" y="64.3" fill="#EC1C24" width="3.3" height="3.3"/>
		</g>
		<rect x="40.6" y="57.7" fill="#F27D7E" width="3.3" height="3.3"/>
		<rect x="37.3" y="57.7" fill="#F27D7E" width="3.3" height="3.3"/>
		<g>
			<polygon fill="#650D0E" points="96.5,93.9 93.2,93.9 89.9,93.9 89.9,97.1 86.6,97.1 86.6,100.4 86.6,103.7 86.6,107 89.9,107 
				89.9,110.3 93.2,110.3 96.5,110.3 99.7,110.3 99.7,107 103,107 103,103.7 103,100.4 103,97.1 103,93.9 99.7,93.9 			"/>
			<rect x="73.4" y="64.3" fill="#650D0E" width="3.3" height="3.3"/>
			<polygon fill="#650D0E" points="109.6,54.4 109.6,57.7 109.6,61 106.3,61 103,61 103,64.3 103,67.6 99.7,67.6 96.5,67.6 
				96.5,70.8 93.2,70.8 89.9,70.8 86.6,70.8 83.3,70.8 83.3,67.6 80,67.6 76.7,67.6 76.7,70.8 80,70.8 80,74.1 83.3,74.1 83.3,77.4 
				86.6,77.4 86.6,80.7 89.9,80.7 93.2,80.7 93.2,77.4 96.5,77.4 99.7,77.4 99.7,74.1 103,74.1 106.3,74.1 106.3,70.8 109.6,70.8 
				109.6,67.6 112.9,67.6 112.9,64.3 112.9,61 112.9,57.7 112.9,54.4 			"/>
			<rect x="106.3" y="51.1" fill="#650D0E" width="3.3" height="3.3"/>
		</g>
		<g>
			<rect x="60" y="206" width="4" height="3"/>
			<rect x="57" y="202" width="3" height="4"/>
			<rect x="54" y="199" width="3" height="3"/>
			<rect x="64" y="196" width="3" height="3"/>
			<polygon points="64,189 60,189 60,186 57,186 57,189 54,189 54,192 57,192 57,196 60.3,196 64,196 64,192.5 			"/>
			<rect x="60" y="183" width="4" height="3"/>
			<rect x="54" y="183" width="3" height="3"/>
			<polygon points="43.9,183 41,183 41,186 43.9,186 47.1,186 50,186 50,183 47.1,183 			"/>
			<rect x="41" y="133" width="3" height="4"/>
			<polygon points="44,130 44,127 40.6,127 37,127 37,130 40.6,130 			"/>
			<rect x="41" y="35" width="3" height="3"/>
		</g>
		<g>
			<rect x="60.3" y="202.3" width="3.3" height="3.3"/>
			<rect x="53.7" y="202.3" width="3.3" height="3.3"/>
			<rect x="60.3" y="195.8" width="3.3" height="3.3"/>
			<rect x="53.7" y="195.8" width="3.3" height="3.3"/>
			<rect x="60.3" y="185.9" width="3.3" height="3.3"/>
			<rect x="53.7" y="185.9" width="3.3" height="3.3"/>
			<rect x="86.6" y="93.9" width="3.3" height="3.3"/>
			<polygon points="96.5,87.3 93.2,87.3 89.9,87.3 89.9,90.6 89.9,93.9 93.2,93.9 96.5,93.9 99.7,93.9 99.7,90.6 96.5,90.6 			"/>
			<polygon points="60.3,64.3 60.3,61 60.3,57.7 57,57.7 57,54.4 53.7,54.4 50.4,54.4 50.4,57.7 53.7,57.7 53.7,61 57,61 57,64.3 
							"/>
			<polygon points="106.3,54.4 106.3,51.1 103,51.1 103,47.8 99.7,47.8 96.5,47.8 93.2,47.8 89.9,47.8 86.6,47.8 83.3,47.8 
				83.3,51.1 80,51.1 76.7,51.1 76.7,54.4 73.4,54.4 70.2,54.4 70.2,57.7 66.9,57.7 66.9,61 70.2,61 70.2,64.3 73.4,64.3 76.7,64.3 
				76.7,67.6 80,67.6 83.3,67.6 83.3,70.8 86.6,70.8 89.9,70.8 93.2,70.8 96.5,70.8 96.5,67.6 99.7,67.6 103,67.6 103,64.3 103,61 
				106.3,61 109.6,61 109.6,57.7 109.6,54.4 			"/>
			<rect x="47.1" y="51.1" width="3.3" height="3.3"/>
			<rect x="43.9" y="47.8" width="3.3" height="3.3"/>
			<polygon points="24.1,31.4 20.8,31.4 20.8,34.7 24.1,34.7 27.4,34.7 30.7,34.7 30.7,31.4 27.4,31.4 			"/>
			<rect x="17.6" y="28.1" width="3.3" height="3.3"/>
		</g>
		<g>
			<polygon fill="#F7A27F" points="66.9,54.4 66.9,51.1 66.9,47.8 66.9,44.5 63.6,44.5 63.6,41.3 60.3,41.3 60.3,38 57,38 53.7,38 
				53.7,41.3 57,41.3 57,44.5 60.3,44.5 60.3,47.8 63.6,47.8 63.6,51.1 60.3,51.1 60.3,54.4 63.6,54.4 63.6,57.7 66.9,57.7 
				70.2,57.7 70.2,54.4 			"/>
			<polygon fill="#F7A27F" points="30.7,54.4 30.7,51.1 30.7,47.8 30.7,44.5 30.7,41.3 30.7,38 30.7,34.7 27.4,34.7 27.4,38 
				27.4,41.3 27.4,44.5 24.1,44.5 24.1,47.8 20.8,47.8 20.8,51.1 20.8,54.4 17.6,54.4 17.6,57.7 17.6,61 20.8,61 20.8,57.7 
				24.1,57.7 27.4,57.7 27.4,61 30.7,61 34,61 37.3,61 37.3,57.7 37.3,54.4 34,54.4 			"/>
			<polygon fill="#F7A27F" points="50.4,34.7 50.4,31.4 50.4,28.1 47.1,28.1 47.1,24.8 43.9,24.8 43.9,21.5 40.6,21.5 37.3,21.5 
				34,21.5 30.7,21.5 30.7,24.8 30.7,28.1 34,28.1 34,31.4 37.3,31.4 37.3,34.7 40.6,34.7 40.6,31.4 43.9,31.4 47.1,31.4 47.1,34.7 
				47.1,38 50.4,38 53.7,38 53.7,34.7 			"/>
			<rect x="34" y="34.7" fill="#F7A27F" width="3.3" height="3.3"/>
		</g>
		<g>
			<polygon fill="#FFFFFF" points="43.9,195.8 40.6,195.8 40.6,199 37.3,199 37.3,202.3 40.6,202.3 40.6,205.6 43.9,205.6 
				47.1,205.6 47.1,202.3 43.9,202.3 43.9,199 47.1,199 47.1,202.3 50.4,202.3 50.4,199 50.4,195.8 47.1,195.8 			"/>
			<polygon fill="#FFFFFF" points="63.6,185.9 63.6,189.2 63.6,192.5 66.9,192.5 66.9,189.2 66.9,185.9 66.9,182.6 63.6,182.6 			
				"/>
			<polygon fill="#FFFFFF" points="60.3,179.3 57,179.3 53.7,179.3 53.7,182.6 57,182.6 60.3,182.6 63.6,182.6 63.6,179.3 			"/>
			<polygon fill="#FFFFFF" points="40.6,182.6 43.9,182.6 47.1,182.6 47.1,179.3 43.9,179.3 40.6,179.3 37.3,179.3 37.3,176 34,176 
				30.7,176 30.7,179.3 30.7,182.6 34,182.6 37.3,182.6 			"/>
			<polygon fill="#FFFFFF" points="63.6,110.3 63.6,107 60.3,107 57,107 57,110.3 60.3,110.3 			"/>
			<polygon fill="#FFFFFF" points="53.7,107 50.4,107 47.1,107 47.1,110.3 50.4,110.3 53.7,110.3 			"/>
			<polygon fill="#FFFFFF" points="37.3,110.3 40.6,110.3 43.9,110.3 43.9,107 40.6,107 37.3,107 			"/>
			<polygon fill="#FFFFFF" points="34,107 34,103.7 30.7,103.7 27.4,103.7 27.4,107 30.7,107 			"/>
			<rect x="83.3" y="77.4" fill="#FFFFFF" width="3.3" height="3.3"/>
			<rect x="80" y="74.1" fill="#FFFFFF" width="3.3" height="3.3"/>
			<rect x="76.7" y="70.8" fill="#FFFFFF" width="3.3" height="3.3"/>
			<rect x="73.4" y="67.6" fill="#FFFFFF" width="3.3" height="3.3"/>
			<rect x="70.2" y="64.3" fill="#FFFFFF" width="3.3" height="3.3"/>
			<rect x="66.9" y="61" fill="#FFFFFF" width="3.3" height="3.3"/>
			<rect x="63.6" y="57.7" fill="#FFFFFF" width="3.3" height="3.3"/>
			<rect x="60.3" y="54.4" fill="#FFFFFF" width="3.3" height="3.3"/>
			<rect x="57" y="51.1" fill="#FFFFFF" width="3.3" height="3.3"/>
			<rect x="53.7" y="47.8" fill="#FFFFFF" width="3.3" height="3.3"/>
			<rect x="50.4" y="44.5" fill="#FFFFFF" width="3.3" height="3.3"/>
			<rect x="47.1" y="41.3" fill="#FFFFFF" width="3.3" height="3.3"/>
			<polygon fill="#FFFFFF" points="27.4,28.1 27.4,24.8 30.7,24.8 30.7,21.5 34,21.5 37.3,21.5 37.3,18.2 34,18.2 30.7,18.2 
				30.7,15 27.4,15 24.1,15 20.8,15 17.6,15 17.6,18.2 17.6,21.5 20.8,21.5 20.8,24.8 24.1,24.8 24.1,28.1 			"/>
		</g>
		<g>
			<rect x="57" y="205.6" fill="#030203" width="3.3" height="3.3"/>
			<polygon fill="#030203" points="60.3,199 60.3,195.8 57,195.8 57,199 57,202.3 60.3,202.3 63.6,202.3 63.6,205.6 66.9,205.6 
				66.9,202.3 66.9,199 63.6,199 			"/>
			<rect x="57" y="182.6" fill="#030203" width="3.3" height="3.3"/>
			<polygon fill="#030203" points="34,182.6 34,185.9 37.3,185.9 40.6,185.9 40.6,182.6 37.3,182.6 			"/>
			<rect x="40.6" y="136.6" fill="#030203" width="3.3" height="3.3"/>
			<rect x="40.6" y="130" fill="#030203" width="3.3" height="3.3"/>
			<rect x="89.9" y="84" fill="#030203" width="3.3" height="3.3"/>
			<rect x="86.6" y="80.7" fill="#030203" width="3.3" height="3.3"/>
			<rect x="43.9" y="38" fill="#030203" width="3.3" height="3.3"/>
			<rect x="17.6" y="11.7" fill="#030203" width="3.3" height="3.3"/>
		</g>
		<g>
			<rect x="64" y="206" fill="#8F9090" width="3" height="3"/>
			<rect x="37" y="202" fill="#8F9090" width="4" height="4"/>
			<polygon fill="#8F9090" points="50,202 47,202 47,206 43.9,206 41,206 41,209 43.9,209 47.1,209 50,209 50,206 54,206 54,202.3 
				54,199 50,199 			"/>
			<polygon fill="#8F9090" points="64,192 64,196 67,196 67,199 67,202.3 67,206 70,206 70,202.3 70,199 70,195.8 70,192 66.9,192 
							"/>
			<rect x="47" y="179" fill="#8F9090" width="3" height="4"/>
			<polygon fill="#8F9090" points="43.9,179 47,179 47,176 43.9,176 40.6,176 37,176 37,179 40.6,179 			"/>
			<rect x="80" y="77" fill="#8F9090" width="3" height="4"/>
			<rect x="77" y="74" fill="#8F9090" width="3" height="3"/>
			<rect x="73" y="71" fill="#8F9090" width="4" height="3"/>
			<rect x="70" y="68" fill="#8F9090" width="3" height="3"/>
			<polygon fill="#8F9090" points="24,25 21,25 21,22 18,22 18,18 14,18 14,21.5 14,25 18,25 18,28 21,28 21,31 24.1,31 27,31 
				27,28 24,28 			"/>
		</g>
		<g>
			<polygon fill="#B56F58" points="63.6,61 63.6,57.7 60.3,57.7 60.3,61 60.3,64.3 63.6,64.3 66.9,64.3 66.9,61 			"/>
			<polygon fill="#B56F58" points="27.4,57.7 24.1,57.7 20.8,57.7 20.8,61 17.6,61 17.6,64.3 17.6,67.6 20.8,67.6 20.8,70.8 
				24.1,70.8 24.1,74.1 27.4,74.1 27.4,70.8 27.4,67.6 27.4,64.3 30.7,64.3 30.7,61 27.4,61 			"/>
			<rect x="57" y="54.4" fill="#B56F58" width="3.3" height="3.3"/>
			<polygon fill="#B56F58" points="17.6,54.4 20.8,54.4 20.8,51.1 20.8,47.8 24.1,47.8 24.1,44.5 27.4,44.5 27.4,41.3 27.4,38 
				27.4,34.7 24.1,34.7 20.8,34.7 20.8,31.4 17.6,31.4 17.6,34.7 17.6,38 17.6,41.3 17.6,44.5 14.3,44.5 14.3,47.8 14.3,51.1 
				14.3,54.4 14.3,57.7 14.3,61 17.6,61 17.6,57.7 			"/>
			<polygon fill="#B56F58" points="53.7,51.1 53.7,47.8 50.4,47.8 50.4,44.5 47.1,44.5 47.1,41.3 43.9,41.3 43.9,38 40.6,38 
				40.6,41.3 40.6,44.5 43.9,44.5 43.9,47.8 47.1,47.8 47.1,51.1 50.4,51.1 50.4,54.4 53.7,54.4 57,54.4 57,51.1 			"/>
			<polygon fill="#B56F58" points="50.4,41.3 50.4,44.5 53.7,44.5 53.7,47.8 57,47.8 57,51.1 60.3,51.1 63.6,51.1 63.6,47.8 
				60.3,47.8 60.3,44.5 57,44.5 57,41.3 53.7,41.3 53.7,38 50.4,38 47.1,38 47.1,41.3 			"/>
			<polygon fill="#B56F58" points="43.9,38 47.1,38 47.1,34.7 47.1,31.4 43.9,31.4 40.6,31.4 40.6,34.7 43.9,34.7 			"/>
			<rect x="37.3" y="34.7" fill="#B56F58" width="3.3" height="3.3"/>
			<polygon fill="#B56F58" points="34,31.4 34,28.1 30.7,28.1 30.7,24.8 27.4,24.8 27.4,28.1 27.4,31.4 30.7,31.4 30.7,34.7 
				34,34.7 37.3,34.7 37.3,31.4 			"/>
		</g>
	</g>
</g>
</svg>
