<?xml version="1.0" encoding="utf-8"?>
<!-- Generator: Adobe Illustrator 18.1.1, SVG Export Plug-In . SVG Version: 6.00 Build 0)  -->
<svg version="1.1" id="Layer_1" xmlns="http://www.w3.org/2000/svg" xmlns:xlink="http://www.w3.org/1999/xlink" x="0px" y="0px"
	 viewBox="0 0 136.9 109.5" enable-background="new 0 0 136.9 109.5" xml:space="preserve">
<rect x="2" y="1.9" fill="#1A1751" width="132.5" height="54.5"/>
<rect x="2" y="2.8" fill="#0F1041" width="132.5" height="18"/>
<rect x="2" y="1.9" fill="#0F1041" width="132.5" height="105.3"/>
<rect x="2" y="1.9" fill="#1A1751" width="132.5" height="54.5"/>
<rect x="2" y="2.8" fill="#0F1041" width="132.5" height="18"/>
<rect x="2" y="89.3" fill="#0A0B14" width="132.5" height="18"/>
<g>
	<g>
		<path fill="#0ABBDD" d="M40.4,50.5V30.4h2.9v-2.9h11.5v2.9h2.9v20.1h-5.8v-5.8h-5.8v5.8H40.4z M51.9,39v-5.8h-5.8V39H51.9z"/>
		<path fill="#0ABBDD" d="M59.1,50.5v-23h5.8v17.2h11.5v5.8H59.1z"/>
		<path fill="#0ABBDD" d="M77.8,50.5v-23h5.8v17.2H95v5.8H77.8z"/>
		<path fill="#0ABBDD" d="M24.6,78.1v-2.9h-2.9V58h2.9v-2.9H39v5.8H27.5v11.5h5.7v-5.8H39v11.5H24.6z"/>
		<path fill="#0ABBDD" d="M40.4,78.1V58h2.9v-2.9h11.5V58h2.9v20.1h-5.8v-5.8h-5.8v5.8H40.4z M51.9,66.6v-5.8h-5.8v5.8H51.9z"/>
		<path fill="#0ABBDD" d="M59.1,78.1v-23h5.8V58h5.8v-2.9h5.8v23h-5.8V63.7h-1.4v2.9h-2.9v-2.9h-1.4v14.4H59.1z"/>
		<path fill="#0ABBDD" d="M77.8,78.1v-23H95v5.8H83.5v2.9h8.6v5.8h-8.6v2.9H95v5.8H77.8z"/>
		<path fill="#0ABBDD" d="M96.4,78.1v-5.8h11.5v-2.9H96.4V58h2.9v-2.9h14.4v5.8h-11.5v2.9h11.5v11.5h-2.9v2.9H96.4z"/>
	</g>
	<g>
		<g>
			<path fill="#FFFFFF" d="M40.4,47.5V27.4h2.9v-2.9h11.5v2.9h2.9v20.1h-5.8v-5.8h-5.8v5.8H40.4z M51.9,36v-5.8h-5.8V36H51.9z"/>
			<path fill="#FFFFFF" d="M59.1,47.5v-23h5.8v17.2h11.5v5.8H59.1z"/>
			<path fill="#FFFFFF" d="M77.8,47.5v-23h5.8v17.2H95v5.8H77.8z"/>
			<path fill="#FFFFFF" d="M24.6,75.1v-2.9h-2.9V55h2.9v-2.9H39v5.8H27.5v11.5h5.7v-5.8H39v11.5H24.6z"/>
			<path fill="#FFFFFF" d="M40.4,75.1V55h2.9v-2.9h11.5V55h2.9v20.1h-5.8v-5.8h-5.8v5.8H40.4z M51.9,63.6v-5.8h-5.8v5.8H51.9z"/>
			<path fill="#FFFFFF" d="M59.1,75.1v-23h5.8V55h5.8v-2.9h5.8v23h-5.8V60.7h-1.4v2.9h-2.9v-2.9h-1.4v14.4H59.1z"/>
			<path fill="#FFFFFF" d="M77.8,75.1v-23H95v5.8H83.5v2.9h8.6v5.8h-8.6v2.9H95v5.8H77.8z"/>
			<path fill="#FFFFFF" d="M96.4,75.1v-5.8h11.5v-2.9H96.4V55h2.9v-2.9h14.4v5.8h-11.5v2.9h11.5v11.5h-2.9v2.9H96.4z"/>
		</g>
	</g>
</g>
<g>
	<rect x="30" y="42.2" fill="#5C2101" width="3.2" height="3.2"/>
	<rect x="33.2" y="39" fill="#412700" width="3.2" height="3.2"/>
	<rect x="14.2" y="39" fill="#451F08" width="3.2" height="3.2"/>
	<rect x="20.5" y="35.8" fill="#224B47" width="3.2" height="3.2"/>
	<rect x="36.4" y="32.7" fill="#302414" width="3.2" height="3.2"/>
	<rect x="23.7" y="32.7" fill="#969499" width="3.2" height="3.2"/>
	<rect x="20.5" y="32.7" fill="#99919E" width="3.2" height="3.2"/>
	<rect x="39.5" y="29.5" fill="#4C1707" width="3.2" height="3.2"/>
	<rect x="23.7" y="29.5" fill="#9597A4" width="3.2" height="3.2"/>
	<rect x="20.5" y="29.5" fill="#92929C" width="3.2" height="3.2"/>
	<rect x="14.2" y="29.5" fill="#000400" width="3.2" height="3.2"/>
	<rect x="7.9" y="29.5" fill="#9C959D" width="3.2" height="3.2"/>
	<rect x="39.5" y="26.3" fill="#955300" width="3.2" height="3.2"/>
	<rect x="36.4" y="26.3" fill="#FE6507" width="3.2" height="3.2"/>
	<rect x="39.5" y="19.9" fill="#91520D" width="3.2" height="3.2"/>
	<g>
		<rect x="33.2" y="42.2" fill="#A44106" width="3.2" height="3.2"/>
		<rect x="33.2" y="35.8" fill="#A44106" width="3.2" height="3.2"/>
		<rect x="33.2" y="26.3" fill="#A44106" width="3.2" height="3.2"/>
		<rect x="39.5" y="23.1" fill="#A44106" width="3.2" height="3.2"/>
		<rect x="39.5" y="16.7" fill="#A44106" width="3.2" height="3.2"/>
	</g>
	<rect x="39.5" y="13.5" fill="#904800" width="3.2" height="3.2"/>
	<g>
		<rect x="11" y="23.1" fill="#F2FAD3" width="3.2" height="3.2"/>
		<polygon fill="#F2FAD3" points="11,16.7 7.9,16.7 7.9,19.9 11,19.9 14.2,19.9 14.2,16.7 		"/>
		<polygon fill="#F2FAD3" points="11,13.5 11,10.3 7.9,10.3 4.7,10.3 4.7,13.5 7.9,13.5 		"/>
	</g>
	<rect x="42.7" y="7.1" fill="#974806" width="3.2" height="3.2"/>
	<g>
		<polygon fill="#FC9641" points="33.2,29.5 33.2,32.7 33.2,35.8 36.4,35.8 36.4,32.7 39.5,32.7 39.5,29.5 36.4,29.5 		"/>
		<rect x="42.7" y="10.3" fill="#FC9641" width="3.2" height="3.2"/>
		<polygon fill="#FC9641" points="36.4,13.5 36.4,16.7 36.4,19.9 36.4,23.1 36.4,26.3 39.5,26.3 39.5,23.1 39.5,19.9 39.5,16.7 
			39.5,13.5 39.5,10.3 36.4,10.3 		"/>
		<rect x="39.5" y="7.1" fill="#FC9641" width="3.2" height="3.2"/>
	</g>
	<rect x="36.4" y="7.1" fill="#924801" width="3.2" height="3.2"/>
	<g>
		<rect x="30" y="26.3" fill="#FFFE09" width="3.2" height="3.2"/>
		<polygon fill="#FFFE09" points="49.1,19.9 45.9,19.9 42.7,19.9 42.7,23.1 45.9,23.1 49.1,23.1 52.2,23.1 52.2,19.9 		"/>
		<rect x="33.2" y="19.9" fill="#FFFE09" width="3.2" height="3.2"/>
		<polygon fill="#FFFE09" points="30,19.9 30,16.7 26.9,16.7 23.7,16.7 23.7,13.5 20.5,13.5 20.5,10.3 23.7,10.3 26.9,10.3 
			26.9,7.1 23.7,7.1 20.5,7.1 17.4,7.1 17.4,10.3 17.4,13.5 17.4,16.7 17.4,19.9 20.5,19.9 20.5,23.1 23.7,23.1 23.7,26.3 
			26.9,26.3 30,26.3 30,23.1 		"/>
		<rect x="45.9" y="10.3" fill="#FFFE09" width="3.2" height="3.2"/>
	</g>
	<rect x="14.2" y="7.1" fill="#010000" width="3.2" height="3.2"/>
	<g>
		<rect x="23.7" y="35.8" fill="#1A454B" width="3.2" height="3.2"/>
		<rect x="26.9" y="32.7" fill="#1A454B" width="3.2" height="3.2"/>
		<polygon fill="#1A454B" points="14.2,32.7 14.2,35.8 17.4,35.8 20.5,35.8 20.5,32.7 17.4,32.7 		"/>
		<rect x="7.9" y="32.7" fill="#1A454B" width="3.2" height="3.2"/>
		<rect x="11" y="7.1" fill="#1A454B" width="3.2" height="3.2"/>
	</g>
	<g>
		<rect x="11" y="32.7" fill="#02459C" width="3.2" height="3.2"/>
		<polygon fill="#02459C" points="30,29.5 30,32.7 30,35.8 26.9,35.8 26.9,39 23.7,39 20.5,39 20.5,35.8 17.4,35.8 14.2,35.8 
			14.2,39 17.4,39 17.4,42.2 20.5,42.2 23.7,42.2 26.9,42.2 30,42.2 33.2,42.2 33.2,39 33.2,35.8 33.2,32.7 33.2,29.5 		"/>
		<polygon fill="#02459C" points="4.7,32.7 4.7,35.8 7.9,35.8 7.9,32.7 7.9,29.5 4.7,29.5 		"/>
		<rect x="26.9" y="26.3" fill="#02459C" width="3.2" height="3.2"/>
		<polygon fill="#02459C" points="17.4,26.3 20.5,26.3 20.5,23.1 20.5,19.9 17.4,19.9 17.4,23.1 		"/>
		<polygon fill="#02459C" points="17.4,16.7 17.4,13.5 17.4,10.3 14.2,10.3 14.2,13.5 14.2,16.7 14.2,19.9 17.4,19.9 		"/>
		<rect x="7.9" y="7.1" fill="#02459C" width="3.2" height="3.2"/>
	</g>
	<g>
		<rect x="26.9" y="29.5" fill="#0ABBDD" width="3.2" height="3.2"/>
		<rect x="11" y="29.5" fill="#0ABBDD" width="3.2" height="3.2"/>
		<polygon fill="#0ABBDD" points="23.7,26.3 23.7,23.1 20.5,23.1 20.5,26.3 17.4,26.3 17.4,23.1 17.4,19.9 14.2,19.9 11,19.9 
			11,23.1 14.2,23.1 14.2,26.3 14.2,29.5 17.4,29.5 17.4,32.7 20.5,32.7 20.5,29.5 23.7,29.5 26.9,29.5 26.9,26.3 		"/>
		<rect x="30" y="19.9" fill="#0ABBDD" width="3.2" height="3.2"/>
		<polygon fill="#0ABBDD" points="14.2,16.7 14.2,13.5 14.2,10.3 11,10.3 11,13.5 7.9,13.5 7.9,16.7 11,16.7 		"/>
		<rect x="39.5" y="10.3" fill="#0ABBDD" width="3.2" height="3.2"/>
		<polygon fill="#0ABBDD" points="26.9,13.5 26.9,10.3 23.7,10.3 20.5,10.3 20.5,13.5 23.7,13.5 		"/>
		<rect x="4.7" y="7.1" fill="#0ABBDD" width="3.2" height="3.2"/>
	</g>
</g>
<g>
	<rect x="121.3" y="101.7" fill="#4D1F05" width="3.2" height="3.2"/>
	<rect x="115" y="101.7" fill="#3E2300" width="3.2" height="3.2"/>
	<rect x="111.8" y="101.7" fill="#3F2400" width="3.2" height="3.2"/>
	<rect x="105.5" y="101.7" fill="#481B00" width="3.2" height="3.2"/>
	<rect x="130.9" y="98.5" fill="#0E3F00" width="3.2" height="3.2"/>
	<rect x="127.7" y="98.5" fill="#1E4C04" width="3.2" height="3.2"/>
	<rect x="121.3" y="98.5" fill="#3E2200" width="3.2" height="3.2"/>
	<rect x="111.8" y="98.5" fill="#561C00" width="3.2" height="3.2"/>
	<rect x="108.7" y="98.5" fill="#4A2007" width="3.2" height="3.2"/>
	<rect x="105.5" y="98.5" fill="#472200" width="3.2" height="3.2"/>
	<rect x="99.2" y="98.5" fill="#472003" width="3.2" height="3.2"/>
	<rect x="96" y="98.5" fill="#000107" width="3.2" height="3.2"/>
	<rect x="124.5" y="95.3" fill="#20480A" width="3.2" height="3.2"/>
	<rect x="121.3" y="95.3" fill="#00040F" width="3.2" height="3.2"/>
	<rect x="105.5" y="95.3" fill="#000B02" width="3.2" height="3.2"/>
	<rect x="102.3" y="95.3" fill="#FFFFE6" width="3.2" height="3.2"/>
	<rect x="99.2" y="95.3" fill="#FBFFDA" width="3.2" height="3.2"/>
	<rect x="89.7" y="95.3" fill="#452202" width="3.2" height="3.2"/>
	<rect x="121.3" y="92.2" fill="#194632" width="3.2" height="3.2"/>
	<rect x="105.5" y="92.2" fill="#1D4100" width="3.2" height="3.2"/>
	<rect x="102.3" y="92.2" fill="#254502" width="3.2" height="3.2"/>
	<rect x="99.2" y="92.2" fill="#9B9E8B" width="3.2" height="3.2"/>
	<polygon fill="#F2FF01" points="86.5,92.2 86.5,95.3 86.5,98.5 89.7,98.5 89.7,95.3 89.7,92.2 	"/>
	<rect x="102.3" y="89" fill="#9B919A" width="3.2" height="3.2"/>
	<rect x="96" y="89" fill="#422100" width="3.2" height="3.2"/>
	<g>
		<rect x="96" y="101.7" fill="#9F5003" width="3.2" height="3.2"/>
		<polygon fill="#9F5003" points="118.2,98.5 115,98.5 115,101.7 118.2,101.7 118.2,104.9 121.3,104.9 121.3,101.7 121.3,98.5 		"/>
		<rect x="102.3" y="98.5" fill="#9F5003" width="3.2" height="3.2"/>
		<polygon fill="#9F5003" points="96,89 92.8,89 92.8,92.2 92.8,95.3 96,95.3 99.2,95.3 99.2,92.2 96,92.2 		"/>
	</g>
	<g>
		<polygon fill="#F89949" points="96,95.3 92.8,95.3 92.8,98.5 96,98.5 99.2,98.5 99.2,95.3 		"/>
		<polygon fill="#F89949" points="92.8,89 89.7,89 89.7,92.2 89.7,95.3 92.8,95.3 92.8,92.2 		"/>
	</g>
	<rect x="127.7" y="85.8" fill="#05DB55" width="3.2" height="3.2"/>
	<rect x="124.5" y="85.8" fill="#194A00" width="3.2" height="3.2"/>
	<polygon fill="#214603" points="115,85.8 115,89 111.8,89 108.7,89 105.5,89 105.5,92.2 108.7,92.2 108.7,95.3 111.8,95.3 
		115,95.3 115,92.2 118.2,92.2 118.2,89 118.2,85.8 	"/>
	<rect x="99.2" y="85.8" fill="#402510" width="3.2" height="3.2"/>
	<rect x="127.7" y="82.6" fill="#174505" width="3.2" height="3.2"/>
	<rect x="118.2" y="82.6" fill="#224D00" width="3.2" height="3.2"/>
	<rect x="108.7" y="82.6" fill="#1D4E00" width="3.2" height="3.2"/>
	<rect x="105.5" y="82.6" fill="#4D1E02" width="3.2" height="3.2"/>
	<rect x="130.9" y="79.4" fill="#214D00" width="3.2" height="3.2"/>
	<rect x="124.5" y="79.4" fill="#070013" width="3.2" height="3.2"/>
	<g>
		<rect x="127.7" y="101.7" fill="#274756" width="3.2" height="3.2"/>
		<rect x="124.5" y="98.5" fill="#274756" width="3.2" height="3.2"/>
		<rect x="118.2" y="95.3" fill="#274756" width="3.2" height="3.2"/>
		<rect x="111.8" y="95.3" fill="#274756" width="3.2" height="3.2"/>
		<polygon fill="#274756" points="118.2,79.4 115,79.4 111.8,79.4 111.8,82.6 111.8,85.8 108.7,85.8 108.7,89 111.8,89 115,89 
			115,85.8 115,82.6 118.2,82.6 		"/>
	</g>
	<rect x="88.5" y="79.4" fill="#FBF8D7" width="23.4" height="3.2"/>
	<rect x="130.9" y="76.3" fill="#00DC49" width="3.2" height="3.2"/>
	<rect x="127.7" y="76.3" fill="#050003" width="3.2" height="3.2"/>
	<rect x="118.2" y="76.3" fill="#284E00" width="3.2" height="3.2"/>
	<rect x="130.9" y="73.1" fill="#244A00" width="3.2" height="3.2"/>
	<rect x="121.3" y="73.1" fill="#1D4C08" width="3.2" height="3.2"/>
	<g>
		<rect x="108.7" y="95.3" fill="#1C4207" width="3.2" height="3.2"/>
		<rect x="118.2" y="89" fill="#1C4207" width="3.2" height="3.2"/>
		<rect x="99.2" y="89" fill="#1C4207" width="3.2" height="3.2"/>
		<polygon fill="#1C4207" points="108.7,85.8 105.5,85.8 102.3,85.8 102.3,89 105.5,89 108.7,89 		"/>
		<rect x="115" y="82.6" fill="#1C4207" width="3.2" height="3.2"/>
		<polygon fill="#1C4207" points="121.3,79.4 118.2,79.4 118.2,82.6 121.3,82.6 124.5,82.6 124.5,79.4 		"/>
		<rect x="115" y="76.3" fill="#1C4207" width="3.2" height="3.2"/>
		<rect x="118.2" y="73.1" fill="#1C4207" width="3.2" height="3.2"/>
	</g>
	<rect x="127.7" y="69.9" fill="#07E246" width="3.2" height="3.2"/>
	<rect x="124.5" y="69.9" fill="#000900" width="3.2" height="3.2"/>
	<rect x="118.2" y="69.9" fill="#2D3900" width="3.2" height="3.2"/>
	<polygon fill="#034B93" points="111.8,69.9 108.7,69.9 108.7,73.1 111.8,73.1 115,73.1 115,69.9 	"/>
	<g>
		<polygon fill="#046047" points="115,92.2 115,95.3 115,98.5 118.2,98.5 118.2,95.3 121.3,95.3 121.3,92.2 118.2,92.2 		"/>
		<rect x="130.9" y="82.6" fill="#046047" width="3.2" height="3.2"/>
		<polygon fill="#046047" points="121.3,82.6 121.3,85.8 118.2,85.8 118.2,89 121.3,89 121.3,92.2 124.5,92.2 127.7,92.2 127.7,89 
			124.5,89 124.5,85.8 127.7,85.8 127.7,82.6 124.5,82.6 		"/>
		<rect x="127.7" y="79.4" fill="#046047" width="3.2" height="3.2"/>
		<polygon fill="#046047" points="124.5,73.1 124.5,76.3 121.3,76.3 121.3,79.4 124.5,79.4 127.7,79.4 127.7,76.3 130.9,76.3 
			130.9,73.1 127.7,73.1 		"/>
		<rect x="121.3" y="69.9" fill="#046047" width="3.2" height="3.2"/>
		<polygon fill="#046047" points="130.9,66.7 130.9,69.9 130.9,73.1 134,73.1 134,69.9 134,66.7 		"/>
		<rect x="124.5" y="66.7" fill="#046047" width="3.2" height="3.2"/>
	</g>
	<rect x="121.3" y="66.7" fill="#244800" width="3.2" height="3.2"/>
	<polygon fill="#FC1E07" points="115,66.7 111.8,66.7 108.7,66.7 108.7,69.9 111.8,69.9 115,69.9 115,73.1 111.8,73.1 111.8,76.3 
		108.7,76.3 105.5,76.3 105.5,79.4 108.7,79.4 111.8,79.4 115,79.4 115,76.3 118.2,76.3 118.2,73.1 118.2,69.9 118.2,66.7 	"/>
</g>
<rect x="2" y="1.9" fill="none" stroke="#FFFF00" stroke-width="4" stroke-miterlimit="10" width="132.5" height="105.3"/>
</svg>
