<?xml version="1.0" encoding="utf-8"?>
<!-- Generator: Adobe Illustrator 18.1.1, SVG Export Plug-In . SVG Version: 6.00 Build 0)  -->
<svg version="1.1" id="Layer_1" xmlns="http://www.w3.org/2000/svg" xmlns:xlink="http://www.w3.org/1999/xlink" x="0px" y="0px"
	 viewBox="0 0 562 99.8" enable-background="new 0 0 562 99.8" xml:space="preserve">
<g>
	<g>
		<path fill="#FF0000" d="M0,99.8V78h43.7V67H0V23.4h10.9V12.4h54.6v21.8H21.8v10.9h43.7v43.7H54.6v10.9H0z"/>
		<path fill="#FF0000" d="M70.9,99.8V12.4h21.8v32.8h21.8V12.4h21.8v87.4h-21.8V67H92.8v32.8H70.9z"/>
		<path fill="#FF0000" d="M152.8,99.8V88.9h-10.9V23.4h10.9V12.4h43.7v10.9h10.9v65.5h-10.9v10.9H152.8z M185.5,78V34.3h-21.8V78
			H185.5z"/>
		<path fill="#FF0000" d="M223.7,99.8V88.9h-10.9V23.4h10.9V12.4h43.7v10.9h10.9v65.5h-10.9v10.9H223.7z M256.5,78V34.3h-21.8V78
			H256.5z"/>
		<path fill="#FF0000" d="M305.5,99.8V34.3h-21.8V12.4h65.5v21.8h-21.8v65.5H305.5z"/>
		<path fill="#FF0000" d="M354.6,99.8V12.4h65.5v21.8h-43.7v10.9h32.8V67h-32.8V78h43.7v21.8H354.6z"/>
		<path fill="#FF0000" d="M425.5,99.8V12.4h54.6v10.9h10.9v32.8h-10.9V78h10.9v21.8h-21.8V88.9h-10.9V78h-10.9v21.8H425.5z
			 M469.2,56.1V34.3h-21.8v21.8H469.2z"/>
		<path fill="#FF0000" d="M496.5,99.8V78h43.7V67h-43.7V23.4h10.9V12.4H562v21.8h-43.7v10.9H562v43.7h-10.9v10.9H496.5z"/>
	</g>
	<g>
		<path fill="#FFFFFF" d="M0,87.4V65.5h43.7V54.6H0V10.9h10.9V0h54.6v21.8H21.8v10.9h43.7v43.7H54.6v10.9H0z"/>
		<path fill="#FFFFFF" d="M70.9,87.4V0h21.8v32.8h21.8V0h21.8v87.4h-21.8V54.6H92.8v32.8H70.9z"/>
		<path fill="#FFFFFF" d="M152.8,87.4V76.5h-10.9V10.9h10.9V0h43.7v10.9h10.9v65.5h-10.9v10.9H152.8z M185.5,65.5V21.8h-21.8v43.7
			H185.5z"/>
		<path fill="#FFFFFF" d="M223.7,87.4V76.5h-10.9V10.9h10.9V0h43.7v10.9h10.9v65.5h-10.9v10.9H223.7z M256.5,65.5V21.8h-21.8v43.7
			H256.5z"/>
		<path fill="#FFFFFF" d="M305.5,87.4V21.8h-21.8V0h65.5v21.8h-21.8v65.5H305.5z"/>
		<path fill="#FFFFFF" d="M354.6,87.4V0h65.5v21.8h-43.7v10.9h32.8v21.8h-32.8v10.9h43.7v21.8H354.6z"/>
		<path fill="#FFFFFF" d="M425.5,87.4V0h54.6v10.9h10.9v32.8h-10.9v21.9h10.9v21.8h-21.8V76.5h-10.9V65.5h-10.9v21.8H425.5z
			 M469.2,43.7V21.8h-21.8v21.8H469.2z"/>
		<path fill="#FFFFFF" d="M496.5,87.4V65.5h43.7V54.6h-43.7V10.9h10.9V0H562v21.8h-43.7v10.9H562v43.7h-10.9v10.9H496.5z"/>
	</g>
</g>
</svg>
