<?xml version="1.0" encoding="utf-8"?>
<!-- Generator: Adobe Illustrator 18.1.1, SVG Export Plug-In . SVG Version: 6.00 Build 0)  -->
<svg version="1.1" id="Layer_1" xmlns="http://www.w3.org/2000/svg" xmlns:xlink="http://www.w3.org/1999/xlink" x="0px" y="0px"
	 viewBox="0 0 136.9 109.5" enable-background="new 0 0 136.9 109.5" xml:space="preserve">
<rect x="2" y="1.9" fill="#1A1751" width="132.5" height="54.5"/>
<rect x="2" y="2.8" fill="#0F1041" width="132.5" height="18"/>
<rect x="2" y="1.9" fill="#0F1041" width="132.5" height="105.3"/>
<rect x="2" y="1.9" fill="#1A1751" width="132.5" height="54.5"/>
<rect x="2" y="89.3" fill="#0A0B14" width="132.5" height="18"/>
<rect x="2" y="2.8" fill="#0F1041" width="132.5" height="18"/>
<g>
	<rect x="54.3" y="42.4" fill="#E6E4E7" width="1.7" height="1.7"/>
	<rect x="10.4" y="82.6" fill="#EB2226" width="1.7" height="1.7"/>
	<rect x="89.8" y="41.3" fill="#E6E4E7" width="1.7" height="1.7"/>
	<rect x="107.8" y="76.7" fill="#F6EB0F" width="1.7" height="1.7"/>
	<rect x="72.9" y="71.9" fill="#E16FAA" width="1.7" height="1.7"/>
	<rect x="77.1" y="55.9" fill="#E6E4E7" width="1.7" height="1.7"/>
	<rect x="20.9" y="42.1" fill="#F6EB0F" width="1.7" height="1.7"/>
	<rect x="43.4" y="78.7" fill="#E6E4E7" width="1.7" height="1.7"/>
	<rect x="28.4" y="69.9" fill="#E16FAA" width="1.7" height="1.7"/>
	<rect x="5" y="99.2" fill="#F6EB0F" width="1.7" height="1.7"/>
	<rect x="114.6" y="100.1" fill="#E6E4E7" width="1.7" height="1.7"/>
	<rect x="124.1" y="78.7" fill="#F6EB0F" width="1.7" height="1.7"/>
	<rect x="116.6" y="40.4" fill="#3176BA" width="1.7" height="1.7"/>
	<rect x="48.7" y="103.1" fill="#E6E4E7" width="1.7" height="1.7"/>
	<rect x="3.3" y="88.4" fill="#E6E4E7" width="1.7" height="1.7"/>
	<rect x="79.4" y="81.7" fill="#F6EB0F" width="1.7" height="1.7"/>
	<rect x="123.8" y="95.9" fill="#E16FAA" width="1.7" height="1.7"/>
	<rect x="111.6" y="83.4" fill="#5CB947" width="1.7" height="1.7"/>
	<rect x="123.2" y="74.2" fill="#EB2226" width="1.7" height="1.7"/>
	<rect x="110.7" y="42.9" fill="#E6E4E7" width="1.7" height="1.7"/>
	<rect x="74.3" y="39.6" fill="#5CB947" width="1.7" height="1.7"/>
	<rect x="80.2" y="74.7" fill="#3176BA" width="1.7" height="1.7"/>
	<rect x="89" y="68.3" fill="#E6E4E7" width="1.7" height="1.7"/>
	<rect x="52.1" y="77.9" fill="#5CB947" width="1.7" height="1.7"/>
	<rect x="5" y="71.5" fill="#3176BA" width="1.7" height="1.7"/>
	<rect x="19.3" y="82.6" fill="#5CB947" width="1.7" height="1.7"/>
	<rect x="12.1" y="95.9" fill="#E6E4E7" width="1.7" height="1.7"/>
	<rect x="13.1" y="19" fill="#EB2226" width="1.7" height="1.7"/>
	<rect x="110.5" y="13.2" fill="#F6EB0F" width="1.7" height="1.7"/>
	<rect x="75.6" y="8.3" fill="#E16FAA" width="1.7" height="1.7"/>
	<rect x="46.1" y="15.1" fill="#E6E4E7" width="1.7" height="1.7"/>
	<rect x="31.1" y="6.3" fill="#E16FAA" width="1.7" height="1.7"/>
	<rect x="7.6" y="35.7" fill="#F6EB0F" width="1.7" height="1.7"/>
	<rect x="117.2" y="36.5" fill="#E6E4E7" width="1.7" height="1.7"/>
	<rect x="126.7" y="15.1" fill="#F6EB0F" width="1.7" height="1.7"/>
	<rect x="51.3" y="39.6" fill="#E6E4E7" width="1.7" height="1.7"/>
	<rect x="6" y="24.8" fill="#E6E4E7" width="1.7" height="1.7"/>
	<rect x="82" y="18.2" fill="#F6EB0F" width="1.7" height="1.7"/>
	<rect x="126.4" y="32.3" fill="#E16FAA" width="1.7" height="1.7"/>
	<rect x="114.2" y="19.8" fill="#5CB947" width="1.7" height="1.7"/>
	<rect x="125.9" y="10.7" fill="#EB2226" width="1.7" height="1.7"/>
	<rect x="82.9" y="11.2" fill="#3176BA" width="1.7" height="1.7"/>
	<rect x="91.7" y="4.7" fill="#E6E4E7" width="1.7" height="1.7"/>
	<rect x="54.7" y="14.3" fill="#5CB947" width="1.7" height="1.7"/>
	<rect x="7.6" y="7.9" fill="#3176BA" width="1.7" height="1.7"/>
	<rect x="21.9" y="19" fill="#5CB947" width="1.7" height="1.7"/>
	<rect x="14.7" y="32.3" fill="#E6E4E7" width="1.7" height="1.7"/>
	<rect x="133.2" y="102" fill="#E6E4E7" width="1.7" height="1.7"/>
	<rect x="130.1" y="36.1" fill="#E6E4E7" width="1.7" height="1.7"/>
	<rect x="46.1" y="26.5" fill="#E6E4E7" width="1.7" height="1.7"/>
	<rect x="33.4" y="41.2" fill="#E6E4E7" width="1.7" height="1.7"/>
	<rect x="72.9" y="25.7" fill="#3176BA" width="1.7" height="1.7"/>
	<rect x="67" y="28.2" fill="#E6E4E7" width="1.7" height="1.7"/>
	<rect x="30.6" y="24.9" fill="#5CB947" width="1.7" height="1.7"/>
	<rect x="73.5" y="21.8" fill="#E6E4E7" width="1.7" height="1.7"/>
	<rect x="29.3" y="88.4" fill="#F6EB0F" width="1.7" height="1.7"/>
	<rect x="45.5" y="90.4" fill="#F6EB0F" width="1.7" height="1.7"/>
	<rect x="33" y="95.1" fill="#5CB947" width="1.7" height="1.7"/>
	<rect x="44.7" y="85.9" fill="#EB2226" width="1.7" height="1.7"/>
</g>
<g>
	<rect x="82.2" y="65.5" fill="#E6E4E7" width="1.7" height="1.7"/>
	<rect x="126.1" y="25.3" fill="#EB2226" width="1.7" height="1.7"/>
	<rect x="46.7" y="66.6" fill="#E6E4E7" width="1.7" height="1.7"/>
	<rect x="28.7" y="31.1" fill="#F6EB0F" width="1.7" height="1.7"/>
	<rect x="63.6" y="35.9" fill="#E16FAA" width="1.7" height="1.7"/>
	<rect x="59.4" y="51.9" fill="#E6E4E7" width="1.7" height="1.7"/>
	<rect x="115.6" y="65.7" fill="#F6EB0F" width="1.7" height="1.7"/>
	<rect x="93.1" y="29.1" fill="#E6E4E7" width="1.7" height="1.7"/>
	<rect x="108.1" y="38" fill="#E16FAA" width="1.7" height="1.7"/>
	<rect x="131.5" y="8.6" fill="#F6EB0F" width="1.7" height="1.7"/>
	<rect x="21.9" y="7.8" fill="#E6E4E7" width="1.7" height="1.7"/>
	<rect x="12.4" y="29.1" fill="#F6EB0F" width="1.7" height="1.7"/>
	<rect x="19.9" y="67.4" fill="#3176BA" width="1.7" height="1.7"/>
	<rect x="87.8" y="4.7" fill="#E6E4E7" width="1.7" height="1.7"/>
	<rect x="133.2" y="19.4" fill="#E6E4E7" width="1.7" height="1.7"/>
	<rect x="57.1" y="26.1" fill="#F6EB0F" width="1.7" height="1.7"/>
	<rect x="12.7" y="11.9" fill="#E16FAA" width="1.7" height="1.7"/>
	<rect x="24.9" y="24.4" fill="#5CB947" width="1.7" height="1.7"/>
	<rect x="13.3" y="33.6" fill="#EB2226" width="1.7" height="1.7"/>
	<rect x="25.8" y="64.9" fill="#E6E4E7" width="1.7" height="1.7"/>
	<rect x="62.2" y="68.2" fill="#5CB947" width="1.7" height="1.7"/>
	<rect x="56.3" y="33.1" fill="#3176BA" width="1.7" height="1.7"/>
	<rect x="47.5" y="39.6" fill="#E6E4E7" width="1.7" height="1.7"/>
	<rect x="84.4" y="30" fill="#5CB947" width="1.7" height="1.7"/>
	<rect x="131.5" y="36.4" fill="#3176BA" width="1.7" height="1.7"/>
	<rect x="117.2" y="25.3" fill="#5CB947" width="1.7" height="1.7"/>
	<rect x="124.4" y="11.9" fill="#E6E4E7" width="1.7" height="1.7"/>
	<rect x="123.4" y="88.8" fill="#EB2226" width="1.7" height="1.7"/>
	<rect x="26" y="94.7" fill="#F6EB0F" width="1.7" height="1.7"/>
	<rect x="60.9" y="99.5" fill="#E16FAA" width="1.7" height="1.7"/>
	<rect x="90.4" y="92.7" fill="#E6E4E7" width="1.7" height="1.7"/>
	<rect x="105.4" y="101.5" fill="#E16FAA" width="1.7" height="1.7"/>
	<rect x="128.9" y="72.2" fill="#F6EB0F" width="1.7" height="1.7"/>
	<rect x="19.3" y="71.3" fill="#E6E4E7" width="1.7" height="1.7"/>
	<rect x="9.8" y="92.7" fill="#F6EB0F" width="1.7" height="1.7"/>
	<rect x="85.2" y="68.3" fill="#E6E4E7" width="1.7" height="1.7"/>
	<rect x="130.5" y="83" fill="#E6E4E7" width="1.7" height="1.7"/>
	<rect x="54.5" y="89.7" fill="#F6EB0F" width="1.7" height="1.7"/>
	<rect x="10.1" y="75.5" fill="#E16FAA" width="1.7" height="1.7"/>
	<rect x="22.3" y="88" fill="#5CB947" width="1.7" height="1.7"/>
	<rect x="10.6" y="97.2" fill="#EB2226" width="1.7" height="1.7"/>
	<rect x="53.6" y="96.7" fill="#3176BA" width="1.7" height="1.7"/>
	<rect x="44.8" y="103.1" fill="#E6E4E7" width="1.7" height="1.7"/>
	<rect x="81.8" y="93.5" fill="#5CB947" width="1.7" height="1.7"/>
	<rect x="128.9" y="99.9" fill="#3176BA" width="1.7" height="1.7"/>
	<rect x="114.6" y="88.8" fill="#5CB947" width="1.7" height="1.7"/>
	<rect x="121.8" y="75.5" fill="#E6E4E7" width="1.7" height="1.7"/>
	<rect x="3.3" y="5.8" fill="#E6E4E7" width="1.7" height="1.7"/>
	<rect x="6.4" y="71.7" fill="#E6E4E7" width="1.7" height="1.7"/>
	<rect x="90.4" y="81.3" fill="#E6E4E7" width="1.7" height="1.7"/>
	<rect x="103.1" y="66.6" fill="#E6E4E7" width="1.7" height="1.7"/>
	<rect x="63.6" y="82.1" fill="#3176BA" width="1.7" height="1.7"/>
	<rect x="69.5" y="79.6" fill="#E6E4E7" width="1.7" height="1.7"/>
	<rect x="105.9" y="83" fill="#5CB947" width="1.7" height="1.7"/>
	<rect x="63" y="86" fill="#E6E4E7" width="1.7" height="1.7"/>
	<rect x="107.2" y="19.4" fill="#F6EB0F" width="1.7" height="1.7"/>
	<rect x="91" y="17.5" fill="#F6EB0F" width="1.7" height="1.7"/>
	<rect x="103.5" y="12.8" fill="#5CB947" width="1.7" height="1.7"/>
	<rect x="91.8" y="21.9" fill="#EB2226" width="1.7" height="1.7"/>
</g>
<g>
	<g>
		<path fill="#FF0000" d="M6.8,65.3v-4.8h9.5v-2.4H6.8v-9.5h2.4v-2.4H21V51h-9.5v2.4H21v9.5h-2.4v2.4H6.8z"/>
		<path fill="#FF0000" d="M22.2,65.3v-19h4.8v7.1h4.8v-7.1h4.7v19h-4.7v-7.1h-4.8v7.1H22.2z"/>
		<path fill="#FF0000" d="M40,65.3v-2.4h-2.4V48.6H40v-2.4h9.5v2.4h2.4v14.2h-2.4v2.4H40z M47.1,60.5V51h-4.8v9.5H47.1z"/>
		<path fill="#FF0000" d="M55.4,65.3v-2.4H53V48.6h2.4v-2.4h9.5v2.4h2.4v14.2h-2.4v2.4H55.4z M62.5,60.5V51h-4.8v9.5H62.5z"/>
		<path fill="#FF0000" d="M73.2,65.3V51h-4.8v-4.8h14.2V51h-4.8v14.3H73.2z"/>
		<path fill="#FF0000" d="M83.9,65.3v-19h14.2V51h-9.5v2.4h7.1v4.8h-7.1v2.4h9.5v4.8H83.9z"/>
		<path fill="#FF0000" d="M99.3,65.3v-19h11.9v2.4h2.4v7.1h-2.4v4.8h2.4v4.8h-4.8v-2.4h-2.4v-2.4H104v4.8H99.3z M108.8,55.8V51H104
			v4.8H108.8z"/>
		<path fill="#FF0000" d="M114.7,65.3v-4.8h9.5v-2.4h-9.5v-9.5h2.4v-2.4h11.9V51h-9.5v2.4h9.5v9.5h-2.4v2.4H114.7z"/>
	</g>
	<g>
		<path fill="#FFFFFF" d="M6.8,63.2v-4.8h9.5v-2.4H6.8v-9.5h2.4v-2.4H21V49h-9.5v2.4H21v9.5h-2.4v2.4H6.8z"/>
		<path fill="#FFFFFF" d="M22.2,63.2v-19h4.8v7.1h4.8v-7.1h4.7v19h-4.7v-7.1h-4.8v7.1H22.2z"/>
		<path fill="#FFFFFF" d="M40,63.2v-2.4h-2.4V46.6H40v-2.4h9.5v2.4h2.4v14.2h-2.4v2.4H40z M47.1,58.5V49h-4.8v9.5H47.1z"/>
		<path fill="#FFFFFF" d="M55.4,63.2v-2.4H53V46.6h2.4v-2.4h9.5v2.4h2.4v14.2h-2.4v2.4H55.4z M62.5,58.5V49h-4.8v9.5H62.5z"/>
		<path fill="#FFFFFF" d="M73.2,63.2V49h-4.8v-4.8h14.2V49h-4.8v14.2H73.2z"/>
		<path fill="#FFFFFF" d="M83.9,63.2v-19h14.2V49h-9.5v2.4h7.1v4.8h-7.1v2.4h9.5v4.8H83.9z"/>
		<path fill="#FFFFFF" d="M99.3,63.2v-19h11.9v2.4h2.4v7.1h-2.4v4.8h2.4v4.8h-4.8v-2.4h-2.4v-2.4H104v4.8H99.3z M108.8,53.7V49H104
			v4.8H108.8z"/>
		<path fill="#FFFFFF" d="M114.7,63.2v-4.8h9.5v-2.4h-9.5v-9.5h2.4v-2.4h11.9V49h-9.5v2.4h9.5v9.5h-2.4v2.4H114.7z"/>
	</g>
</g>
<g>
	<defs>
		<rect id="SVGID_1_" x="1.7" y="3.7" width="133.2" height="104.4"/>
	</defs>
	<clipPath id="SVGID_2_">
		<use xlink:href="#SVGID_1_"  overflow="visible"/>
	</clipPath>
	<g id="fyGdnf_2_" clip-path="url(#SVGID_2_)">
		<g>
			<rect x="41.2" y="100" fill="#FFFFE6" width="2.3" height="2.3"/>
			<rect x="41.2" y="97.6" fill="#FFFFE6" width="2.3" height="2.3"/>
			<rect x="41.2" y="95.3" fill="#FFFFE6" width="2.3" height="2.3"/>
			<rect x="41.2" y="93" fill="#FFFFE6" width="2.3" height="2.3"/>
			<rect x="38.8" y="93" fill="#FFFFE6" width="2.3" height="2.3"/>
			<rect x="41.2" y="90.7" fill="#FFFFE6" width="2.3" height="2.3"/>
			<rect x="38.8" y="90.7" fill="#FFFFE6" width="2.3" height="2.3"/>
			<rect x="38.8" y="88.4" fill="#FFFFE6" width="2.3" height="2.3"/>
			<rect x="36.5" y="88.4" fill="#FFFFE6" width="2.3" height="2.3"/>
			<rect x="38.8" y="86" fill="#FFFFE6" width="2.3" height="2.3"/>
			<rect x="36.5" y="86" fill="#FFFFE6" width="2.3" height="2.3"/>
			<rect x="27.2" y="83.7" fill="#FFFFE6" width="2.3" height="2.3"/>
			<rect x="24.9" y="83.7" fill="#FFFFE6" width="2.3" height="2.3"/>
			<rect x="27.2" y="81.4" fill="#FFFFE6" width="2.3" height="2.3"/>
			<rect x="24.9" y="81.4" fill="#FFFFE6" width="2.3" height="2.3"/>
			<rect x="31.9" y="79.1" fill="#FFFFE6" width="2.3" height="2.3"/>
			<rect x="38.8" y="76.8" fill="#FFFFE6" width="2.3" height="2.3"/>
			<rect x="36.5" y="76.8" fill="#FFFFE6" width="2.3" height="2.3"/>
			<rect x="34.2" y="76.8" fill="#FFFFE6" width="2.3" height="2.3"/>
			<rect x="38.8" y="74.4" fill="#FFFFE6" width="2.3" height="2.3"/>
			<rect x="34.2" y="74.4" fill="#FFFFE6" width="2.3" height="2.3"/>
			<rect x="29.6" y="74.4" fill="#FFFFE6" width="2.3" height="2.3"/>
			<rect x="27.2" y="74.4" fill="#FFFFE6" width="2.3" height="2.3"/>
			<rect x="38.8" y="72.1" fill="#FFFFE6" width="2.3" height="2.3"/>
			<rect x="29.6" y="72.1" fill="#FFFFE6" width="2.3" height="2.3"/>
			<rect x="27.2" y="72.1" fill="#FFFFE6" width="2.3" height="2.3"/>
			<rect x="29.6" y="69.8" fill="#FFFFE6" width="2.3" height="2.3"/>
			<rect x="27.2" y="69.8" fill="#FFFFE6" width="2.3" height="2.3"/>
			<rect x="27.2" y="67.5" fill="#FFFFE6" width="2.3" height="2.3"/>
			<rect x="96.8" y="88.4" fill="#00FFE6" width="2.3" height="2.3"/>
			<g>
				<rect x="41.2" y="102.3" fill="#FF0000" width="2.3" height="2.3"/>
				<polygon fill="#FF0000" points="43.5,83.7 41.2,83.7 38.8,83.7 36.5,83.7 34.2,83.7 34.2,81.4 31.9,81.4 31.9,79.1 29.6,79.1 
					29.6,76.8 27.2,76.8 27.2,74.4 27.2,72.1 27.2,69.8 27.2,67.5 27.2,65.2 24.9,65.2 24.9,67.5 24.9,69.8 24.9,72.1 24.9,74.4 
					22.6,74.4 20.3,74.4 20.3,72.1 18,72.1 15.6,72.1 15.6,69.8 13.3,69.8 11,69.8 8.7,69.8 8.7,72.1 11,72.1 13.3,72.1 13.3,74.4 
					15.6,74.4 18,74.4 18,76.8 20.3,76.8 20.3,79.1 22.6,79.1 22.6,81.4 24.9,81.4 27.2,81.4 29.6,81.4 29.6,83.7 29.6,86 
					29.6,88.4 31.9,88.4 31.9,90.7 34.2,90.7 34.2,93 36.5,93 36.5,95.3 36.5,97.6 38.8,97.6 38.8,100 38.8,102.3 41.2,102.3 
					41.2,100 41.2,97.6 41.2,95.3 38.8,95.3 38.8,93 38.8,90.7 36.5,90.7 36.5,88.4 36.5,86 38.8,86 41.2,86 43.5,86 45.8,86 
					45.8,83.7 				"/>
				<rect x="36.5" y="74.4" fill="#FF0000" width="2.3" height="2.3"/>
				<rect x="41.2" y="72.1" fill="#FF0000" width="2.3" height="2.3"/>
				<rect x="34.2" y="72.1" fill="#FF0000" width="2.3" height="2.3"/>
				<rect x="6.4" y="67.5" fill="#FF0000" width="2.3" height="2.3"/>
			</g>
			<rect x="99.2" y="81.4" fill="#00FFE6" width="2.3" height="2.3"/>
			<rect x="99.2" y="79.1" fill="#00FFE6" width="2.3" height="2.3"/>
			<rect x="99.2" y="76.8" fill="#00FFE6" width="2.3" height="2.3"/>
			<rect x="99.2" y="74.5" fill="#00FFE6" width="2.3" height="2.3"/>
			<rect x="106.1" y="72.1" fill="#00FFE6" width="2.3" height="2.3"/>
			<rect x="78.3" y="72.1" fill="#00FFE6" width="2.3" height="2.3"/>
			<rect x="106.1" y="69.8" fill="#00FFE6" width="2.3" height="2.3"/>
			<rect x="80.6" y="69.8" fill="#00FFE6" width="2.3" height="2.3"/>
			<rect x="108.4" y="67.5" fill="#00FFE6" width="2.3" height="2.3"/>
			<rect x="87.6" y="67.5" fill="#00FFE6" width="2.3" height="2.3"/>
			<rect x="87.6" y="65.2" fill="#00FFE6" width="2.3" height="2.3"/>
			<rect x="87.6" y="62.9" fill="#00FFE6" width="2.3" height="2.3"/>
			<rect x="69" y="51.3" fill="#FFFFE6" width="2.3" height="2.3"/>
			<rect x="73.6" y="48.9" fill="#FFFFE6" width="2.3" height="2.3"/>
			<rect x="64.4" y="48.9" fill="#FFFFE6" width="2.3" height="2.3"/>
			<rect x="76" y="44.3" fill="#FFFFE6" width="2.3" height="2.3"/>
			<rect x="62" y="44.3" fill="#FFFFE6" width="2.3" height="2.3"/>
			<rect x="73.6" y="39.7" fill="#FFFFE6" width="2.3" height="2.3"/>
			<rect x="64.4" y="39.7" fill="#FFFFE6" width="2.3" height="2.3"/>
			<rect x="69" y="37.3" fill="#FFFFE6" width="2.3" height="2.3"/>
			<rect x="99.2" y="18.8" fill="#00FF00" width="2.3" height="2.3"/>
			<g>
				<polygon fill="#0055A4" points="18,90.7 15.6,90.7 15.6,93 15.6,95.3 18,95.3 20.3,95.3 20.3,93 18,93 				"/>
				<rect x="99.2" y="90.7" fill="#0055A4" width="2.3" height="2.3"/>
				<polygon fill="#0055A4" points="101.5,88.4 101.5,90.7 103.8,90.7 103.8,88.4 103.8,86.1 101.5,86.1 				"/>
				<rect x="99.2" y="83.7" fill="#0055A4" width="2.3" height="2.3"/>
				<polygon fill="#0055A4" points="110.8,74.5 108.4,74.5 108.4,76.8 106.1,76.8 106.1,74.5 106.1,72.1 106.1,69.8 103.8,69.8 
					103.8,72.1 103.8,74.5 103.8,76.8 103.8,79.1 103.8,81.4 101.5,81.4 101.5,83.7 103.8,83.7 103.8,86.1 106.1,86.1 106.1,83.7 
					106.1,81.4 108.4,81.4 108.4,79.1 110.8,79.1 113.1,79.1 113.1,76.8 110.8,76.8 				"/>
				<rect x="101.5" y="67.5" fill="#0055A4" width="2.3" height="2.3"/>
				<polygon fill="#0055A4" points="94.5,67.5 92.2,67.5 92.2,65.2 89.9,65.2 89.9,67.5 89.9,69.8 89.9,72.1 92.2,72.1 92.2,69.8 
					94.5,69.8 96.8,69.8 99.2,69.8 99.2,67.5 96.8,67.5 				"/>
				<rect x="99.2" y="65.2" fill="#0055A4" width="2.3" height="2.3"/>
				<rect x="108.4" y="30.4" fill="#0055A4" width="2.3" height="2.3"/>
				<polygon fill="#0055A4" points="96.8,32.7 96.8,35 99.2,35 99.2,32.7 99.2,30.4 96.8,30.4 				"/>
				<polygon fill="#0055A4" points="113.1,28.1 110.8,28.1 110.8,30.4 113.1,30.4 115.4,30.4 117.7,30.4 117.7,28.1 115.4,28.1 				
					"/>
				<polygon fill="#0055A4" points="165.8,35.6 165.8,38 165.8,40.3 168.1,40.3 168.1,38 170.5,38 170.5,35.6 168.1,35.6 				"/>
				<polygon fill="#0055A4" points="96.8,23.4 96.8,25.7 99.2,25.7 99.2,28.1 99.2,30.4 101.5,30.4 103.8,30.4 103.8,28.1 
					106.1,28.1 106.1,25.7 108.4,25.7 108.4,23.4 106.1,23.4 103.8,23.4 103.8,25.7 101.5,25.7 101.5,23.4 101.5,21.1 99.2,21.1 
					99.2,18.8 101.5,18.8 101.5,21.1 103.8,21.1 103.8,18.8 103.8,16.5 101.5,16.5 99.2,16.5 96.8,16.5 96.8,18.8 94.5,18.8 
					94.5,21.1 96.8,21.1 				"/>
				<rect x="182.1" y="33.3" fill="#0055A4" width="2.3" height="2.3"/>
				<rect x="184.4" y="31" fill="#0055A4" width="2.3" height="2.3"/>
				<rect x="136.3" y="16.5" fill="#0055A4" width="2.3" height="2.3"/>
				<rect x="134" y="14.1" fill="#0055A4" width="2.3" height="2.3"/>
				<polygon fill="#0055A4" points="184.4,26.4 182.1,26.4 179.7,26.4 179.7,28.7 182.1,28.7 182.1,31 184.4,31 184.4,28.7 				"/>
				<rect x="175.1" y="26.4" fill="#0055A4" width="2.3" height="2.3"/>
				<polygon fill="#0055A4" points="140.9,14.1 138.6,14.1 138.6,16.5 140.9,16.5 143.2,16.5 143.2,14.1 143.2,11.8 140.9,11.8 				
					"/>
				<rect x="177.4" y="24" fill="#0055A4" width="2.3" height="2.3"/>
				<rect x="143.2" y="9.5" fill="#0055A4" width="2.3" height="2.3"/>
				<polygon fill="#0055A4" points="175.1,21.7 175.1,19.4 172.8,19.4 172.8,21.7 170.5,21.7 170.5,24 170.5,26.4 172.8,26.4 
					172.8,24 175.1,24 				"/>
				<rect x="140.9" y="7.2" fill="#0055A4" width="2.3" height="2.3"/>
				<polygon fill="#0055A4" points="147.9,2.5 145.6,2.5 143.2,2.5 143.2,4.9 145.6,4.9 145.6,7.2 147.9,7.2 150.2,7.2 150.2,4.9 
					147.9,4.9 				"/>
				<polygon fill="#0055A4" points="134,2.5 134,0.2 134,-2.1 131.6,-2.1 129.3,-2.1 129.3,0.2 131.6,0.2 131.6,2.5 				"/>
				<rect x="154.2" y="85.7" fill="#0055A4" width="2.3" height="2.3"/>
			</g>
			<g>
				<rect x="94.5" y="48.9" fill="#7B7952" width="2.3" height="2.3"/>
				<polygon fill="#7B7952" points="82.9,51.3 82.9,53.6 85.2,53.6 85.2,51.3 85.2,48.9 82.9,48.9 				"/>
				<polygon fill="#7B7952" points="99.2,46.6 96.8,46.6 96.8,48.9 99.2,48.9 101.5,48.9 103.8,48.9 103.8,46.6 101.5,46.6 				"/>
				<polygon fill="#7B7952" points="94.5,42 92.2,42 89.9,42 89.9,44.3 87.6,44.3 87.6,42 87.6,39.7 85.2,39.7 85.2,37.3 82.9,37.3 
					80.6,37.3 80.6,39.7 82.9,39.7 82.9,42 82.9,44.3 85.2,44.3 85.2,46.6 85.2,48.9 87.6,48.9 89.9,48.9 89.9,46.6 92.2,46.6 
					92.2,44.3 94.5,44.3 				"/>
				<rect x="87.6" y="37.3" fill="#7B7952" width="2.3" height="2.3"/>
				<rect x="122.4" y="21.1" fill="#7B7952" width="2.3" height="2.3"/>
				<polygon fill="#7B7952" points="127,16.5 127,14.1 124.7,14.1 124.7,16.5 124.7,18.8 124.7,21.1 127,21.1 129.3,21.1 
					129.3,23.4 131.6,23.4 131.6,21.1 131.6,18.8 131.6,16.5 129.3,16.5 				"/>
				<polygon fill="#7B7952" points="122.4,9.5 122.4,11.8 124.7,11.8 124.7,9.5 124.7,7.2 122.4,7.2 				"/>
				<polygon fill="#7B7952" points="70.2,21 70.2,23.3 72.5,23.3 72.5,25.6 74.8,25.6 74.8,23.3 74.8,21 72.5,21 				"/>
				<polygon fill="#7B7952" points="177.4,88.1 177.4,90.4 179.7,90.4 182.1,90.4 182.1,88.1 179.7,88.1 				"/>
				<rect x="56.2" y="18.7" fill="#7B7952" width="2.3" height="2.3"/>
				<rect x="53.9" y="16.3" fill="#7B7952" width="2.3" height="2.3"/>
				<rect x="163.5" y="81.1" fill="#7B7952" width="2.3" height="2.3"/>
				<rect x="63.2" y="11.7" fill="#7B7952" width="2.3" height="2.3"/>
				<polygon fill="#7B7952" points="56.2,11.7 56.2,14 56.2,16.3 58.6,16.3 58.6,14 60.9,14 60.9,11.7 58.6,11.7 				"/>
				<polygon fill="#7B7952" points="67.8,11.7 70.2,11.7 70.2,9.4 70.2,7.1 67.8,7.1 67.8,4.7 65.5,4.7 65.5,7.1 65.5,9.4 67.8,9.4 
									"/>
				<rect x="60.9" y="9.4" fill="#7B7952" width="2.3" height="2.3"/>
			</g>
			<g>
				<polygon fill="#00C2E6" points="24.9,83.7 22.6,83.7 22.6,86 20.3,86 20.3,88.4 20.3,90.7 22.6,90.7 24.9,90.7 24.9,88.4 
					27.2,88.4 27.2,86 24.9,86 				"/>
				<polygon fill="#00C2E6" points="99.2,69.8 96.8,69.8 96.8,72.1 94.5,72.1 94.5,74.5 92.2,74.5 92.2,72.1 89.9,72.1 89.9,69.8 
					87.6,69.8 87.6,67.5 85.2,67.5 85.2,69.8 82.9,69.8 82.9,72.1 80.6,72.1 80.6,74.5 82.9,74.5 85.2,74.5 87.6,74.5 87.6,76.8 
					89.9,76.8 92.2,76.8 92.2,79.1 92.2,81.4 94.5,81.4 94.5,83.7 94.5,86.1 94.5,88.4 96.8,88.4 99.2,88.4 99.2,86.1 96.8,86.1 
					96.8,83.7 96.8,81.4 99.2,81.4 99.2,79.1 99.2,76.8 99.2,74.5 101.5,74.5 101.5,72.1 99.2,72.1 				"/>
				<rect x="89.9" y="60.5" fill="#00C2E6" width="2.3" height="2.3"/>
				<polygon fill="#00C2E6" points="99.2,35 99.2,37.3 101.5,37.3 103.8,37.3 103.8,35 101.5,35 				"/>
				<polygon fill="#00C2E6" points="113.1,32.7 110.8,32.7 110.8,35 108.4,35 108.4,37.3 110.8,37.3 113.1,37.3 113.1,39.7 
					115.4,39.7 115.4,37.3 115.4,35 113.1,35 				"/>
				<polygon fill="#00C2E6" points="106.1,32.7 106.1,30.4 103.8,30.4 103.8,32.7 103.8,35 106.1,35 108.4,35 108.4,32.7 				"/>
				<rect x="152.5" y="30.4" fill="#00C2E6" width="2.3" height="2.3"/>
				<rect x="106.1" y="28.1" fill="#00C2E6" width="2.3" height="2.3"/>
				<rect x="108.4" y="25.7" fill="#00C2E6" width="2.3" height="2.3"/>
				<polygon fill="#00C2E6" points="161.2,38 161.2,40.3 163.5,40.3 163.5,38 163.5,35.6 161.2,35.6 				"/>
				<polygon fill="#00C2E6" points="106.1,23.4 106.1,21.1 106.1,18.8 106.1,16.5 103.8,16.5 103.8,18.8 103.8,21.1 101.5,21.1 
					101.5,23.4 103.8,23.4 				"/>
				<polygon fill="#00C2E6" points="177.4,33.3 175.1,33.3 172.8,33.3 170.5,33.3 170.5,31 168.1,31 165.8,31 163.5,31 163.5,33.3 
					163.5,35.6 165.8,35.6 165.8,33.3 168.1,33.3 168.1,35.6 170.5,35.6 172.8,35.6 175.1,35.6 177.4,35.6 179.7,35.6 182.1,35.6 
					182.1,33.3 179.7,33.3 				"/>
				<polygon fill="#00C2E6" points="172.8,28.7 172.8,26.4 170.5,26.4 168.1,26.4 168.1,28.7 170.5,28.7 170.5,31 172.8,31 				"/>
				<polygon fill="#00C2E6" points="140.9,2.5 138.6,2.5 138.6,4.9 140.9,4.9 143.2,4.9 143.2,2.5 143.2,0.2 140.9,0.2 				"/>
				<polygon fill="#00C2E6" points="138.6,-2.1 138.6,-4.4 136.3,-4.4 134,-4.4 134,-2.1 136.3,-2.1 136.3,0.2 134,0.2 134,2.5 
					134,4.9 134,7.2 134,9.5 134,11.8 134,14.1 136.3,14.1 136.3,11.8 136.3,9.5 136.3,7.2 136.3,4.9 136.3,2.5 138.6,2.5 
					138.6,0.2 				"/>
				<polygon fill="#00C2E6" points="131.6,-6.7 129.3,-6.7 129.3,-4.4 131.6,-4.4 134,-4.4 134,-6.7 				"/>
				<rect x="182.1" y="88.1" fill="#00C2E6" width="2.3" height="2.3"/>
				<rect x="175.1" y="88.1" fill="#00C2E6" width="2.3" height="2.3"/>
				<rect x="165.8" y="83.4" fill="#00C2E6" width="2.3" height="2.3"/>
				<rect x="161.2" y="78.8" fill="#00C2E6" width="2.3" height="2.3"/>
			</g>
			<g>
				<rect x="73.6" y="55.9" fill="#C5C2A4" width="2.3" height="2.3"/>
				<rect x="64.4" y="55.9" fill="#C5C2A4" width="2.3" height="2.3"/>
				<polygon fill="#C5C2A4" points="85.2,53.6 85.2,55.9 87.6,55.9 89.9,55.9 89.9,53.6 87.6,53.6 				"/>
				<polygon fill="#C5C2A4" points="99.2,51.3 96.8,51.3 96.8,53.6 94.5,53.6 94.5,55.9 96.8,55.9 99.2,55.9 99.2,58.2 101.5,58.2 
					101.5,55.9 101.5,53.6 99.2,53.6 				"/>
				<polygon fill="#C5C2A4" points="92.2,51.3 92.2,48.9 89.9,48.9 89.9,51.3 89.9,53.6 92.2,53.6 94.5,53.6 94.5,51.3 				"/>
				<rect x="78.3" y="51.3" fill="#C5C2A4" width="2.3" height="2.3"/>
				<rect x="59.7" y="51.3" fill="#C5C2A4" width="2.3" height="2.3"/>
				<rect x="92.2" y="46.6" fill="#C5C2A4" width="2.3" height="2.3"/>
				<rect x="94.5" y="44.3" fill="#C5C2A4" width="2.3" height="2.3"/>
				<rect x="80.6" y="44.3" fill="#C5C2A4" width="2.3" height="2.3"/>
				<rect x="57.4" y="44.3" fill="#C5C2A4" width="2.3" height="2.3"/>
				<polygon fill="#C5C2A4" points="92.2,42 92.2,39.7 92.2,37.3 92.2,35 89.9,35 89.9,37.3 89.9,39.7 87.6,39.7 87.6,42 89.9,42 
									"/>
				<rect x="78.3" y="37.3" fill="#C5C2A4" width="2.3" height="2.3"/>
				<rect x="59.7" y="37.3" fill="#C5C2A4" width="2.3" height="2.3"/>
				<rect x="73.6" y="32.7" fill="#C5C2A4" width="2.3" height="2.3"/>
				<rect x="64.4" y="32.7" fill="#C5C2A4" width="2.3" height="2.3"/>
				<polygon fill="#C5C2A4" points="129.3,11.8 127,11.8 127,14.1 127,16.5 129.3,16.5 129.3,14.1 131.6,14.1 134,14.1 134,11.8 
					131.6,11.8 				"/>
				<polygon fill="#C5C2A4" points="122.4,4.9 120,4.9 120,7.2 117.7,7.2 115.4,7.2 113.1,7.2 110.8,7.2 110.8,9.5 113.1,9.5 
					115.4,9.5 115.4,11.8 117.7,11.8 117.7,14.1 120,14.1 120,16.5 120,18.8 120,21.1 120,23.4 120,25.7 122.4,25.7 122.4,23.4 
					122.4,21.1 122.4,18.8 124.7,18.8 124.7,16.5 124.7,14.1 122.4,14.1 122.4,11.8 122.4,9.5 122.4,7.2 124.7,7.2 124.7,4.9 
					124.7,2.5 122.4,2.5 				"/>
				<polygon fill="#C5C2A4" points="77.1,23.3 77.1,25.6 79.4,25.6 79.4,23.3 79.4,21 77.1,21 				"/>
				<polygon fill="#C5C2A4" points="77.1,16.3 74.8,16.3 72.5,16.3 70.2,16.3 70.2,18.7 67.8,18.7 65.5,18.7 63.2,18.7 60.9,18.7 
					58.6,18.7 58.6,21 60.9,21 63.2,21 65.5,21 67.8,21 70.2,21 72.5,21 72.5,18.7 74.8,18.7 74.8,21 77.1,21 77.1,18.7 				"/>
				<polygon fill="#C5C2A4" points="72.5,14 72.5,11.7 70.2,11.7 67.8,11.7 67.8,14 67.8,16.3 70.2,16.3 70.2,14 				"/>
				<rect x="207.6" y="78.8" fill="#C5C2A4" width="2.3" height="2.3"/>
				<rect x="209.9" y="76.5" fill="#C5C2A4" width="2.3" height="2.3"/>
			</g>
			<g>
				<polygon fill="#0079E6" points="20.3,90.7 20.3,88.4 20.3,86 18,86 18,88.4 18,90.7 18,93 20.3,93 22.6,93 24.9,93 24.9,90.7 
					22.6,90.7 				"/>
				<rect x="24.9" y="88.4" fill="#0079E6" width="2.3" height="2.3"/>
				<rect x="20.3" y="83.7" fill="#0079E6" width="2.3" height="2.3"/>
				<rect x="96.8" y="90.7" fill="#0079E6" width="2.3" height="2.3"/>
				<rect x="99.2" y="88.4" fill="#0079E6" width="2.3" height="2.3"/>
				<polygon fill="#0079E6" points="87.6,76.8 87.6,79.1 89.9,79.1 92.2,79.1 92.2,76.8 89.9,76.8 				"/>
				<rect x="106.1" y="74.5" fill="#0079E6" width="2.3" height="2.3"/>
				<polygon fill="#0079E6" points="85.2,74.5 82.9,74.5 82.9,76.8 85.2,76.8 87.6,76.8 87.6,74.5 				"/>
				<rect x="108.4" y="69.8" fill="#0079E6" width="2.3" height="2.3"/>
				<polygon fill="#0079E6" points="96.8,69.8 94.5,69.8 92.2,69.8 92.2,72.1 92.2,74.5 94.5,74.5 94.5,72.1 96.8,72.1 				"/>
				<polygon fill="#0079E6" points="101.5,67.5 99.2,67.5 99.2,69.8 99.2,72.1 101.5,72.1 101.5,74.5 101.5,76.8 101.5,79.1 
					101.5,81.4 103.8,81.4 103.8,79.1 103.8,76.8 103.8,74.5 103.8,72.1 103.8,69.8 101.5,69.8 				"/>
				<rect x="96.8" y="35" fill="#0079E6" width="2.3" height="2.3"/>
				<rect x="108.4" y="32.7" fill="#0079E6" width="2.3" height="2.3"/>
				<polygon fill="#0079E6" points="110.8,30.4 110.8,32.7 113.1,32.7 115.4,32.7 115.4,30.4 113.1,30.4 				"/>
				<rect x="106.1" y="30.4" fill="#0079E6" width="2.3" height="2.3"/>
				<rect x="101.5" y="30.4" fill="#0079E6" width="2.3" height="2.3"/>
				<rect x="108.4" y="28.1" fill="#0079E6" width="2.3" height="2.3"/>
				<rect x="103.8" y="28.1" fill="#0079E6" width="2.3" height="2.3"/>
				<rect x="106.1" y="25.7" fill="#0079E6" width="2.3" height="2.3"/>
				<rect x="108.4" y="23.4" fill="#0079E6" width="2.3" height="2.3"/>
				<rect x="101.5" y="23.4" fill="#0079E6" width="2.3" height="2.3"/>
				<polygon fill="#0079E6" points="163.5,38 163.5,40.3 165.8,40.3 165.8,38 165.8,35.6 163.5,35.6 				"/>
				<rect x="165.8" y="33.3" fill="#0079E6" width="2.3" height="2.3"/>
				<polygon fill="#0079E6" points="182.1,28.7 179.7,28.7 179.7,26.4 177.4,26.4 177.4,28.7 175.1,28.7 175.1,26.4 177.4,26.4 
					177.4,24 179.7,24 179.7,21.7 177.4,21.7 175.1,21.7 175.1,24 172.8,24 172.8,26.4 172.8,28.7 172.8,31 170.5,31 170.5,33.3 
					172.8,33.3 175.1,33.3 177.4,33.3 179.7,33.3 182.1,33.3 184.4,33.3 184.4,31 182.1,31 				"/>
				<rect x="165.8" y="26.4" fill="#0079E6" width="2.3" height="2.3"/>
				<rect x="143.2" y="11.8" fill="#0079E6" width="2.3" height="2.3"/>
				<rect x="179.7" y="24" fill="#0079E6" width="2.3" height="2.3"/>
				<polygon fill="#0079E6" points="170.5,24 170.5,21.7 168.1,21.7 168.1,24 168.1,26.4 170.5,26.4 				"/>
				<rect x="170.5" y="19.4" fill="#0079E6" width="2.3" height="2.3"/>
				<polygon fill="#0079E6" points="145.6,4.9 143.2,4.9 140.9,4.9 138.6,4.9 138.6,2.5 136.3,2.5 136.3,4.9 136.3,7.2 136.3,9.5 
					136.3,11.8 136.3,14.1 136.3,16.5 138.6,16.5 138.6,14.1 140.9,14.1 140.9,11.8 143.2,11.8 143.2,9.5 140.9,9.5 140.9,7.2 
					143.2,7.2 143.2,9.5 145.6,9.5 145.6,11.8 147.9,11.8 147.9,9.5 147.9,7.2 145.6,7.2 				"/>
				<rect x="147.9" y="2.5" fill="#0079E6" width="2.3" height="2.3"/>
				<polygon fill="#0079E6" points="145.6,0.2 143.2,0.2 143.2,2.5 145.6,2.5 147.9,2.5 147.9,0.2 				"/>
				<rect x="140.9" y="-2.1" fill="#0079E6" width="2.3" height="2.3"/>
				<rect x="134" y="-2.1" fill="#0079E6" width="2.3" height="2.3"/>
				<polygon fill="#0079E6" points="131.6,-4.4 129.3,-4.4 129.3,-2.1 131.6,-2.1 134,-2.1 134,-4.4 				"/>
				<rect x="163.5" y="7.8" fill="#0079E6" width="2.3" height="2.3"/>
				<rect x="209.9" y="78.8" fill="#0079E6" width="2.3" height="2.3"/>
			</g>
			<g>
				<polygon fill="#A4A5A4" points="41.2,79.1 38.8,79.1 36.5,79.1 34.2,79.1 34.2,81.4 34.2,83.7 36.5,83.7 38.8,83.7 41.2,83.7 
					43.5,83.7 43.5,81.4 41.2,81.4 				"/>
				<polygon fill="#A4A5A4" points="34.2,74.4 34.2,72.1 36.5,72.1 38.8,72.1 38.8,69.8 36.5,69.8 34.2,69.8 31.9,69.8 31.9,72.1 
					31.9,74.4 31.9,76.8 29.6,76.8 29.6,79.1 31.9,79.1 34.2,79.1 34.2,76.8 				"/>
				<polygon fill="#A4A5A4" points="20.3,69.8 20.3,67.5 18,67.5 15.6,67.5 13.3,67.5 11,67.5 8.7,67.5 8.7,69.8 11,69.8 13.3,69.8 
					15.6,69.8 15.6,72.1 18,72.1 20.3,72.1 20.3,74.4 22.6,74.4 24.9,74.4 24.9,72.1 24.9,69.8 22.6,69.8 				"/>
				<rect x="82.9" y="53.6" fill="#A4A5A4" width="2.3" height="2.3"/>
				<rect x="94.5" y="51.3" fill="#A4A5A4" width="2.3" height="2.3"/>
				<polygon fill="#A4A5A4" points="96.8,48.9 96.8,51.3 99.2,51.3 101.5,51.3 101.5,48.9 99.2,48.9 				"/>
				<rect x="92.2" y="48.9" fill="#A4A5A4" width="2.3" height="2.3"/>
				<rect x="87.6" y="48.9" fill="#A4A5A4" width="2.3" height="2.3"/>
				<rect x="94.5" y="46.6" fill="#A4A5A4" width="2.3" height="2.3"/>
				<rect x="89.9" y="46.6" fill="#A4A5A4" width="2.3" height="2.3"/>
				<rect x="92.2" y="44.3" fill="#A4A5A4" width="2.3" height="2.3"/>
				<rect x="94.5" y="42" fill="#A4A5A4" width="2.3" height="2.3"/>
				<rect x="87.6" y="42" fill="#A4A5A4" width="2.3" height="2.3"/>
				<rect x="129.3" y="14.1" fill="#A4A5A4" width="2.3" height="2.3"/>
				<rect x="117.7" y="14.1" fill="#A4A5A4" width="2.3" height="2.3"/>
				<rect x="115.4" y="11.8" fill="#A4A5A4" width="2.3" height="2.3"/>
				<polygon fill="#A4A5A4" points="124.7,11.8 122.4,11.8 122.4,14.1 124.7,14.1 127,14.1 127,11.8 127,9.5 124.7,9.5 				"/>
				<rect x="113.1" y="9.5" fill="#A4A5A4" width="2.3" height="2.3"/>
				<polygon fill="#A4A5A4" points="74.8,23.3 74.8,25.6 77.1,25.6 77.1,23.3 77.1,21 74.8,21 				"/>
				<rect x="72.5" y="18.7" fill="#A4A5A4" width="2.3" height="2.3"/>
				<polygon fill="#A4A5A4" points="177.4,85.7 177.4,88.1 179.7,88.1 182.1,88.1 182.1,85.7 179.7,85.7 				"/>
				<polygon fill="#A4A5A4" points="67.8,14 67.8,11.7 67.8,9.4 65.5,9.4 65.5,7.1 63.2,7.1 60.9,7.1 60.9,9.4 63.2,9.4 63.2,11.7 
					65.5,11.7 65.5,14 63.2,14 63.2,11.7 60.9,11.7 60.9,14 58.6,14 58.6,16.3 56.2,16.3 56.2,18.7 58.6,18.7 60.9,18.7 63.2,18.7 
					65.5,18.7 67.8,18.7 70.2,18.7 70.2,16.3 67.8,16.3 				"/>
				<rect x="207.6" y="81.1" fill="#A4A5A4" width="2.3" height="2.3"/>
				<rect x="165.8" y="81.1" fill="#A4A5A4" width="2.3" height="2.3"/>
				<rect x="72.5" y="11.7" fill="#A4A5A4" width="2.3" height="2.3"/>
				<rect x="163.5" y="78.8" fill="#A4A5A4" width="2.3" height="2.3"/>
				<polygon fill="#A4A5A4" points="70.2,11.7 72.5,11.7 72.5,9.4 72.5,7.1 70.2,7.1 70.2,9.4 				"/>
				<rect x="58.6" y="9.4" fill="#A4A5A4" width="2.3" height="2.3"/>
				<rect x="212.2" y="76.5" fill="#A4A5A4" width="2.3" height="2.3"/>
				<rect x="67.8" y="4.7" fill="#A4A5A4" width="2.3" height="2.3"/>
			</g>
			<g>
				<rect x="36.5" y="72.1" width="2.3" height="2.3"/>
				<rect x="99.2" y="86.1" width="2.3" height="2.3"/>
				<rect x="101.5" y="83.7" width="2.3" height="2.3"/>
				<polygon points="99.2,81.4 96.8,81.4 96.8,83.7 96.8,86.1 99.2,86.1 99.2,83.7 				"/>
				<polygon points="85.2,53.6 87.6,53.6 89.9,53.6 89.9,51.3 87.6,51.3 87.6,48.9 85.2,48.9 85.2,51.3 				"/>
				<polygon points="99.2,35 101.5,35 103.8,35 103.8,32.7 101.5,32.7 101.5,30.4 99.2,30.4 99.2,32.7 				"/>
				<rect x="122.4" y="18.8" width="2.3" height="2.3"/>
			</g>
		</g>
	</g>
</g>
<rect x="2" y="1.9" fill="none" stroke="#9900FF" stroke-width="4" stroke-miterlimit="10" width="132.5" height="105.3"/>
</svg>
