<?xml version="1.0" encoding="utf-8"?>
<!-- Generator: Adobe Illustrator 18.1.1, SVG Export Plug-In . SVG Version: 6.00 Build 0)  -->
<svg version="1.1" id="Ebene_1" xmlns="http://www.w3.org/2000/svg" xmlns:xlink="http://www.w3.org/1999/xlink" x="0px" y="0px"
	 viewBox="16.7 24.3 569.8 212.7" enable-background="new 16.7 24.3 569.8 212.7" xml:space="preserve">
<g id="Ebene_2">
</g>
<g>
	<g enable-background="new    ">
		<path fill="#FFCC00" d="M236.4,131h-26.8v-26.6h-38.9V131h-27.6V64.2h13.2v-13h13.3V37.7h39.9v13.4h13.4v13h13.3V131z M209.7,91
			V64.2h-13v-13h-13.4v13h-12.4V91H209.7z"/>
		<path fill="#FFCC00" d="M348.1,131h-93.2V37.7h26.5v79.9h66.7V131z"/>
		<path fill="#FFCC00" d="M459.8,131h-93.2V37.7h26.5v79.9h66.7V131z"/>
	</g>
	<g enable-background="new    ">
		<path fill="#FFCC00" d="M123.5,250.5H56.9V237H43.5v-13H30.4v-40.3h13.1v-13h13.4v-13.4h66.6v13.4H70.2v13H56.9V224h13.3v13h26.5
			v-26.6h-13v-13.2h39.8V250.5z"/>
		<path fill="#FFCC00" d="M235.3,250.5h-26.8v-26.6h-38.9v26.6h-27.6v-66.8h13.2v-13h13.3v-13.4h39.9v13.4H222v13h13.3V250.5z
			 M208.5,210.4v-26.8h-13v-13H182v13h-12.4v26.8H208.5z"/>
		<path fill="#FFCC00" d="M347,250.5h-26.8v-40.1H307v13.2h-13.3v-13.2h-13.4v40.1h-26.5v-93.3h26.5v13.4h13.4v13H307v-13h13.2
			v-13.4H347V250.5z"/>
		<path fill="#FFCC00" d="M458.7,250.5h-93.2v-93.3h93.2v13.4H392v26.6h53.4v13.2H392V237h66.7V250.5z"/>
		<path fill="#FFCC00" d="M570.4,237h-13.4v13.4h-66.7V237l-13-0.1V224h26.5v13l39.9-0.1v-26.4l-53.4-0.1v-13.3l-13,0.1v-26.6h13
			v-13.4h53.4v13.4h13.3v13h-26.5v-13h-26.8v26.5l53.3,0.1v13.2l13.4,0.1V237z"/>
	</g>
</g>
<g enable-background="new    ">
	<path fill="#EE0000" d="M229.7,117.6h-26.8V91H164v26.6h-27.6V50.8h13.2v-13H163V24.3h39.9v13.4h13.4v13h13.3V117.6z M202.9,77.5
		V50.8h-13v-13h-13.4v13H164v26.8H202.9z"/>
	<path fill="#EE0000" d="M348.8,117.6h-93.2V24.3h26.5v79.9h66.7V117.6z"/>
	<path fill="#EE0000" d="M467.9,117.6h-93.2V24.3h26.5v79.9h66.7V117.6z"/>
</g>
<g enable-background="new    ">
	<path fill="#EE0000" d="M109.8,237H43.2v-13.4H29.9v-13H16.7v-40.3h13.1v-13h13.4v-13.4h66.6v13.4H56.6v13H43.2v40.3h13.3v13H83
		v-26.6H70v-13.2h39.8V237z"/>
	<path fill="#EE0000" d="M229.1,237h-26.8v-26.6h-38.9V237h-27.6v-66.8h13.2v-13h13.3v-13.4h39.9v13.4h13.4v13h13.3V237z
		 M202.3,196.9v-26.8h-13v-13h-13.4v13h-12.4v26.8H202.3z"/>
	<path fill="#EE0000" d="M348.2,237h-26.8v-40.1h-13.2v13.2H295v-13.2h-13.4V237H255v-93.3h26.5v13.4H295v13h13.3v-13h13.2v-13.4
		h26.8V237z"/>
	<path fill="#EE0000" d="M467.4,237h-93.2v-93.3h93.2v13.4h-66.7v26.6h53.4v13.2h-53.4v26.6h66.7V237z"/>
	<path fill="#EE0000" d="M586.5,223.6h-13.4V237h-66.7v-13.4l-13-0.1v-12.9h26.5v13l39.9-0.1v-26.4l-53.4-0.1v-13.3l-13,0.1v-26.6
		h13v-13.4h53.4v13.4h13.3v13h-26.5v-13h-26.8v26.5l53.3,0.1v13.2l13.4,0.1V223.6z"/>
</g>
</svg>
