<?xml version="1.0" encoding="utf-8"?>
<!-- Generator: Adobe Illustrator 18.1.1, SVG Export Plug-In . SVG Version: 6.00 Build 0)  -->
<svg version="1.1" id="Layer_1" xmlns="http://www.w3.org/2000/svg" xmlns:xlink="http://www.w3.org/1999/xlink" x="0px" y="0px"
	 viewBox="0 0 136.9 109.5" enable-background="new 0 0 136.9 109.5" xml:space="preserve">
<g>
	<rect x="2.2" y="2.1" fill="#0F1041" width="132.5" height="105.3"/>
	<rect x="2.2" y="2.1" fill="#1A1751" width="132.5" height="54.5"/>
	<rect x="2.2" y="89.5" fill="#0A0B14" width="132.5" height="18"/>
	<rect x="2.2" y="3" fill="#0F1041" width="132.5" height="18"/>
	<rect x="2.2" y="2.1" fill="none" stroke="#E27070" stroke-width="4" stroke-miterlimit="10" width="132.5" height="105.3"/>
	<g>
		<path fill="#E27070" d="M10.5,43.6v-16h12v4h-8v2h6v4h-6v6H10.5z"/>
		<path fill="#E27070" d="M23.5,43.6v-14h2v-2h8v2h2v14h-4v-4h-4v4H23.5z M31.5,35.6v-4h-4v4H31.5z"/>
		<path fill="#E27070" d="M40.6,43.6l-4-4v-12h4v10l2,2l2-2v-10h4v12l-4,4H40.6z"/>
		<path fill="#E27070" d="M51.6,43.6v-2h-2v-12h2v-2h8v2h2v12h-2v2H51.6z M57.6,39.6v-8h-4v8H57.6z"/>
		<path fill="#E27070" d="M62.6,43.6v-16h10v2h2v6h-2v4h2v4h-4v-2h-2v-2h-2v4H62.6z M70.6,35.6v-4h-4v4H70.6z"/>
		<path fill="#E27070" d="M75.6,43.6v-4h4v-8h-4v-4h12v4h-4v8h4v4H75.6z"/>
		<path fill="#E27070" d="M92.6,43.6v-12h-4v-4h12v4h-4v12H92.6z"/>
		<path fill="#E27070" d="M101.6,43.6v-16h12v4h-8v2h6v4h-6v2h8v4H101.6z"/>
		<path fill="#E27070" d="M114.6,43.6v-4h8v-2h-8v-8h2v-2h10v4h-8v2h8v8h-2v2H114.6z"/>
	</g>
	<g>
		<path fill="#FFFFFF" d="M10.5,41.6v-16h12v4h-8v2h6v4h-6v6H10.5z"/>
		<path fill="#FFFFFF" d="M23.5,41.6v-14h2v-2h8v2h2v14h-4v-4h-4v4H23.5z M31.5,33.6v-4h-4v4H31.5z"/>
		<path fill="#FFFFFF" d="M40.6,41.6l-4-4v-12h4v10l2,2l2-2v-10h4v12l-4,4H40.6z"/>
		<path fill="#FFFFFF" d="M51.6,41.6v-2h-2v-12h2v-2h8v2h2v12h-2v2H51.6z M57.6,37.6v-8h-4v8H57.6z"/>
		<path fill="#FFFFFF" d="M62.6,41.6v-16h10v2h2v6h-2v4h2v4h-4v-2h-2v-2h-2v4H62.6z M70.6,33.6v-4h-4v4H70.6z"/>
		<path fill="#FFFFFF" d="M75.6,41.6v-4h4v-8h-4v-4h12v4h-4v8h4v4H75.6z"/>
		<path fill="#FFFFFF" d="M92.6,41.6v-12h-4v-4h12v4h-4v12H92.6z"/>
		<path fill="#FFFFFF" d="M101.6,41.6v-16h12v4h-8v2h6v4h-6v2h8v4H101.6z"/>
		<path fill="#FFFFFF" d="M114.6,41.6v-4h8v-2h-8v-8h2v-2h10v4h-8v2h8v8h-2v2H114.6z"/>
	</g>
	<g>
		<g>
			<g id="NaoAXJ_8_">
				<g>
					<polygon fill="#B02629" points="76.7,59.3 76.7,56.5 74,56.5 71.3,56.5 71.3,59.3 68.6,59.3 68.6,62 65.9,62 65.9,59.3 
						63.2,59.3 63.2,56.5 60.4,56.5 60.4,53.8 57.7,53.8 55,53.8 55,56.5 55,59.3 55,62 55,64.7 57.7,64.7 57.7,67.4 57.7,70.1 
						60.4,70.1 60.4,72.9 63.2,72.9 63.2,75.6 65.9,75.6 65.9,78.3 68.6,78.3 71.3,78.3 71.3,75.6 74,75.6 74,72.9 76.7,72.9 
						76.7,70.1 79.5,70.1 79.5,67.4 76.7,67.4 76.7,64.7 79.5,64.7 79.5,62 79.5,59.3 					"/>
					<g>
						<polygon fill="#E27070" points="65.9,78.3 65.9,81 68.6,81 71.3,81 71.3,78.3 68.6,78.3 						"/>
						<rect x="71.3" y="75.6" fill="#E27070" width="2.7" height="2.7"/>
						<rect x="63.2" y="75.6" fill="#E27070" width="2.7" height="2.7"/>
						<rect x="74" y="72.9" fill="#E27070" width="2.7" height="2.7"/>
						<rect x="60.4" y="72.9" fill="#E27070" width="2.7" height="2.7"/>
						<rect x="76.7" y="70.1" fill="#E27070" width="2.7" height="2.7"/>
						<rect x="57.7" y="70.1" fill="#E27070" width="2.7" height="2.7"/>
						<polygon fill="#E27070" points="57.7,64.7 55,64.7 55,67.4 55,70.1 57.7,70.1 57.7,67.4 						"/>
						<polygon fill="#E27070" points="55,59.3 55,56.5 55,53.8 52.3,53.8 52.3,56.5 52.3,59.3 52.3,62 52.3,64.7 55,64.7 55,62 
													"/>
						<polygon fill="#E27070" points="82.2,53.8 82.2,51.1 79.5,51.1 76.7,51.1 74,51.1 74,53.8 71.3,53.8 71.3,56.5 74,56.5 
							76.7,56.5 76.7,59.3 79.5,59.3 79.5,62 79.5,64.7 76.7,64.7 76.7,67.4 79.5,67.4 79.5,70.1 82.2,70.1 82.2,67.4 82.2,64.7 
							84.9,64.7 84.9,62 84.9,59.3 84.9,56.5 84.9,53.8 						"/>
						<polygon fill="#E27070" points="60.4,53.8 60.4,56.5 63.2,56.5 63.2,59.3 65.9,59.3 65.9,62 68.6,62 68.6,59.3 71.3,59.3 
							71.3,56.5 68.6,56.5 65.9,56.5 65.9,53.8 63.2,53.8 63.2,51.1 60.4,51.1 57.7,51.1 55,51.1 55,53.8 57.7,53.8 						"/>
					</g>
					<g>
						<polygon fill="#F9FAFB" points="65.9,81 65.9,83.7 68.6,83.7 71.3,83.7 71.3,81 68.6,81 						"/>
						<rect x="71.3" y="78.3" fill="#F9FAFB" width="2.7" height="2.7"/>
						<rect x="63.2" y="78.3" fill="#F9FAFB" width="2.7" height="2.7"/>
						<rect x="74" y="75.6" fill="#F9FAFB" width="2.7" height="2.7"/>
						<rect x="60.4" y="75.6" fill="#F9FAFB" width="2.7" height="2.7"/>
						<rect x="76.7" y="72.9" fill="#F9FAFB" width="2.7" height="2.7"/>
						<rect x="57.7" y="72.9" fill="#F9FAFB" width="2.7" height="2.7"/>
						<rect x="79.5" y="70.1" fill="#F9FAFB" width="2.7" height="2.7"/>
						<rect x="55" y="70.1" fill="#F9FAFB" width="2.7" height="2.7"/>
						<polygon fill="#F9FAFB" points="82.2,67.4 82.2,70.1 84.9,70.1 84.9,67.4 84.9,64.7 82.2,64.7 						"/>
						<polygon fill="#F9FAFB" points="55,64.7 52.3,64.7 52.3,67.4 52.3,70.1 55,70.1 55,67.4 						"/>
						<polygon fill="#F9FAFB" points="52.3,59.3 52.3,56.5 52.3,53.8 49.6,53.8 49.6,56.5 49.6,59.3 49.6,62 49.6,64.7 52.3,64.7 
							52.3,62 						"/>
						<polygon fill="#F9FAFB" points="84.9,53.8 84.9,56.5 84.9,59.3 84.9,62 84.9,64.7 87.6,64.7 87.6,62 87.6,59.3 87.6,56.5 
							87.6,53.8 						"/>
						<polygon fill="#F9FAFB" points="68.6,56.5 71.3,56.5 71.3,53.8 68.6,53.8 65.9,53.8 65.9,56.5 						"/>
						<rect x="82.2" y="51.1" fill="#F9FAFB" width="2.7" height="2.7"/>
						<rect x="71.3" y="51.1" fill="#F9FAFB" width="2.7" height="2.7"/>
						<rect x="63.2" y="51.1" fill="#F9FAFB" width="2.7" height="2.7"/>
						<rect x="52.3" y="51.1" fill="#F9FAFB" width="2.7" height="2.7"/>
						<polygon fill="#F9FAFB" points="79.5,51.1 82.2,51.1 82.2,48.4 79.5,48.4 76.7,48.4 74,48.4 74,51.1 76.7,51.1 						"/>
						<polygon fill="#F9FAFB" points="60.4,51.1 63.2,51.1 63.2,48.4 60.4,48.4 57.7,48.4 55,48.4 55,51.1 57.7,51.1 						"/>
					</g>
				</g>
			</g>
		</g>
		<g>
			<g id="NaoAXJ_6_">
				<g>
					<polygon fill="#B02629" points="117.5,59.3 117.5,56.5 114.8,56.5 112.1,56.5 112.1,59.3 109.3,59.3 109.3,62 106.6,62 
						106.6,59.3 103.9,59.3 103.9,56.5 101.2,56.5 101.2,53.8 98.5,53.8 95.8,53.8 95.8,56.5 95.8,59.3 95.8,62 95.8,64.7 
						98.5,64.7 98.5,67.4 98.5,70.1 101.2,70.1 101.2,72.9 103.9,72.9 103.9,75.6 106.6,75.6 106.6,78.3 109.3,78.3 112.1,78.3 
						112.1,75.6 114.8,75.6 114.8,72.9 117.5,72.9 117.5,70.1 120.2,70.1 120.2,67.4 117.5,67.4 117.5,64.7 120.2,64.7 120.2,62 
						120.2,59.3 					"/>
					<g>
						<polygon fill="#E27070" points="106.6,78.3 106.6,81 109.3,81 112.1,81 112.1,78.3 109.3,78.3 						"/>
						<rect x="112.1" y="75.6" fill="#E27070" width="2.7" height="2.7"/>
						<rect x="103.9" y="75.6" fill="#E27070" width="2.7" height="2.7"/>
						<rect x="114.8" y="72.9" fill="#E27070" width="2.7" height="2.7"/>
						<rect x="101.2" y="72.9" fill="#E27070" width="2.7" height="2.7"/>
						<rect x="117.5" y="70.1" fill="#E27070" width="2.7" height="2.7"/>
						<rect x="98.5" y="70.1" fill="#E27070" width="2.7" height="2.7"/>
						<polygon fill="#E27070" points="98.5,64.7 95.8,64.7 95.8,67.4 95.8,70.1 98.5,70.1 98.5,67.4 						"/>
						<polygon fill="#E27070" points="95.8,59.3 95.8,56.5 95.8,53.8 93,53.8 93,56.5 93,59.3 93,62 93,64.7 95.8,64.7 95.8,62 
													"/>
						<polygon fill="#E27070" points="122.9,53.8 122.9,51.1 120.2,51.1 117.5,51.1 114.8,51.1 114.8,53.8 112.1,53.8 112.1,56.5 
							114.8,56.5 117.5,56.5 117.5,59.3 120.2,59.3 120.2,62 120.2,64.7 117.5,64.7 117.5,67.4 120.2,67.4 120.2,70.1 122.9,70.1 
							122.9,67.4 122.9,64.7 125.7,64.7 125.7,62 125.7,59.3 125.7,56.5 125.7,53.8 						"/>
						<polygon fill="#E27070" points="101.2,53.8 101.2,56.5 103.9,56.5 103.9,59.3 106.6,59.3 106.6,62 109.3,62 109.3,59.3 
							112.1,59.3 112.1,56.5 109.3,56.5 106.6,56.5 106.6,53.8 103.9,53.8 103.9,51.1 101.2,51.1 98.5,51.1 95.8,51.1 95.8,53.8 
							98.5,53.8 						"/>
					</g>
					<g>
						<polygon fill="#F9FAFB" points="106.6,81 106.6,83.7 109.3,83.7 112.1,83.7 112.1,81 109.3,81 						"/>
						<rect x="112.1" y="78.3" fill="#F9FAFB" width="2.7" height="2.7"/>
						<rect x="103.9" y="78.3" fill="#F9FAFB" width="2.7" height="2.7"/>
						<rect x="114.8" y="75.6" fill="#F9FAFB" width="2.7" height="2.7"/>
						<rect x="101.2" y="75.6" fill="#F9FAFB" width="2.7" height="2.7"/>
						<rect x="117.5" y="72.9" fill="#F9FAFB" width="2.7" height="2.7"/>
						<rect x="98.5" y="72.9" fill="#F9FAFB" width="2.7" height="2.7"/>
						<rect x="120.2" y="70.1" fill="#F9FAFB" width="2.7" height="2.7"/>
						<rect x="95.8" y="70.1" fill="#F9FAFB" width="2.7" height="2.7"/>
						<polygon fill="#F9FAFB" points="122.9,67.4 122.9,70.1 125.7,70.1 125.7,67.4 125.7,64.7 122.9,64.7 						"/>
						<polygon fill="#F9FAFB" points="95.8,64.7 93,64.7 93,67.4 93,70.1 95.8,70.1 95.8,67.4 						"/>
						<polygon fill="#F9FAFB" points="93,59.3 93,56.5 93,53.8 90.3,53.8 90.3,56.5 90.3,59.3 90.3,62 90.3,64.7 93,64.7 93,62 
													"/>
						<polygon fill="#F9FAFB" points="125.7,53.8 125.7,56.5 125.7,59.3 125.7,62 125.7,64.7 128.4,64.7 128.4,62 128.4,59.3 
							128.4,56.5 128.4,53.8 						"/>
						<polygon fill="#F9FAFB" points="109.3,56.5 112.1,56.5 112.1,53.8 109.3,53.8 106.6,53.8 106.6,56.5 						"/>
						<rect x="122.9" y="51.1" fill="#F9FAFB" width="2.7" height="2.7"/>
						<rect x="112.1" y="51.1" fill="#F9FAFB" width="2.7" height="2.7"/>
						<rect x="103.9" y="51.1" fill="#F9FAFB" width="2.7" height="2.7"/>
						<rect x="93" y="51.1" fill="#F9FAFB" width="2.7" height="2.7"/>
						<polygon fill="#F9FAFB" points="120.2,51.1 122.9,51.1 122.9,48.4 120.2,48.4 117.5,48.4 114.8,48.4 114.8,51.1 117.5,51.1 
													"/>
						<polygon fill="#F9FAFB" points="101.2,51.1 103.9,51.1 103.9,48.4 101.2,48.4 98.5,48.4 95.8,48.4 95.8,51.1 98.5,51.1 						
							"/>
					</g>
				</g>
			</g>
		</g>
		<g>
			<g id="NaoAXJ_7_">
				<g>
					<polygon fill="#B02629" points="36,59.3 36,56.5 33.3,56.5 30.5,56.5 30.5,59.3 27.8,59.3 27.8,62 25.1,62 25.1,59.3 
						22.4,59.3 22.4,56.5 19.7,56.5 19.7,53.8 17,53.8 14.2,53.8 14.2,56.5 14.2,59.3 14.2,62 14.2,64.7 17,64.7 17,67.4 17,70.1 
						19.7,70.1 19.7,72.9 22.4,72.9 22.4,75.6 25.1,75.6 25.1,78.3 27.8,78.3 30.5,78.3 30.5,75.6 33.3,75.6 33.3,72.9 36,72.9 
						36,70.1 38.7,70.1 38.7,67.4 36,67.4 36,64.7 38.7,64.7 38.7,62 38.7,59.3 					"/>
					<g>
						<polygon fill="#E27070" points="25.1,78.3 25.1,81 27.8,81 30.5,81 30.5,78.3 27.8,78.3 						"/>
						<rect x="30.5" y="75.6" fill="#E27070" width="2.7" height="2.7"/>
						<rect x="22.4" y="75.6" fill="#E27070" width="2.7" height="2.7"/>
						<rect x="33.3" y="72.9" fill="#E27070" width="2.7" height="2.7"/>
						<rect x="19.7" y="72.9" fill="#E27070" width="2.7" height="2.7"/>
						<rect x="36" y="70.1" fill="#E27070" width="2.7" height="2.7"/>
						<rect x="17" y="70.1" fill="#E27070" width="2.7" height="2.7"/>
						<polygon fill="#E27070" points="17,64.7 14.2,64.7 14.2,67.4 14.2,70.1 17,70.1 17,67.4 						"/>
						<polygon fill="#E27070" points="14.2,59.3 14.2,56.5 14.2,53.8 11.5,53.8 11.5,56.5 11.5,59.3 11.5,62 11.5,64.7 14.2,64.7 
							14.2,62 						"/>
						<polygon fill="#E27070" points="41.4,53.8 41.4,51.1 38.7,51.1 36,51.1 33.3,51.1 33.3,53.8 30.5,53.8 30.5,56.5 33.3,56.5 
							36,56.5 36,59.3 38.7,59.3 38.7,62 38.7,64.7 36,64.7 36,67.4 38.7,67.4 38.7,70.1 41.4,70.1 41.4,67.4 41.4,64.7 44.1,64.7 
							44.1,62 44.1,59.3 44.1,56.5 44.1,53.8 						"/>
						<polygon fill="#E27070" points="19.7,53.8 19.7,56.5 22.4,56.5 22.4,59.3 25.1,59.3 25.1,62 27.8,62 27.8,59.3 30.5,59.3 
							30.5,56.5 27.8,56.5 25.1,56.5 25.1,53.8 22.4,53.8 22.4,51.1 19.7,51.1 17,51.1 14.2,51.1 14.2,53.8 17,53.8 						"/>
					</g>
					<g>
						<polygon fill="#F9FAFB" points="25.1,81 25.1,83.7 27.8,83.7 30.5,83.7 30.5,81 27.8,81 						"/>
						<rect x="30.5" y="78.3" fill="#F9FAFB" width="2.7" height="2.7"/>
						<rect x="22.4" y="78.3" fill="#F9FAFB" width="2.7" height="2.7"/>
						<rect x="33.3" y="75.6" fill="#F9FAFB" width="2.7" height="2.7"/>
						<rect x="19.7" y="75.6" fill="#F9FAFB" width="2.7" height="2.7"/>
						<rect x="36" y="72.9" fill="#F9FAFB" width="2.7" height="2.7"/>
						<rect x="17" y="72.9" fill="#F9FAFB" width="2.7" height="2.7"/>
						<rect x="38.7" y="70.1" fill="#F9FAFB" width="2.7" height="2.7"/>
						<rect x="14.2" y="70.1" fill="#F9FAFB" width="2.7" height="2.7"/>
						<polygon fill="#F9FAFB" points="41.4,67.4 41.4,70.1 44.1,70.1 44.1,67.4 44.1,64.7 41.4,64.7 						"/>
						<polygon fill="#F9FAFB" points="14.2,64.7 11.5,64.7 11.5,67.4 11.5,70.1 14.2,70.1 14.2,67.4 						"/>
						<polygon fill="#F9FAFB" points="11.5,59.3 11.5,56.5 11.5,53.8 8.8,53.8 8.8,56.5 8.8,59.3 8.8,62 8.8,64.7 11.5,64.7 
							11.5,62 						"/>
						<polygon fill="#F9FAFB" points="44.1,53.8 44.1,56.5 44.1,59.3 44.1,62 44.1,64.7 46.8,64.7 46.8,62 46.8,59.3 46.8,56.5 
							46.8,53.8 						"/>
						<polygon fill="#F9FAFB" points="27.8,56.5 30.5,56.5 30.5,53.8 27.8,53.8 25.1,53.8 25.1,56.5 						"/>
						<rect x="41.4" y="51.1" fill="#F9FAFB" width="2.7" height="2.7"/>
						<rect x="30.5" y="51.1" fill="#F9FAFB" width="2.7" height="2.7"/>
						<rect x="22.4" y="51.1" fill="#F9FAFB" width="2.7" height="2.7"/>
						<rect x="11.5" y="51.1" fill="#F9FAFB" width="2.7" height="2.7"/>
						<polygon fill="#F9FAFB" points="38.7,51.1 41.4,51.1 41.4,48.4 38.7,48.4 36,48.4 33.3,48.4 33.3,51.1 36,51.1 						"/>
						<polygon fill="#F9FAFB" points="19.7,51.1 22.4,51.1 22.4,48.4 19.7,48.4 17,48.4 14.2,48.4 14.2,51.1 17,51.1 						"/>
					</g>
				</g>
			</g>
		</g>
	</g>
</g>
</svg>
