<?xml version="1.0" encoding="utf-8"?>
<!-- Generator: Adobe Illustrator 18.1.1, SVG Export Plug-In . SVG Version: 6.00 Build 0)  -->
<svg version="1.1" id="Layer_1" xmlns="http://www.w3.org/2000/svg" xmlns:xlink="http://www.w3.org/1999/xlink" x="0px" y="0px"
	 viewBox="0 0 244.1 38.7" enable-background="new 0 0 244.1 38.7" xml:space="preserve">
<g>
	<path fill="#FFFFFF" d="M12.9,35.7V5.6h22.6v7.5H20.5v3.8h11.3v7.5H20.5v11.3H12.9z"/>
	<path fill="#FFFFFF" d="M37.4,35.7V9.4h3.8V5.6h15.1v3.8H60v26.4h-7.5v-7.5h-7.5v7.5H37.4z M52.5,20.7v-7.5h-7.5v7.5H52.5z"/>
	<path fill="#FFFFFF" d="M69.4,35.7l-7.5-7.5V5.6h7.5v18.8l3.8,3.8l3.8-3.8V5.6h7.5v22.6l-7.5,7.5H69.4z"/>
	<path fill="#FFFFFF" d="M90.1,35.7V32h-3.8V9.4h3.8V5.6h15.1v3.8h3.8V32h-3.8v3.8H90.1z M101.4,28.2V13.1h-7.5v15.1H101.4z"/>
	<path fill="#FFFFFF" d="M110.8,35.7V5.6h18.8v3.8h3.8v11.3h-3.8v7.5h3.8v7.5h-7.5V32h-3.8v-3.8h-3.8v7.5H110.8z M125.8,20.7v-7.5
		h-7.5v7.5H125.8z"/>
	<path fill="#FFFFFF" d="M135.2,35.7v-7.5h7.5V13.1h-7.5V5.6h22.6v7.5h-7.5v15.1h7.5v7.5H135.2z"/>
	<path fill="#FFFFFF" d="M167.2,35.7V13.1h-7.5V5.6h22.6v7.5h-7.5v22.6H167.2z"/>
	<path fill="#FFFFFF" d="M184.1,35.7V5.6h22.6v7.5h-15.1v3.8H203v7.5h-11.3v3.8h15.1v7.5H184.1z"/>
	<path fill="#FFFFFF" d="M208.6,35.7v-7.5h15.1v-3.8h-15.1V9.4h3.8V5.6h18.8v7.5h-15.1v3.8h15.1V32h-3.8v3.8H208.6z"/>
</g>
</svg>
